<?xml version="1.0" encoding="UTF-8" standalone="no"?>
<!DOCTYPE svg PUBLIC "-//W3C//DTD SVG 1.1//EN" "http://www.w3.org/Graphics/SVG/1.1/DTD/svg11.dtd">
<svg version="1.1" xmlns="http://www.w3.org/2000/svg" xmlns:xlink="http://www.w3.org/1999/xlink" preserveAspectRatio="none" viewBox="0 0 1132.91 377"><defs><path d="M1.79 0L1324.33 0L1324.33 440L1.79 440L1.79 0Z" id="a1wNCfirnO"></path><path d="M586.86 95.01C597.31 95.01 605.78 101.49 605.78 109.49C605.78 109.79 605.77 110.09 605.74 110.39C613.29 111.6 618.84 115.68 618.84 120.51C618.84 120.51 618.84 120.51 618.84 120.51C618.84 126.31 610.87 131.01 601.04 131.01C596.58 131.01 560.87 131.01 556.41 131.01C546.59 131.01 538.62 126.31 538.62 120.51C538.62 120.51 538.62 120.51 538.62 120.51C538.62 115.46 544.67 111.24 552.74 110.24C553.46 104.76 559.5 100.48 566.85 100.48C568.47 100.48 570.02 100.69 571.46 101.07C574.9 97.4 580.52 95.01 586.86 95.01Z" id="gSA9AQZfG"></path><path d="M91.94 117.06C101.12 117.06 108.55 122.25 108.55 128.66C108.55 128.9 108.54 129.15 108.52 129.38C115.15 130.36 120.02 133.62 120.02 137.5C120.02 137.5 120.02 137.5 120.02 137.5C120.02 142.14 113.02 145.91 104.39 145.91C100.48 145.91 69.12 145.91 65.2 145.91C56.57 145.91 49.57 142.14 49.57 137.5C49.57 137.5 49.57 137.5 49.57 137.5C49.57 133.45 54.89 130.07 61.97 129.27C62.61 124.87 67.91 121.45 74.37 121.45C75.79 121.45 77.15 121.61 78.42 121.92C81.43 118.98 86.37 117.06 91.94 117.06Z" id="bZRZqUFdC"></path><path d="M436.79 213.17C436.79 268.82 388.81 314 329.71 314C270.61 314 222.63 268.82 222.63 213.17C222.63 157.52 270.61 112.34 329.71 112.34C388.81 112.34 436.79 157.52 436.79 213.17Z" id="b5MIdlzvc"></path><path d="M538.62 276.24C538.62 332.7 484.62 378.54 418.11 378.54C351.59 378.54 297.59 332.7 297.59 276.24C297.59 219.78 351.59 173.95 418.11 173.95C484.62 173.95 538.62 219.78 538.62 276.24Z" id="b15JGt5AzJ"></path><path d="M324.3 267.21C324.3 323.67 272.22 369.5 208.06 369.5C143.91 369.5 91.82 323.67 91.82 267.21C91.82 210.75 143.91 164.91 208.06 164.91C272.22 164.91 324.3 210.75 324.3 267.21Z" id="fVFp4ejBE"></path><path d="M169.52 242.34L922.3 242.34L922.3 392.34L169.52 392.34L169.52 242.34Z" id="c2xqCwBegN"></path><path d="M166.66 226.32C166.66 226.32 165.92 226.32 165.01 226.32C164.1 226.32 163.36 226.32 163.36 226.32C163.36 226.32 164.1 226.32 165.01 226.32C165.92 226.32 166.33 226.32 166.66 226.32Z" id="c7dtpAulb8"></path><path d="M172.7 216.72C172.7 215.32 169.8 214.19 166.22 214.19C162.64 214.19 159.74 215.32 159.74 216.72C159.74 218.11 162.64 219.25 166.22 219.25C169.8 219.25 172.7 218.11 172.7 216.72Z" id="f3nTQ0M5KN"></path><path d="M170.53 183.23L176.05 203.42L165.01 203.42L153.97 203.42L159.49 183.23L165.01 163.03L170.53 183.23Z" id="ecA71U5p9"></path><path d="M165.98 215.92L165.98 184.19" id="b30aDbtMe"></path><path d="M169.67 187.56L165.98 195.25" id="a1bdH0xZDF"></path><path d="M160.2 193.25L165.98 201.9" id="dFrWPwMSy"></path><path d="" id="conzyshFx"></path><path d="M1.79 238.34L1324.33 238.34L1324.33 440L1.79 440L1.79 238.34Z" id="a1K87rqTY"></path><path d="M440.6 200.04C440.6 198.92 437.2 198.02 433 198.02C428.81 198.02 425.41 198.92 425.41 200.04C425.41 201.15 428.81 202.05 433 202.05C437.2 202.05 440.6 201.15 440.6 200.04Z" id="e2IPkh9311"></path><path d="M438.06 170.86L444.53 189.39L431.59 189.39L418.65 189.39L425.12 170.86L431.59 152.32L438.06 170.86Z" id="dh2ySklSY"></path><path d="M432.72 199.36L432.72 174.06" id="dcgONniPd"></path><path d="M437.05 176.74L432.72 182.88" id="a1eDOSogw1"></path><path d="M425.95 181.29L432.72 188.18" id="bm38RtVrR"></path><path d="" id="b4zRhm36r"></path><path d="M401.33 204.41C401.33 203.33 399.19 202.46 396.55 202.46C393.92 202.46 391.78 203.33 391.78 204.41C391.78 205.48 393.92 206.36 396.55 206.36C399.19 206.36 401.33 205.48 401.33 204.41Z" id="cO8trUnY"></path><path d="M399.87 178.6L403.94 194.16L395.8 194.16L387.67 194.16L391.73 178.6L395.8 163.03L399.87 178.6Z" id="b3SEbYgCLV"></path><path d="M396.52 203.79L396.52 179.34" id="cmzBcgwAf"></path><path d="M399.23 181.93L396.52 187.86" id="i10X01QZ0d"></path><path d="M392.26 186.32L396.52 192.99" id="cqpUC8Fif"></path><path d="" id="d1hFHGEVb7"></path><path d="M416.04 227.85C416.04 226.77 413.9 225.9 411.26 225.9C408.63 225.9 406.49 226.77 406.49 227.85C406.49 228.92 408.63 229.8 411.26 229.8C413.9 229.8 416.04 228.92 416.04 227.85Z" id="b2fqLVv5"></path><path d="M414.58 202.04L418.65 217.6L410.51 217.6L402.38 217.6L406.44 202.04L410.51 186.47L414.58 202.04Z" id="amGuQ35Kt"></path><path d="M411.23 227.23L411.23 202.78" id="c53dtCFkf7"></path><path d="M413.94 205.37L411.23 211.3" id="e1NFd6fDa5"></path><path d="M406.97 209.76L411.23 216.43" id="c6c99vCuPp"></path><path d="" id="ac8CuA6Db"></path><path d="M282.39 36.44C290.11 36.44 296.37 42.2 296.37 49.31C296.37 49.58 296.36 49.85 296.34 50.11C301.92 51.19 306.03 54.82 306.03 59.12C306.03 59.12 306.03 59.12 306.03 59.12C306.03 64.27 300.14 68.45 292.87 68.45C289.57 68.45 263.17 68.45 259.87 68.45C252.6 68.45 246.71 64.27 246.71 59.12C246.71 59.12 246.71 59.12 246.71 59.12C246.71 54.62 251.19 50.87 257.15 49.98C257.69 45.11 262.15 41.3 267.59 41.3C268.78 41.3 269.93 41.49 271 41.83C273.54 38.56 277.69 36.44 282.39 36.44Z" id="b1z73R83p"></path><path d="M216.85 196.85C216.85 195.51 213.45 194.42 209.26 194.42C205.06 194.42 201.66 195.51 201.66 196.85C201.66 198.18 205.06 199.27 209.26 199.27C213.45 199.27 216.85 198.18 216.85 196.85Z" id="bxC8egtym"></path><path d="M214.53 164.78L221 184.12L208.06 184.12L195.12 184.12L201.59 164.78L208.06 145.45L214.53 164.78Z" id="bmTMynde5"></path><path d="M209.2 196.08L209.2 165.7" id="e23NXkAJMF"></path><path d="M213.52 168.92L209.2 176.29" id="cWeg7rnFM"></path><path d="M202.43 174.38L209.2 182.66" id="o1y4hKGY5e"></path><path d="" id="a8GyzXFOT"></path><path d="M260.38 197.32C260.38 196.24 258.24 195.37 255.6 195.37C252.96 195.37 250.82 196.24 250.82 197.32C250.82 198.39 252.96 199.27 255.6 199.27C258.24 199.27 260.38 198.39 260.38 197.32Z" id="i4gNU3eLl"></path><path d="M258.92 171.51L262.98 187.07L254.85 187.07L246.71 187.07L250.78 171.51L254.85 155.94L258.92 171.51Z" id="b7fby1fk0"></path><path d="M255.56 196.7L255.56 172.25" id="beIYtFtUd"></path><path d="M258.28 174.84L255.56 180.77" id="cg39gGEIk"></path><path d="M251.31 179.23L255.56 185.9" id="b2C4famFgr"></path><path d="" id="e2OUMChhuo"></path><path d="M348.14 147.4C348.14 146.5 346 145.78 343.36 145.78C340.73 145.78 338.59 146.5 338.59 147.4C338.59 148.29 340.73 149.02 343.36 149.02C346 149.02 348.14 148.29 348.14 147.4Z" id="d14XdtFiUJ"></path><path d="M346.68 125.94L350.75 138.88L342.61 138.88L334.48 138.88L338.54 125.94L342.61 113.01L346.68 125.94Z" id="cmTPYySAr"></path><path d="M343.33 146.89L343.33 126.56" id="f3HbLfyhD"></path><path d="M346.04 128.72L343.33 133.64" id="d2aVSBO7F"></path><path d="M339.07 132.36L343.33 137.91" id="iK6naDRcJ"></path><path d="" id="ebPwINZ1H"></path><path d="M315.86 178.54C315.86 177.62 313.72 176.88 311.09 176.88C308.45 176.88 306.31 177.62 306.31 178.54C306.31 179.45 308.45 180.2 311.09 180.2C313.72 180.2 315.86 179.45 315.86 178.54Z" id="apqGmVVCK"></path><path d="M314.26 154.55L318.33 169.79L310.2 169.79L302.06 169.79L306.13 154.55L310.2 139.31L314.26 154.55Z" id="aOBvkU41s"></path><path d="M310.91 177.98L310.91 157.18" id="a2rJWc0FNj"></path><path d="M313.63 159.38L310.91 164.43" id="a1i7wL1SLq"></path><path d="M306.66 163.12L310.91 168.79" id="b5PCLEbHl0"></path><path d="" id="b2f8krZGTr"></path><path d="M417.6 271.98C417.6 270.9 415.46 270.03 412.83 270.03C410.19 270.03 408.05 270.9 408.05 271.98C408.05 273.05 410.19 273.93 412.83 273.93C415.46 273.93 417.6 273.05 417.6 271.98Z" id="b3Bn2box6p"></path><path d="M416.14 246.17L420.21 261.73L412.07 261.73L403.94 261.73L408 246.17L412.07 230.6L416.14 246.17Z" id="bULuCvBK4"></path><path d="M412.79 271.36L412.79 246.91" id="k9ygCWuh7"></path><path d="M415.51 249.5L412.79 255.43" id="aD9p3YWds"></path><path d="M408.53 253.89L412.79 260.56" id="cfPsUnFN"></path><path d="" id="d1oX5l4Uv"></path><path d="M91.17 291.02C91.17 289.63 87.77 288.49 83.58 288.49C79.38 288.49 75.98 289.63 75.98 291.02C75.98 292.42 79.38 293.55 83.58 293.55C87.77 293.55 91.17 292.42 91.17 291.02Z" id="aqQBQTEft"></path><path d="M88.85 257.53L95.32 277.73L82.38 277.73L69.44 277.73L75.91 257.53L82.38 237.34L88.85 257.53Z" id="b3X6wN3OyV"></path><path d="M83.52 290.23L83.52 258.49" id="arxIqY1tZ"></path><path d="M87.84 261.86L83.52 269.55" id="c559AE9BWg"></path><path d="M76.75 267.56L83.52 276.21" id="c21avhomh6"></path><path d="" id="a33DWQOmAZ"></path><path d="M395.36 286.68C395.36 285.2 392.45 284 388.88 284C385.3 284 382.39 285.2 382.39 286.68C382.39 288.16 385.3 289.36 388.88 289.36C392.45 289.36 395.36 288.16 395.36 286.68Z" id="a1A8bC762K"></path><path d="M393.19 251.19L398.71 272.59L387.67 272.59L376.63 272.59L382.15 251.19L387.67 229.8L393.19 251.19Z" id="dMHDLIkdX"></path><path d="M388.64 285.83L388.64 252.21" id="btCtZEghz"></path><path d="M392.32 255.78L388.64 263.93" id="a1Dm7Ax29q"></path><path d="M382.86 261.81L388.64 270.98" id="a57B9H1UX"></path><path d="" id="e2kZe47Kml"></path><path d="M191.78 296.09L214.67 296.09L214.67 337.97L191.78 337.97L191.78 296.09Z" id="g1CmPNyvDc"></path><path d="M191.72 307.77L214.83 307.77L214.83 310.57L191.72 310.57L191.72 307.77Z" id="b4wFpbCkAB"></path><path d="M196.73 301.93L198.41 296.09L195.06 296.09L191.72 296.09L193.39 301.93L195.06 307.77L196.73 301.93Z" id="bnDy3wLmB"></path><path d="M203.36 301.93L205.03 296.09L201.69 296.09L198.34 296.09L200.01 301.93L201.69 307.77L203.36 301.93Z" id="bqwO3lEw3"></path><path d="M209.97 301.93L211.64 296.09L208.29 296.09L204.95 296.09L206.62 301.93L208.29 307.77L209.97 301.93Z" id="cOFgvKj0T"></path><path d="M216.34 301.93L218.02 296.09L214.67 296.09L211.32 296.09L213 301.93L214.67 307.77L216.34 301.93Z" id="a1CnOEEjnY"></path><path d="M191.67 320.38L214.78 320.38L214.78 323.19L191.67 323.19L191.67 320.38Z" id="a1fcuEFfx"></path><path d="M193.45 331.81L191.78 337.97L195.13 337.97L198.47 337.97L196.8 331.81L195.13 325.64L193.45 331.81Z" id="d2sEUCqFd"></path><path d="M200.15 331.81L198.47 337.97L201.82 337.97L205.17 337.97L203.49 331.81L201.82 325.64L200.15 331.81Z" id="czC1gw9B0"></path><path d="M206.71 331.81L205.03 337.97L208.38 337.97L211.73 337.97L210.05 331.81L208.38 325.64L206.71 331.81Z" id="j2sJGCeGPg"></path><path d="M213 331.81L211.32 337.97L214.67 337.97L218.02 337.97L216.34 331.81L214.67 325.64L213 331.81Z" id="agThia73z"></path><path d="M195.13 310.57L196.13 310.57L196.13 320.89L195.13 320.89L195.13 310.57Z" id="h5JU9atsnL"></path><path d="M209.67 310.57L210.68 310.57L210.68 320.89L209.67 320.89L209.67 310.57Z" id="d3HW1sMvaC"></path><path d="M212.75 318.22L214.78 320.75L214.76 315.59L214.73 310.43L212.72 313.06L210.71 315.69L212.75 318.22Z" id="b4OpK4sUk"></path><path d="M213.41 332.93L212.16 337.79L214.67 337.79L217.18 337.79L215.93 332.93L214.67 328.06L213.41 332.93Z" id="b5RpBi7gjm"></path><path d="M193.52 313.05L191.74 310.43L191.72 315.59L191.69 320.75L193.49 318.21L195.29 315.68L193.52 313.05Z" id="h2uX9VeHpz"></path><path d="M213.1 317.09L214.42 318.62L214.41 315.5L214.39 312.39L213.09 313.98L211.78 315.57L213.1 317.09Z" id="bOXATzRgl"></path><path d="M193.15 314.02L191.85 312.39L191.82 315.5L191.78 318.61L193.11 317.13L194.44 315.65L193.15 314.02Z" id="g1uynYfY6E"></path><path d="M209.55 300.64L210.8 296.09L208.29 296.09L205.78 296.09L207.04 300.64L208.29 305.2L209.55 300.64Z" id="c7nWQ5Qjxt"></path><path d="M202.94 301.02L204.2 296.47L201.69 296.47L199.18 296.47L200.43 301.02L201.69 305.57L202.94 301.02Z" id="aodP9kSzn"></path><path d="M215.93 300.64L217.18 296.09L214.67 296.09L212.16 296.09L213.41 300.64L214.67 305.2L215.93 300.64Z" id="f1GyIOGV5Z"></path><path d="M215.09 326.16L221.38 326.16L221.38 337.96L215.09 337.96L215.09 326.16Z" id="mOX0Xzzco"></path><path d="M214.67 296.09L217.91 296.09L217.91 307.77L214.67 307.77L214.67 296.09Z" id="dHX3JeQVT"></path><path d="M196.32 301.02L197.57 296.47L195.06 296.47L192.55 296.47L193.81 301.02L195.06 305.57L196.32 301.02Z" id="bzQYbqKnl"></path><path d="M207.12 332.93L205.87 337.79L208.38 337.79L210.89 337.79L209.63 332.93L208.38 328.06L207.12 332.93Z" id="dpvkEAWnj"></path><path d="M200.56 332.93L199.31 337.79L201.82 337.79L204.33 337.79L203.07 332.93L201.82 328.06L200.56 332.93Z" id="c1BQl8ph3"></path><path d="M193.81 332.98L192.55 337.85L195.06 337.85L197.57 337.85L196.32 332.98L195.06 328.11L193.81 332.98Z" id="b383HtX4GO"></path><path d="M201.69 311.31L203.87 311.31L203.87 319.27L201.69 319.27L201.69 311.31Z" id="ddB1r1O0I"></path><path d="M203.27 313.89L205.17 313.89L205.17 317.57L203.27 317.57L203.27 313.89Z" id="c1MWl6Nsb0"></path><path d="M200.24 313.74L202.13 313.74L202.13 317.43L200.24 317.43L200.24 313.74Z" id="d8CKiGBMX"></path><path d="M205.17 314.74L207.06 314.74L207.06 317.03L205.17 317.03L205.17 314.74Z" id="a1XVqHGJew"></path><path d="M198.47 314.57L200.37 314.57L200.37 316.86L198.47 316.86L198.47 314.57Z" id="d8I8uBSjC6"></path><path d="M203.3 315.5C203.3 316.13 203.07 316.64 202.79 316.64C202.52 316.64 202.29 316.13 202.29 315.5C202.29 314.87 202.52 314.36 202.79 314.36C203.07 314.36 203.3 314.87 203.3 315.5Z" id="a2mnAqSXM8"></path><path d="M200.02 328.87L201.56 323.19L198.48 323.19L195.4 323.19L196.94 328.87L198.48 334.56L200.02 328.87Z" id="j20OAlZnXu"></path><path d="M206.71 328.58L208.24 323.19L205.17 323.19L202.09 323.19L203.63 328.58L205.17 333.97L206.71 328.58Z" id="b7ULitGrT"></path><path d="M213.1 328.87L214.64 323.19L211.56 323.19L208.48 323.19L210.02 328.87L211.56 334.56L213.1 328.87Z" id="ahLrZLsJ"></path><path d="M193.38 328.87L194.92 323.19L191.84 323.19L188.76 323.19L190.3 328.87L191.84 334.56L193.38 328.87Z" id="gpuewMjcQ"></path><path d="M188.44 322.27L191.69 322.27L191.69 335.4L188.44 335.4L188.44 322.27Z" id="ljW00T4c8"></path><path d="M197.15 303.22L195.9 307.77L198.41 307.77L200.92 307.77L199.66 303.22L198.41 298.66L197.15 303.22Z" id="a12LIFGzAd"></path><path d="M203.7 303.22L202.45 307.77L204.96 307.77L207.47 307.77L206.21 303.22L204.96 298.66L203.7 303.22Z" id="c2uxLmKq5"></path><path d="M210.31 303.39L209.05 307.94L211.56 307.94L214.07 307.94L212.82 303.39L211.56 298.84L210.31 303.39Z" id="f5XB2FUxE"></path><path d="M197.4 308.65L198.47 308.65L198.47 309.69L197.4 309.69L197.4 308.65Z" id="d9pioh3EY"></path><path d="M193.85 308.65L194.92 308.65L194.92 309.69L193.85 309.69L193.85 308.65Z" id="ejYLgBU4"></path><path d="M193.73 321.09L194.8 321.09L194.8 322.13L193.73 322.13L193.73 321.09Z" id="baVjyXs2KR"></path><path d="M197.51 321.24L198.58 321.24L198.58 322.28L197.51 322.28L197.51 321.24Z" id="j5xRKsbO5K"></path><path d="M201.22 321.09L202.29 321.09L202.29 322.13L201.22 322.13L201.22 321.09Z" id="b2wyPt3B"></path><path d="M204.95 321.24L206.02 321.24L206.02 322.28L204.95 322.28L204.95 321.24Z" id="bnlXzrryZ"></path><path d="M208.92 321.24L209.99 321.24L209.99 322.27L208.92 322.27L208.92 321.24Z" id="f5ynVtsnK"></path><path d="M212.75 321.09L213.82 321.09L213.82 322.13L212.75 322.13L212.75 321.09Z" id="c3hwo8xiZ"></path><path d="M201.22 308.65L202.29 308.65L202.29 309.69L201.22 309.69L201.22 308.65Z" id="b67EoMcrhh"></path><path d="M204.95 308.65L206.02 308.65L206.02 309.69L204.95 309.69L204.95 308.65Z" id="cpMqbfZFC"></path><path d="M208.92 308.65L209.99 308.65L209.99 309.69L208.92 309.69L208.92 308.65Z" id="b734o8gx3r"></path><path d="M212.54 308.65L213.62 308.65L213.62 309.69L212.54 309.69L212.54 308.65Z" id="aqcWHJEts"></path><path d="M190.03 302.01L188.36 307.85L191.7 307.85L195.05 307.85L193.37 302.01L191.7 296.17L190.03 302.01Z" id="b9uWnvNDQl"></path><path d="M180.12 302.63L178.21 308.05L182.03 308.05L185.85 308.05L183.94 302.63L182.03 297.21L180.12 302.63Z" id="a11s6Pecr5"></path><path d="M173.78 308.12L192.49 308.12L192.49 310.4L173.78 310.4L173.78 308.12Z" id="d1zMsWALW"></path><path d="M176.84 308.76L177.91 308.76L177.91 309.79L176.84 309.79L176.84 308.76Z" id="d7PUt6WPuj"></path><path d="M188.79 302.13L190.7 296.15L186.88 296.15L183.06 296.15L184.97 302.13L186.88 308.12L188.79 302.13Z" id="h1f2PeFUnR"></path><path d="M182.37 308.76L183.44 308.76L183.44 309.79L182.37 309.79L182.37 308.76Z" id="b1ifIi4HNT"></path><path d="M188.42 308.76L189.49 308.76L189.49 309.79L188.42 309.79L188.42 308.76Z" id="b60fq6ztHT"></path><path d="M154.51 296.63L177.39 296.63L177.39 338.51L154.51 338.51L154.51 296.63Z" id="asjw8qPrF"></path><path d="M154.44 308.31L177.55 308.31L177.55 311.11L154.44 311.11L154.44 308.31Z" id="d1ixKPThAG"></path><path d="M159.46 302.47L161.13 296.63L157.79 296.63L154.44 296.63L156.11 302.47L157.79 308.31L159.46 302.47Z" id="b2XIRFLPjZ"></path><path d="M166.09 302.47L167.76 296.63L164.41 296.63L161.07 296.63L162.74 302.47L164.41 308.31L166.09 302.47Z" id="c1ZextE2Gc"></path><path d="M172.69 302.47L174.36 296.63L171.02 296.63L167.67 296.63L169.34 302.47L171.02 308.31L172.69 302.47Z" id="a3ZsU89b7"></path><path d="M179.07 302.47L180.74 296.63L177.39 296.63L174.05 296.63L175.72 302.47L177.39 308.31L179.07 302.47Z" id="a3Q473paVy"></path><path d="M154.39 320.92L177.51 320.92L177.51 323.73L154.39 323.73L154.39 320.92Z" id="a6xPGzadyc"></path><path d="M156.18 332.35L154.51 338.51L157.85 338.51L161.2 338.51L159.53 332.35L157.85 326.19L156.18 332.35Z" id="aaVL6u0xT"></path><path d="M162.87 332.35L161.2 338.51L164.54 338.51L167.89 338.51L166.22 332.35L164.54 326.19L162.87 332.35Z" id="c1kpK8ghVG"></path><path d="M169.43 332.35L167.76 338.51L171.1 338.51L174.45 338.51L172.78 332.35L171.1 326.19L169.43 332.35Z" id="aTHeoAxDc"></path><path d="M179.31 301.4L180.71 296.75L177.91 296.75L175.11 296.75L176.51 301.4L177.91 306.06L179.31 301.4Z" id="c1tVpxZ753"></path><path d="M175.72 332.35L174.05 338.51L177.39 338.51L180.74 338.51L179.07 332.35L177.39 326.19L175.72 332.35Z" id="c3SvaD2Ex"></path><path d="M157.85 311.11L158.86 311.11L158.86 321.43L157.85 321.43L157.85 311.11Z" id="jpxgtfKQe"></path><path d="M172.4 311.11L173.4 311.11L173.4 321.43L172.4 321.43L172.4 311.11Z" id="b7yQmtjPrU"></path><path d="M175.47 318.76L177.51 321.29L177.48 316.13L177.45 310.97L175.44 313.6L173.43 316.23L175.47 318.76Z" id="g2aJ84ihF"></path><path d="M176.14 333.47L174.88 338.33L177.39 338.33L179.91 338.33L178.65 333.47L177.39 328.6L176.14 333.47Z" id="a1Gel4opW"></path><path d="M156.24 313.59L154.47 310.97L154.44 316.13L154.41 321.29L156.22 318.75L158.02 316.22L156.24 313.59Z" id="khNZBBaz2"></path><path d="M175.83 317.63L177.15 319.16L177.13 316.04L177.12 312.93L175.81 314.52L174.51 316.11L175.83 317.63Z" id="e2QP6Z5BlC"></path><path d="M155.87 314.56L154.58 312.93L154.54 316.04L154.51 319.16L155.84 317.67L157.16 316.19L155.87 314.56Z" id="e3kifoYcEz"></path><path d="M172.27 301.18L173.53 296.63L171.02 296.63L168.51 296.63L169.76 301.18L171.02 305.74L172.27 301.18Z" id="aeGUw8Iz5"></path><path d="M165.67 301.56L166.92 297.01L164.41 297.01L161.9 297.01L163.16 301.56L164.41 306.11L165.67 301.56Z" id="bMGGXmhQZ"></path><path d="M177.39 325.42L183.68 325.42L183.68 339.17L177.39 339.17L177.39 325.42Z" id="c3V3qFFqh"></path><path d="M159.04 301.56L160.3 297.01L157.79 297.01L155.28 297.01L156.53 301.56L157.79 306.11L159.04 301.56Z" id="ajm1cnU6s"></path><path d="M169.85 333.47L168.59 338.33L171.1 338.33L173.62 338.33L172.36 333.47L171.1 328.6L169.85 333.47Z" id="b2ZqkuTf1"></path><path d="M163.29 333.47L162.03 338.33L164.54 338.33L167.06 338.33L165.8 333.47L164.54 328.6L163.29 333.47Z" id="bonRXXHNG"></path><path d="M156.53 333.52L155.28 338.39L157.79 338.39L160.3 338.39L159.04 333.52L157.79 328.65L156.53 333.52Z" id="c1KZmG7zq5"></path><path d="M164.41 311.85L166.59 311.85L166.59 319.81L164.41 319.81L164.41 311.85Z" id="a1j5hL6F9P"></path><path d="M166 314.43L167.89 314.43L167.89 318.11L166 318.11L166 314.43Z" id="b532lwwIa"></path><path d="M162.96 314.28L164.86 314.28L164.86 317.97L162.96 317.97L162.96 314.28Z" id="i6MGu2Yxxy"></path><path d="M167.89 315.29L169.78 315.29L169.78 317.57L167.89 317.57L167.89 315.29Z" id="c3iQcTb8G"></path><path d="M161.2 315.11L163.09 315.11L163.09 317.4L161.2 317.4L161.2 315.11Z" id="b8sGIGqkh"></path><path d="M166.02 316.04C166.02 316.67 165.8 317.18 165.52 317.18C165.24 317.18 165.02 316.67 165.02 316.04C165.02 315.41 165.24 314.9 165.52 314.9C165.8 314.9 166.02 315.41 166.02 316.04Z" id="c9K4kBv32"></path><path d="M162.75 329.41L164.29 323.73L161.21 323.73L158.13 323.73L159.67 329.41L161.21 335.1L162.75 329.41Z" id="c3rnjeg6n"></path><path d="M169.43 329.12L170.97 323.73L167.89 323.73L164.81 323.73L166.35 329.12L167.89 334.51L169.43 329.12Z" id="k3ADAGE6Da"></path><path d="M175.82 329.41L177.36 323.73L174.28 323.73L171.2 323.73L172.74 329.41L174.28 335.1L175.82 329.41Z" id="lngmw7HSg"></path><path d="M156.1 329.41L157.64 323.73L154.56 323.73L151.48 323.73L153.02 329.41L154.56 335.1L156.1 329.41Z" id="cv1NDu7sd"></path><path d="M151.17 323.78L154.41 323.78L154.41 336.91L151.17 336.91L151.17 323.78Z" id="a2PsYOXi4"></path><path d="M159.88 303.76L158.62 308.31L161.13 308.31L163.64 308.31L162.39 303.76L161.13 299.2L159.88 303.76Z" id="g2Hk51kSpS"></path><path d="M166.43 303.76L165.17 308.31L167.68 308.31L170.19 308.31L168.94 303.76L167.68 299.2L166.43 303.76Z" id="h1RKYNqHFj"></path><path d="M173.03 303.93L171.78 308.48L174.29 308.48L176.8 308.48L175.54 303.93L174.29 299.38L173.03 303.93Z" id="eIVYqvT30"></path><path d="M160.13 309.19L161.2 309.19L161.2 310.23L160.13 310.23L160.13 309.19Z" id="dfTPP5evj"></path><path d="M156.57 309.19L157.64 309.19L157.64 310.23L156.57 310.23L156.57 309.19Z" id="b19mO9uqrF"></path><path d="M156.45 321.63L157.52 321.63L157.52 322.67L156.45 322.67L156.45 321.63Z" id="epePuzB"></path><path d="M160.23 321.78L161.3 321.78L161.3 322.82L160.23 322.82L160.23 321.78Z" id="fks9AzC3H"></path><path d="M163.95 321.63L165.02 321.63L165.02 322.67L163.95 322.67L163.95 321.63Z" id="a1npai6Et"></path><path d="M167.67 321.78L168.74 321.78L168.74 322.82L167.67 322.82L167.67 321.78Z" id="c10GRZKEsm"></path><path d="M171.65 321.78L172.72 321.78L172.72 322.81L171.65 322.81L171.65 321.78Z" id="d1WOZ1I0h"></path><path d="M175.47 321.63L176.54 321.63L176.54 322.67L175.47 322.67L175.47 321.63Z" id="b2JfqE4rJD"></path><path d="M163.95 309.19L165.02 309.19L165.02 310.23L163.95 310.23L163.95 309.19Z" id="a12Ah7wf4O"></path><path d="M167.67 309.19L168.74 309.19L168.74 310.23L167.67 310.23L167.67 309.19Z" id="a2LWnCV9ln"></path><path d="M171.65 309.19L172.72 309.19L172.72 310.23L171.65 310.23L171.65 309.19Z" id="c2xh2rnjmV"></path><path d="M175.27 309.19L176.34 309.19L176.34 310.23L175.27 310.23L175.27 309.19Z" id="f2Hz4ad40j"></path><path d="M152.75 302.55L151.08 308.39L154.43 308.39L157.77 308.39L156.1 302.55L154.43 296.71L152.75 302.55Z" id="i1xKtAtc1Z"></path><path d="M151.08 296.66L154.32 296.66L154.32 309.79L151.08 309.79L151.08 296.66Z" id="c7HaOAZDMQ"></path><path d="M146.07 297.28L156.65 267.84L178.2 259.17L192.03 261.58L197.89 270.18L197.89 259.77L213.52 259.77L213.52 270.18L222.63 297.28L156.65 297.28L146.07 297.28Z" id="c1SAt6aOJb"></path><path d="M275.13 250.69L289.36 250.69L289.36 272.09L275.13 272.09L275.13 250.69Z" id="b6ltzq4jx"></path><path d="M275.09 256.66L289.46 256.66L289.46 258.09L275.09 258.09L275.09 256.66Z" id="g19zm70ior"></path><path d="M278.21 253.67L279.25 250.69L277.17 250.69L275.09 250.69L276.13 253.67L277.17 256.66L278.21 253.67Z" id="a2lyNlkvxV"></path><path d="M282.33 253.67L283.37 250.69L281.29 250.69L279.21 250.69L280.25 253.67L281.29 256.66L282.33 253.67Z" id="b1Y1ONdgCt"></path><path d="M286.44 253.67L287.48 250.69L285.4 250.69L283.32 250.69L284.35 253.67L285.4 256.66L286.44 253.67Z" id="i2byvKD0gV"></path><path d="M290.4 253.67L291.44 250.69L289.36 250.69L287.28 250.69L288.32 253.67L289.36 256.66L290.4 253.67Z" id="b2oahWb22A"></path><path d="M275.06 263.11L289.43 263.11L289.43 264.54L275.06 264.54L275.06 263.11Z" id="b5v7CWNA0Y"></path><path d="M276.17 268.95L275.13 272.09L277.21 272.09L279.29 272.09L278.25 268.95L277.21 265.8L276.17 268.95Z" id="b3TE2WV1Fq"></path><path d="M280.33 268.95L279.29 272.09L281.37 272.09L283.45 272.09L282.41 268.95L281.37 265.8L280.33 268.95Z" id="a2CbaJrVii"></path><path d="M284.41 268.95L283.37 272.09L285.45 272.09L287.53 272.09L286.49 268.95L285.45 265.8L284.41 268.95Z" id="j3KzQijt1B"></path><path d="M288.32 268.95L287.28 272.09L289.36 272.09L291.44 272.09L290.4 268.95L289.36 265.8L288.32 268.95Z" id="b1B6IT8uLA"></path><path d="M277.21 258.09L277.83 258.09L277.83 263.37L277.21 263.37L277.21 258.09Z" id="b4m9YhzsDP"></path><path d="M286.25 258.09L286.88 258.09L286.88 263.37L286.25 263.37L286.25 258.09Z" id="b6Wvcu3YSW"></path><path d="M288.16 262L289.43 263.29L289.41 260.65L289.4 258.02L288.15 259.36L286.9 260.71L288.16 262Z" id="dIeiv5CPJ"></path><path d="M288.58 269.52L287.8 272.01L289.36 272.01L290.92 272.01L290.14 269.52L289.36 267.03L288.58 269.52Z" id="c293oYsLBu"></path><path d="M276.21 259.36L275.11 258.02L275.09 260.65L275.07 263.29L276.19 262L277.32 260.7L276.21 259.36Z" id="iQsWzXaVJ"></path><path d="M288.39 261.42L289.21 262.2L289.2 260.61L289.19 259.02L288.38 259.83L287.57 260.64L288.39 261.42Z" id="b5NkfOtlA3"></path><path d="M275.98 259.85L275.18 259.02L275.15 260.61L275.13 262.2L275.96 261.44L276.78 260.69L275.98 259.85Z" id="b2iXkoEdrr"></path><path d="M286.18 253.02L286.96 250.69L285.4 250.69L283.83 250.69L284.61 253.02L285.4 255.34L286.18 253.02Z" id="ad8Q3MCgE"></path><path d="M282.07 253.21L282.85 250.88L281.29 250.88L279.73 250.88L280.51 253.21L281.29 255.54L282.07 253.21Z" id="gfhScNt3R"></path><path d="M290.14 253.02L290.92 250.69L289.36 250.69L287.8 250.69L288.58 253.02L289.36 255.34L290.14 253.02Z" id="b3ybYyn1dS"></path><path d="M289.62 266.06L293.53 266.06L293.53 272.09L289.62 272.09L289.62 266.06Z" id="ci5Du6Lkp"></path><path d="M289.36 250.69L291.38 250.69L291.38 256.66L289.36 256.66L289.36 250.69Z" id="a6ZCeEe7I"></path><path d="M277.95 253.21L278.73 250.88L277.17 250.88L275.61 250.88L276.39 253.21L277.17 255.54L277.95 253.21Z" id="a47roYmcGB"></path><path d="M284.67 269.52L283.89 272.01L285.45 272.01L287.01 272.01L286.23 269.52L285.45 267.03L284.67 269.52Z" id="aWxlUZywi"></path><path d="M280.59 269.52L279.81 272.01L281.37 272.01L282.93 272.01L282.15 269.52L281.37 267.03L280.59 269.52Z" id="gpYk2kHpy"></path><path d="M276.39 269.54L275.61 272.03L277.17 272.03L278.73 272.03L277.95 269.54L277.17 267.06L276.39 269.54Z" id="a3AoxMYFib"></path><path d="M281.29 258.47L282.64 258.47L282.64 262.54L281.29 262.54L281.29 258.47Z" id="f1CaSNrd8"></path><path d="M282.27 259.79L283.45 259.79L283.45 261.67L282.27 261.67L282.27 259.79Z" id="e1aTLdkbb7"></path><path d="M280.39 259.71L281.57 259.71L281.57 261.6L280.39 261.6L280.39 259.71Z" id="dOeoYfQSU"></path><path d="M283.45 260.22L284.63 260.22L284.63 261.39L283.45 261.39L283.45 260.22Z" id="cYDTHFc7r"></path><path d="M279.29 260.13L280.47 260.13L280.47 261.3L279.29 261.3L279.29 260.13Z" id="a1wKpCXPFI"></path><path d="M282.29 260.61C282.29 260.93 282.15 261.2 281.98 261.2C281.8 261.2 281.67 260.93 281.67 260.61C281.67 260.29 281.8 260.03 281.98 260.03C282.15 260.03 282.29 260.29 282.29 260.61Z" id="k7chqeg6vx"></path><path d="M280.26 267.45L281.21 264.54L279.3 264.54L277.38 264.54L278.34 267.45L279.3 270.35L280.26 267.45Z" id="e3NmrHepeV"></path><path d="M284.41 267.29L285.37 264.54L283.45 264.54L281.54 264.54L282.49 267.29L283.45 270.05L284.41 267.29Z" id="b2DYpmI9vl"></path><path d="M288.38 267.45L289.34 264.54L287.42 264.54L285.51 264.54L286.47 267.45L287.42 270.35L288.38 267.45Z" id="d3Nf8Ybsn"></path><path d="M276.12 267.45L277.08 264.54L275.17 264.54L273.25 264.54L274.21 267.45L275.17 270.35L276.12 267.45Z" id="b4qhxGygt"></path><path d="M273.06 264.07L275.07 264.07L275.07 270.78L273.06 270.78L273.06 264.07Z" id="aMq4eVxdf"></path><path d="M278.47 254.33L277.69 256.66L279.25 256.66L280.81 256.66L280.03 254.33L279.25 252.01L278.47 254.33Z" id="eqT6cjCKw"></path><path d="M282.54 254.33L281.76 256.66L283.32 256.66L284.88 256.66L284.1 254.33L283.32 252.01L282.54 254.33Z" id="a31sVvIGE"></path><path d="M286.65 254.42L285.87 256.75L287.43 256.75L288.99 256.75L288.21 254.42L287.43 252.09L286.65 254.42Z" id="b1uScOWY1u"></path><path d="M278.63 257.11L279.29 257.11L279.29 257.64L278.63 257.64L278.63 257.11Z" id="c2P3yGgavQ"></path><path d="M276.42 257.11L277.08 257.11L277.08 257.64L276.42 257.64L276.42 257.11Z" id="bfteyZExy"></path><path d="M276.34 263.47L277.01 263.47L277.01 264L276.34 264L276.34 263.47Z" id="e2YX6bZI7k"></path><path d="M278.69 263.55L279.36 263.55L279.36 264.07L278.69 264.07L278.69 263.55Z" id="aNNUy8MYO"></path><path d="M281 263.47L281.67 263.47L281.67 264L281 264L281 263.47Z" id="jjOoK9fD5"></path><path d="M283.32 263.55L283.98 263.55L283.98 264.07L283.32 264.07L283.32 263.55Z" id="dg0XMBhOM"></path><path d="M285.79 263.54L286.45 263.54L286.45 264.07L285.79 264.07L285.79 263.54Z" id="b4MQfzqUut"></path><path d="M288.16 263.47L288.83 263.47L288.83 264L288.16 264L288.16 263.47Z" id="a2H7MKW2iQ"></path><path d="M281 257.11L281.67 257.11L281.67 257.64L281 257.64L281 257.11Z" id="fUbppvu5m"></path><path d="M283.32 257.11L283.98 257.11L283.98 257.64L283.32 257.64L283.32 257.11Z" id="a6WlNT2xu"></path><path d="M285.79 257.11L286.45 257.11L286.45 257.64L285.79 257.64L285.79 257.11Z" id="hR9Rxdisj"></path><path d="M288.04 257.11L288.7 257.11L288.7 257.64L288.04 257.64L288.04 257.11Z" id="b1Lx2QBwQF"></path><path d="M274.04 253.72L273 256.7L275.08 256.7L277.16 256.7L276.12 253.72L275.08 250.73L274.04 253.72Z" id="o3L239IbwX"></path><path d="M267.88 254.03L266.69 256.8L269.07 256.8L271.44 256.8L270.26 254.03L269.07 251.26L267.88 254.03Z" id="krFo8uebG"></path><path d="M263.94 256.84L275.57 256.84L275.57 258.01L263.94 258.01L263.94 256.84Z" id="a1skpQL6VQ"></path><path d="M265.85 257.16L266.51 257.16L266.51 257.69L265.85 257.69L265.85 257.16Z" id="b83LdYP7x"></path><path d="M273.27 253.78L274.46 250.72L272.08 250.72L269.71 250.72L270.9 253.78L272.08 256.84L273.27 253.78Z" id="aPSxWVNTE"></path><path d="M269.28 257.16L269.95 257.16L269.95 257.69L269.28 257.69L269.28 257.16Z" id="h2ws1lJ3DR"></path><path d="M273.04 257.16L273.71 257.16L273.71 257.69L273.04 257.69L273.04 257.16Z" id="c2kFAptbWR"></path><path d="M251.96 250.97L266.19 250.97L266.19 272.37L251.96 272.37L251.96 250.97Z" id="apKBYZECq"></path><path d="M251.92 256.94L266.29 256.94L266.29 258.37L251.92 258.37L251.92 256.94Z" id="b8uQQegiq"></path><path d="M255.04 253.95L256.08 250.97L254 250.97L251.92 250.97L252.96 253.95L254 256.94L255.04 253.95Z" id="b19ISvLaiK"></path><path d="M259.16 253.95L260.2 250.97L258.12 250.97L256.04 250.97L257.08 253.95L258.12 256.94L259.16 253.95Z" id="a2Blu3tIlN"></path><path d="M263.26 253.95L264.3 250.97L262.22 250.97L260.14 250.97L261.18 253.95L262.22 256.94L263.26 253.95Z" id="b5ToiKnUxG"></path><path d="M267.23 253.95L268.27 250.97L266.19 250.97L264.11 250.97L265.15 253.95L266.19 256.94L267.23 253.95Z" id="b14PntxQtb"></path><path d="M251.89 263.38L266.26 263.38L266.26 264.82L251.89 264.82L251.89 263.38Z" id="e7NbOgQXHV"></path><path d="M253 269.22L251.96 272.37L254.04 272.37L256.12 272.37L255.08 269.22L254.04 266.07L253 269.22Z" id="b470HEyIV0"></path><path d="M257.16 269.22L256.12 272.37L258.2 272.37L260.28 272.37L259.24 269.22L258.2 266.07L257.16 269.22Z" id="jMZAfhuOw"></path><path d="M261.24 269.22L260.2 272.37L262.28 272.37L264.36 272.37L263.32 269.22L262.28 266.07L261.24 269.22Z" id="g21cSe0E8X"></path><path d="M267.38 253.41L268.25 251.03L266.51 251.03L264.77 251.03L265.64 253.41L266.51 255.79L267.38 253.41Z" id="fdceg3Nve"></path><path d="M265.15 269.22L264.11 272.37L266.19 272.37L268.27 272.37L267.23 269.22L266.19 266.07L265.15 269.22Z" id="e7TVc5iwQ"></path><path d="M254.04 258.37L254.66 258.37L254.66 263.64L254.04 263.64L254.04 258.37Z" id="ezIPaqpnS"></path><path d="M263.08 258.37L263.71 258.37L263.71 263.64L263.08 263.64L263.08 258.37Z" id="bleMmJ4Jg"></path><path d="M264.99 262.28L266.26 263.57L266.24 260.93L266.23 258.29L264.98 259.64L263.73 260.98L264.99 262.28Z" id="aslFNTivH"></path><path d="M265.41 269.79L264.63 272.28L266.19 272.28L267.75 272.28L266.97 269.79L266.19 267.31L265.41 269.79Z" id="d6Q5FZmM6I"></path><path d="M253.04 259.64L251.94 258.29L251.92 260.93L251.9 263.57L253.02 262.27L254.14 260.98L253.04 259.64Z" id="cCyDO21L1"></path><path d="M265.21 261.7L266.03 262.48L266.02 260.89L266.01 259.3L265.2 260.11L264.39 260.92L265.21 261.7Z" id="b17YQ8jr2Q"></path><path d="M252.81 260.13L252.01 259.3L251.98 260.89L251.96 262.48L252.79 261.72L253.61 260.96L252.81 260.13Z" id="b8wbgH3Srv"></path><path d="M263 253.29L263.78 250.97L262.22 250.97L260.66 250.97L261.44 253.29L262.22 255.62L263 253.29Z" id="gYhVXA2Br"></path><path d="M258.9 253.49L259.68 251.16L258.12 251.16L256.56 251.16L257.34 253.49L258.12 255.81L258.9 253.49Z" id="bSb18vuqe"></path><path d="M266.19 265.68L270.1 265.68L270.1 272.71L266.19 272.71L266.19 265.68Z" id="bxczv2bei"></path><path d="M254.78 253.49L255.56 251.16L254 251.16L252.44 251.16L253.22 253.49L254 255.81L254.78 253.49Z" id="a9rlcDS8n"></path><path d="M261.5 269.79L260.72 272.28L262.28 272.28L263.84 272.28L263.06 269.79L262.28 267.31L261.5 269.79Z" id="a1KHoeDkkm"></path><path d="M257.42 269.79L256.64 272.28L258.2 272.28L259.76 272.28L258.98 269.79L258.2 267.31L257.42 269.79Z" id="a2LSG88pO2"></path><path d="M253.22 269.82L252.44 272.31L254 272.31L255.56 272.31L254.78 269.82L254 267.33L253.22 269.82Z" id="aIUTQrtjb"></path><path d="M258.12 258.74L259.47 258.74L259.47 262.81L258.12 262.81L258.12 258.74Z" id="a5bvTWXAe"></path><path d="M259.1 260.06L260.28 260.06L260.28 261.95L259.1 261.95L259.1 260.06Z" id="d3QsipXx6K"></path><path d="M257.22 259.99L258.39 259.99L258.39 261.87L257.22 261.87L257.22 259.99Z" id="c1EvDzjKeI"></path><path d="M260.28 260.5L261.46 260.5L261.46 261.67L260.28 261.67L260.28 260.5Z" id="f1aDctHVAV"></path><path d="M256.12 260.41L257.3 260.41L257.3 261.58L256.12 261.58L256.12 260.41Z" id="b2nFOYbrnz"></path><path d="M259.12 260.89C259.12 261.21 258.98 261.47 258.81 261.47C258.63 261.47 258.49 261.21 258.49 260.89C258.49 260.56 258.63 260.3 258.81 260.3C258.98 260.3 259.12 260.56 259.12 260.89Z" id="gKMHhrfO2"></path><path d="M257.08 267.72L258.04 264.82L256.13 264.82L254.21 264.82L255.17 267.72L256.13 270.63L257.08 267.72Z" id="clYGgOI4m"></path><path d="M261.24 267.57L262.19 264.82L260.28 264.82L258.37 264.82L259.32 267.57L260.28 270.33L261.24 267.57Z" id="o5iQWN3G0J"></path><path d="M265.21 267.72L266.17 264.82L264.25 264.82L262.34 264.82L263.3 267.72L264.25 270.63L265.21 267.72Z" id="l22FCoFvHZ"></path><path d="M252.95 267.72L253.91 264.82L252 264.82L250.08 264.82L251.04 267.72L252 270.63L252.95 267.72Z" id="a2hhhmhg2r"></path><path d="M249.89 264.84L251.9 264.84L251.9 271.55L249.89 271.55L249.89 264.84Z" id="bmoTiKTJP"></path><path d="M255.3 254.61L254.52 256.94L256.08 256.94L257.64 256.94L256.86 254.61L256.08 252.28L255.3 254.61Z" id="bvBppkIa9"></path><path d="M259.37 254.61L258.59 256.94L260.15 256.94L261.71 256.94L260.93 254.61L260.15 252.28L259.37 254.61Z" id="aJ1ps8R0l"></path><path d="M263.48 254.7L262.7 257.02L264.26 257.02L265.82 257.02L265.04 254.7L264.26 252.37L263.48 254.7Z" id="d4snLhHJqV"></path><path d="M255.45 257.39L256.12 257.39L256.12 257.91L255.45 257.91L255.45 257.39Z" id="cwJ1FYBwq"></path><path d="M253.24 257.39L253.91 257.39L253.91 257.91L253.24 257.91L253.24 257.39Z" id="kIqk6dpkA"></path><path d="M253.17 263.75L253.84 263.75L253.84 264.27L253.17 264.27L253.17 263.75Z" id="a49aLvCV7J"></path><path d="M255.52 263.82L256.18 263.82L256.18 264.35L255.52 264.35L255.52 263.82Z" id="dwT7krrQk"></path><path d="M257.83 263.75L258.49 263.75L258.49 264.27L257.83 264.27L257.83 263.75Z" id="bwEuWojXP"></path><path d="M260.14 263.82L260.81 263.82L260.81 264.35L260.14 264.35L260.14 263.82Z" id="d27qrMR54d"></path><path d="M262.61 263.82L263.28 263.82L263.28 264.35L262.61 264.35L262.61 263.82Z" id="b2v5ivmUc"></path><path d="M264.99 263.75L265.66 263.75L265.66 264.27L264.99 264.27L264.99 263.75Z" id="bjyPXDctI"></path><path d="M257.83 257.39L258.49 257.39L258.49 257.91L257.83 257.91L257.83 257.39Z" id="a3oaWQ9XXI"></path><path d="M260.14 257.39L260.81 257.39L260.81 257.91L260.14 257.91L260.14 257.39Z" id="f4UGvEPIf"></path><path d="M262.61 257.39L263.28 257.39L263.28 257.91L262.61 257.91L262.61 257.39Z" id="b3Y8RTgxCh"></path><path d="M264.87 257.39L265.53 257.39L265.53 257.91L264.87 257.91L264.87 257.39Z" id="a6SqjCvba"></path><path d="M250.87 253.99L249.83 256.98L251.91 256.98L253.99 256.98L252.95 253.99L251.91 251.01L250.87 253.99Z" id="d1gtLaKyTn"></path><path d="M249.83 250.98L251.85 250.98L251.85 257.69L249.83 257.69L249.83 250.98Z" id="c3wronRo1x"></path><path d="M246.71 251.3L253.29 236.25L266.69 231.82L275.29 233.05L278.93 237.44L278.93 232.13L288.64 232.13L288.64 237.44L294.31 251.3L253.29 251.3L246.71 251.3Z" id="ao0p5YzDs"></path><path d="M956.39 106.12C965.56 106.12 973 111.31 973 117.72C973 117.96 972.99 118.21 972.96 118.44C979.59 119.42 984.46 122.68 984.46 126.56C984.46 126.56 984.46 126.56 984.46 126.56C984.46 131.2 977.47 134.97 968.84 134.97C964.92 134.97 933.56 134.97 929.64 134.97C921.02 134.97 914.02 131.2 914.02 126.56C914.02 126.56 914.02 126.56 914.02 126.56C914.02 122.51 919.34 119.13 926.42 118.33C927.05 113.93 932.36 110.51 938.81 110.51C940.23 110.51 941.59 110.67 942.86 110.98C945.88 108.04 950.81 106.12 956.39 106.12Z" id="f6L10qDvB"></path></defs><g><g><g><use xlink:href="#a1wNCfirnO" opacity="1" fill="#8ad9e4" fill-opacity="1"></use></g><g><use xlink:href="#gSA9AQZfG" opacity="1" fill="#ffffff" fill-opacity="1"></use></g><g><use xlink:href="#bZRZqUFdC" opacity="1" fill="#ffffff" fill-opacity="1"></use></g><g><use xlink:href="#b5MIdlzvc" opacity="1" fill="#139c6b" fill-opacity="1"></use></g><g><use xlink:href="#b15JGt5AzJ" opacity="1" fill="#8a6c6c" fill-opacity="1"></use></g><g><use xlink:href="#fVFp4ejBE" opacity="1" fill="#13a594" fill-opacity="1"></use></g><g><use xlink:href="#c2xqCwBegN" opacity="1" fill="#8ad9e4" fill-opacity="1"></use></g><g><use xlink:href="#c7dtpAulb8" opacity="1" fill="#f3b40b" fill-opacity="1"></use></g><g><g><use xlink:href="#f3nTQ0M5KN" opacity="1" fill="#626669" fill-opacity="1"></use></g><g><g><use xlink:href="#ecA71U5p9" opacity="1" fill="#f0c61b" fill-opacity="1"></use></g><g><use xlink:href="#b30aDbtMe" opacity="1" fill="#483910" fill-opacity="1"></use><g><use xlink:href="#b30aDbtMe" opacity="1" fill-opacity="0" stroke="#855e42" stroke-width="2" stroke-opacity="1"></use></g></g><g><g><use xlink:href="#a1bdH0xZDF" opacity="1" fill-opacity="0" stroke="#855e42" stroke-width="2" stroke-opacity="1"></use></g></g><g><g><use xlink:href="#dFrWPwMSy" opacity="1" fill-opacity="0" stroke="#855e42" stroke-width="2" stroke-opacity="1"></use></g></g><g><g><use xlink:href="#conzyshFx" opacity="1" fill-opacity="0" stroke="#4b3a14" stroke-width="4" stroke-opacity="1"></use></g></g></g></g><g><use xlink:href="#a1K87rqTY" opacity="1" fill="#ccecc5" fill-opacity="1"></use></g><g><g><use xlink:href="#e2IPkh9311" opacity="1" fill="#626669" fill-opacity="1"></use></g><g><g><use xlink:href="#dh2ySklSY" opacity="1" fill="#f0c61b" fill-opacity="1"></use></g><g><use xlink:href="#dcgONniPd" opacity="1" fill="#483910" fill-opacity="1"></use><g><use xlink:href="#dcgONniPd" opacity="1" fill-opacity="0" stroke="#855e42" stroke-width="2" stroke-opacity="1"></use></g></g><g><g><use xlink:href="#a1eDOSogw1" opacity="1" fill-opacity="0" stroke="#855e42" stroke-width="2" stroke-opacity="1"></use></g></g><g><g><use xlink:href="#bm38RtVrR" opacity="1" fill-opacity="0" stroke="#855e42" stroke-width="2" stroke-opacity="1"></use></g></g><g><g><use xlink:href="#b4zRhm36r" opacity="1" fill-opacity="0" stroke="#4b3a14" stroke-width="4" stroke-opacity="1"></use></g></g></g></g><g><g><use xlink:href="#cO8trUnY" opacity="1" fill="#626669" fill-opacity="1"></use></g><g><g><use xlink:href="#b3SEbYgCLV" opacity="1" fill="#346f1c" fill-opacity="1"></use></g><g><use xlink:href="#cmzBcgwAf" opacity="1" fill="#483910" fill-opacity="1"></use><g><use xlink:href="#cmzBcgwAf" opacity="1" fill-opacity="0" stroke="#855e42" stroke-width="2" stroke-opacity="1"></use></g></g><g><g><use xlink:href="#i10X01QZ0d" opacity="1" fill-opacity="0" stroke="#855e42" stroke-width="2" stroke-opacity="1"></use></g></g><g><g><use xlink:href="#cqpUC8Fif" opacity="1" fill-opacity="0" stroke="#855e42" stroke-width="2" stroke-opacity="1"></use></g></g><g><g><use xlink:href="#d1hFHGEVb7" opacity="1" fill-opacity="0" stroke="#4b3a14" stroke-width="4" stroke-opacity="1"></use></g></g></g></g><g><g><use xlink:href="#b2fqLVv5" opacity="1" fill="#626669" fill-opacity="1"></use></g><g><g><use xlink:href="#amGuQ35Kt" opacity="1" fill="#c26c86" fill-opacity="1"></use></g><g><use xlink:href="#c53dtCFkf7" opacity="1" fill="#483910" fill-opacity="1"></use><g><use xlink:href="#c53dtCFkf7" opacity="1" fill-opacity="0" stroke="#855e42" stroke-width="2" stroke-opacity="1"></use></g></g><g><g><use xlink:href="#e1NFd6fDa5" opacity="1" fill-opacity="0" stroke="#855e42" stroke-width="2" stroke-opacity="1"></use></g></g><g><g><use xlink:href="#c6c99vCuPp" opacity="1" fill-opacity="0" stroke="#855e42" stroke-width="2" stroke-opacity="1"></use></g></g><g><g><use xlink:href="#ac8CuA6Db" opacity="1" fill-opacity="0" stroke="#4b3a14" stroke-width="4" stroke-opacity="1"></use></g></g></g></g><g><use xlink:href="#b1z73R83p" opacity="1" fill="#ffffff" fill-opacity="1"></use></g><g><g><use xlink:href="#bxC8egtym" opacity="1" fill="#626669" fill-opacity="1"></use></g><g><g><use xlink:href="#bmTMynde5" opacity="1" fill="#c26c86" fill-opacity="1"></use></g><g><use xlink:href="#e23NXkAJMF" opacity="1" fill="#483910" fill-opacity="1"></use><g><use xlink:href="#e23NXkAJMF" opacity="1" fill-opacity="0" stroke="#855e42" stroke-width="2" stroke-opacity="1"></use></g></g><g><g><use xlink:href="#cWeg7rnFM" opacity="1" fill-opacity="0" stroke="#855e42" stroke-width="2" stroke-opacity="1"></use></g></g><g><g><use xlink:href="#o1y4hKGY5e" opacity="1" fill-opacity="0" stroke="#855e42" stroke-width="2" stroke-opacity="1"></use></g></g><g><g><use xlink:href="#a8GyzXFOT" opacity="1" fill-opacity="0" stroke="#4b3a14" stroke-width="4" stroke-opacity="1"></use></g></g></g></g><g><g><use xlink:href="#i4gNU3eLl" opacity="1" fill="#626669" fill-opacity="1"></use></g><g><g><use xlink:href="#b7fby1fk0" opacity="1" fill="#346f1c" fill-opacity="1"></use></g><g><use xlink:href="#beIYtFtUd" opacity="1" fill="#483910" fill-opacity="1"></use><g><use xlink:href="#beIYtFtUd" opacity="1" fill-opacity="0" stroke="#855e42" stroke-width="2" stroke-opacity="1"></use></g></g><g><g><use xlink:href="#cg39gGEIk" opacity="1" fill-opacity="0" stroke="#855e42" stroke-width="2" stroke-opacity="1"></use></g></g><g><g><use xlink:href="#b2C4famFgr" opacity="1" fill-opacity="0" stroke="#855e42" stroke-width="2" stroke-opacity="1"></use></g></g><g><g><use xlink:href="#e2OUMChhuo" opacity="1" fill-opacity="0" stroke="#4b3a14" stroke-width="4" stroke-opacity="1"></use></g></g></g></g><g><g><use xlink:href="#d14XdtFiUJ" opacity="1" fill="#626669" fill-opacity="1"></use></g><g><g><use xlink:href="#cmTPYySAr" opacity="1" fill="#c26c86" fill-opacity="1"></use></g><g><use xlink:href="#f3HbLfyhD" opacity="1" fill="#483910" fill-opacity="1"></use><g><use xlink:href="#f3HbLfyhD" opacity="1" fill-opacity="0" stroke="#855e42" stroke-width="2" stroke-opacity="1"></use></g></g><g><g><use xlink:href="#d2aVSBO7F" opacity="1" fill-opacity="0" stroke="#855e42" stroke-width="2" stroke-opacity="1"></use></g></g><g><g><use xlink:href="#iK6naDRcJ" opacity="1" fill-opacity="0" stroke="#855e42" stroke-width="2" stroke-opacity="1"></use></g></g><g><g><use xlink:href="#ebPwINZ1H" opacity="1" fill-opacity="0" stroke="#4b3a14" stroke-width="4" stroke-opacity="1"></use></g></g></g></g><g><g><use xlink:href="#apqGmVVCK" opacity="1" fill="#626669" fill-opacity="1"></use></g><g><g><use xlink:href="#aOBvkU41s" opacity="1" fill="#f0891b" fill-opacity="1"></use></g><g><use xlink:href="#a2rJWc0FNj" opacity="1" fill="#483910" fill-opacity="1"></use><g><use xlink:href="#a2rJWc0FNj" opacity="1" fill-opacity="0" stroke="#855e42" stroke-width="2" stroke-opacity="1"></use></g></g><g><g><use xlink:href="#a1i7wL1SLq" opacity="1" fill-opacity="0" stroke="#855e42" stroke-width="2" stroke-opacity="1"></use></g></g><g><g><use xlink:href="#b5PCLEbHl0" opacity="1" fill-opacity="0" stroke="#855e42" stroke-width="2" stroke-opacity="1"></use></g></g><g><g><use xlink:href="#b2f8krZGTr" opacity="1" fill-opacity="0" stroke="#4b3a14" stroke-width="4" stroke-opacity="1"></use></g></g></g></g><g><g><use xlink:href="#b3Bn2box6p" opacity="1" fill="#626669" fill-opacity="1"></use></g><g><g><use xlink:href="#bULuCvBK4" opacity="1" fill="#346f1c" fill-opacity="1"></use></g><g><use xlink:href="#k9ygCWuh7" opacity="1" fill="#483910" fill-opacity="1"></use><g><use xlink:href="#k9ygCWuh7" opacity="1" fill-opacity="0" stroke="#855e42" stroke-width="2" stroke-opacity="1"></use></g></g><g><g><use xlink:href="#aD9p3YWds" opacity="1" fill-opacity="0" stroke="#855e42" stroke-width="2" stroke-opacity="1"></use></g></g><g><g><use xlink:href="#cfPsUnFN" opacity="1" fill-opacity="0" stroke="#855e42" stroke-width="2" stroke-opacity="1"></use></g></g><g><g><use xlink:href="#d1oX5l4Uv" opacity="1" fill-opacity="0" stroke="#4b3a14" stroke-width="4" stroke-opacity="1"></use></g></g></g></g><g><g><use xlink:href="#aqQBQTEft" opacity="1" fill="#626669" fill-opacity="1"></use></g><g><g><use xlink:href="#b3X6wN3OyV" opacity="1" fill="#346f1c" fill-opacity="1"></use></g><g><use xlink:href="#arxIqY1tZ" opacity="1" fill="#483910" fill-opacity="1"></use><g><use xlink:href="#arxIqY1tZ" opacity="1" fill-opacity="0" stroke="#855e42" stroke-width="2" stroke-opacity="1"></use></g></g><g><g><use xlink:href="#c559AE9BWg" opacity="1" fill-opacity="0" stroke="#855e42" stroke-width="2" stroke-opacity="1"></use></g></g><g><g><use xlink:href="#c21avhomh6" opacity="1" fill-opacity="0" stroke="#855e42" stroke-width="2" stroke-opacity="1"></use></g></g><g><g><use xlink:href="#a33DWQOmAZ" opacity="1" fill-opacity="0" stroke="#4b3a14" stroke-width="4" stroke-opacity="1"></use></g></g></g></g><g><g><use xlink:href="#a1A8bC762K" opacity="1" fill="#626669" fill-opacity="1"></use></g><g><g><use xlink:href="#dMHDLIkdX" opacity="1" fill="#f0c61b" fill-opacity="1"></use></g><g><use xlink:href="#btCtZEghz" opacity="1" fill="#483910" fill-opacity="1"></use><g><use xlink:href="#btCtZEghz" opacity="1" fill-opacity="0" stroke="#855e42" stroke-width="2" stroke-opacity="1"></use></g></g><g><g><use xlink:href="#a1Dm7Ax29q" opacity="1" fill-opacity="0" stroke="#855e42" stroke-width="2" stroke-opacity="1"></use></g></g><g><g><use xlink:href="#a57B9H1UX" opacity="1" fill-opacity="0" stroke="#855e42" stroke-width="2" stroke-opacity="1"></use></g></g><g><g><use xlink:href="#e2kZe47Kml" opacity="1" fill-opacity="0" stroke="#4b3a14" stroke-width="4" stroke-opacity="1"></use></g></g></g></g><g><g><g></g></g><g><g><g><use xlink:href="#g1CmPNyvDc" opacity="1" fill="#41380d" fill-opacity="1"></use></g><g><use xlink:href="#b4wFpbCkAB" opacity="1" fill="#eae9e2" fill-opacity="1"></use></g><g><use xlink:href="#bnDy3wLmB" opacity="1" fill="#eae9e4" fill-opacity="1"></use></g><g><use xlink:href="#bqwO3lEw3" opacity="1" fill="#eae9e4" fill-opacity="1"></use></g><g><use xlink:href="#cOFgvKj0T" opacity="1" fill="#eae9e4" fill-opacity="1"></use></g><g><use xlink:href="#a1CnOEEjnY" opacity="1" fill="#eae9e4" fill-opacity="1"></use></g><g><use xlink:href="#a1fcuEFfx" opacity="1" fill="#eae9e2" fill-opacity="1"></use></g><g><use xlink:href="#d2sEUCqFd" opacity="1" fill="#ffffff" fill-opacity="1"></use></g><g><use xlink:href="#czC1gw9B0" opacity="1" fill="#ffffff" fill-opacity="1"></use></g><g><use xlink:href="#j2sJGCeGPg" opacity="1" fill="#ffffff" fill-opacity="1"></use></g><g><use xlink:href="#agThia73z" opacity="1" fill="#ffffff" fill-opacity="1"></use></g><g><use xlink:href="#h5JU9atsnL" opacity="1" fill="#ffffff" fill-opacity="1"></use></g><g><use xlink:href="#d3HW1sMvaC" opacity="1" fill="#ffffff" fill-opacity="1"></use></g><g><use xlink:href="#b4OpK4sUk" opacity="1" fill="#ffffff" fill-opacity="1"></use></g><g><use xlink:href="#b5RpBi7gjm" opacity="1" fill="#5f77c5" fill-opacity="1"></use></g><g><use xlink:href="#h2uX9VeHpz" opacity="1" fill="#ffffff" fill-opacity="1"></use></g><g><use xlink:href="#bOXATzRgl" opacity="1" fill="#a83737" fill-opacity="1"></use></g><g><use xlink:href="#g1uynYfY6E" opacity="1" fill="#a83737" fill-opacity="1"></use></g><g><use xlink:href="#c7nWQ5Qjxt" opacity="1" fill="#319b44" fill-opacity="1"></use></g><g><use xlink:href="#aodP9kSzn" opacity="1" fill="#319b44" fill-opacity="1"></use></g><g><use xlink:href="#f1GyIOGV5Z" opacity="1" fill="#319b44" fill-opacity="1"></use></g><g><use xlink:href="#mOX0Xzzco" opacity="1" fill="#ccecc5" fill-opacity="1"></use></g><g><use xlink:href="#dHX3JeQVT" opacity="1" fill="#ccecc5" fill-opacity="1"></use></g><g><use xlink:href="#bzQYbqKnl" opacity="1" fill="#319b44" fill-opacity="1"></use></g><g><use xlink:href="#dpvkEAWnj" opacity="1" fill="#5f77c5" fill-opacity="1"></use></g><g><use xlink:href="#c1BQl8ph3" opacity="1" fill="#5f77c5" fill-opacity="1"></use></g><g><use xlink:href="#b383HtX4GO" opacity="1" fill="#5f77c5" fill-opacity="1"></use></g><g><use xlink:href="#ddB1r1O0I" opacity="1" fill="#2e6ce4" fill-opacity="1"></use></g><g><use xlink:href="#c1MWl6Nsb0" opacity="1" fill="#2e6ce4" fill-opacity="1"></use></g><g><use xlink:href="#d8CKiGBMX" opacity="1" fill="#2e6ce4" fill-opacity="1"></use></g><g><use xlink:href="#a1XVqHGJew" opacity="1" fill="#2e6ce4" fill-opacity="1"></use></g><g><use xlink:href="#d8I8uBSjC6" opacity="1" fill="#2e6ce4" fill-opacity="1"></use></g><g><use xlink:href="#a2mnAqSXM8" opacity="1" fill="#2e6ce4" fill-opacity="1"></use><g><use xlink:href="#a2mnAqSXM8" opacity="1" fill-opacity="0" stroke="#12070a" stroke-width="2" stroke-opacity="1"></use></g></g><g><use xlink:href="#j20OAlZnXu" opacity="1" fill="#f2e51a" fill-opacity="1"></use></g><g><use xlink:href="#b7ULitGrT" opacity="1" fill="#f2e51a" fill-opacity="1"></use></g><g><use xlink:href="#ahLrZLsJ" opacity="1" fill="#f2e51a" fill-opacity="1"></use></g><g><use xlink:href="#gpuewMjcQ" opacity="1" fill="#f2e51a" fill-opacity="1"></use></g><g><use xlink:href="#ljW00T4c8" opacity="1" fill="#ccecc5" fill-opacity="1"></use></g><g><use xlink:href="#a12LIFGzAd" opacity="1" fill="#f99d03" fill-opacity="1"></use></g><g><use xlink:href="#c2uxLmKq5" opacity="1" fill="#f99d03" fill-opacity="1"></use></g><g><use xlink:href="#f5XB2FUxE" opacity="1" fill="#f99d03" fill-opacity="1"></use></g><g><use xlink:href="#d9pioh3EY" opacity="1" fill="#c59f5f" fill-opacity="1"></use></g><g><use xlink:href="#ejYLgBU4" opacity="1" fill="#c59f5f" fill-opacity="1"></use></g><g><use xlink:href="#baVjyXs2KR" opacity="1" fill="#c60909" fill-opacity="1"></use></g><g><use xlink:href="#j5xRKsbO5K" opacity="1" fill="#0919ba" fill-opacity="1"></use></g><g><use xlink:href="#b2wyPt3B" opacity="1" fill="#195c2e" fill-opacity="1"></use></g><g><use xlink:href="#bnlXzrryZ" opacity="1" fill="#c60909" fill-opacity="1"></use></g><g><use xlink:href="#f5ynVtsnK" opacity="1" fill="#0919ba" fill-opacity="1"></use></g><g><use xlink:href="#c3hwo8xiZ" opacity="1" fill="#54ba09" fill-opacity="1"></use></g><g><use xlink:href="#b67EoMcrhh" opacity="1" fill="#54ba09" fill-opacity="1"></use></g><g><use xlink:href="#cpMqbfZFC" opacity="1" fill="#0919ba" fill-opacity="1"></use></g><g><use xlink:href="#b734o8gx3r" opacity="1" fill="#ed1253" fill-opacity="1"></use></g><g><use xlink:href="#aqcWHJEts" opacity="1" fill="#f6f221" fill-opacity="1"></use></g></g><g><use xlink:href="#b9uWnvNDQl" opacity="1" fill="#f99d03" fill-opacity="1"></use></g></g><g><use xlink:href="#a11s6Pecr5" opacity="1" fill="#f99d03" fill-opacity="1"></use></g><g><use xlink:href="#d1zMsWALW" opacity="1" fill="#eae9e2" fill-opacity="1"></use></g><g><use xlink:href="#d7PUt6WPuj" opacity="1" fill="#ed1253" fill-opacity="1"></use></g><g><use xlink:href="#h1f2PeFUnR" opacity="1" fill="#319b44" fill-opacity="1"></use></g><g><use xlink:href="#b1ifIi4HNT" opacity="1" fill="#c59f5f" fill-opacity="1"></use></g><g><use xlink:href="#b60fq6ztHT" opacity="1" fill="#54ba09" fill-opacity="1"></use></g><g><g><use xlink:href="#asjw8qPrF" opacity="1" fill="#41380d" fill-opacity="1"></use></g><g><use xlink:href="#d1ixKPThAG" opacity="1" fill="#eae9e2" fill-opacity="1"></use></g><g><use xlink:href="#b2XIRFLPjZ" opacity="1" fill="#eae9e4" fill-opacity="1"></use></g><g><use xlink:href="#c1ZextE2Gc" opacity="1" fill="#eae9e4" fill-opacity="1"></use></g><g><use xlink:href="#a3ZsU89b7" opacity="1" fill="#eae9e4" fill-opacity="1"></use></g><g><use xlink:href="#a3Q473paVy" opacity="1" fill="#eae9e4" fill-opacity="1"></use></g><g><use xlink:href="#a6xPGzadyc" opacity="1" fill="#eae9e2" fill-opacity="1"></use></g><g><use xlink:href="#aaVL6u0xT" opacity="1" fill="#ffffff" fill-opacity="1"></use></g><g><use xlink:href="#c1kpK8ghVG" opacity="1" fill="#ffffff" fill-opacity="1"></use></g><g><use xlink:href="#aTHeoAxDc" opacity="1" fill="#ffffff" fill-opacity="1"></use></g><g><use xlink:href="#c1tVpxZ753" opacity="1" fill="#319b44" fill-opacity="1"></use></g><g><use xlink:href="#c3SvaD2Ex" opacity="1" fill="#ffffff" fill-opacity="1"></use></g><g><use xlink:href="#jpxgtfKQe" opacity="1" fill="#ffffff" fill-opacity="1"></use></g><g><use xlink:href="#b7yQmtjPrU" opacity="1" fill="#ffffff" fill-opacity="1"></use></g><g><use xlink:href="#g2aJ84ihF" opacity="1" fill="#ffffff" fill-opacity="1"></use></g><g><use xlink:href="#a1Gel4opW" opacity="1" fill="#5f77c5" fill-opacity="1"></use></g><g><use xlink:href="#khNZBBaz2" opacity="1" fill="#ffffff" fill-opacity="1"></use></g><g><use xlink:href="#e2QP6Z5BlC" opacity="1" fill="#a83737" fill-opacity="1"></use></g><g><use xlink:href="#e3kifoYcEz" opacity="1" fill="#a83737" fill-opacity="1"></use></g><g><use xlink:href="#aeGUw8Iz5" opacity="1" fill="#319b44" fill-opacity="1"></use></g><g><use xlink:href="#bMGGXmhQZ" opacity="1" fill="#319b44" fill-opacity="1"></use></g><g><use xlink:href="#c3V3qFFqh" opacity="1" fill="#ccecc5" fill-opacity="1"></use></g><g><use xlink:href="#ajm1cnU6s" opacity="1" fill="#319b44" fill-opacity="1"></use></g><g><use xlink:href="#b2ZqkuTf1" opacity="1" fill="#5f77c5" fill-opacity="1"></use></g><g><use xlink:href="#bonRXXHNG" opacity="1" fill="#5f77c5" fill-opacity="1"></use></g><g><use xlink:href="#c1KZmG7zq5" opacity="1" fill="#5f77c5" fill-opacity="1"></use></g><g><use xlink:href="#a1j5hL6F9P" opacity="1" fill="#2e6ce4" fill-opacity="1"></use></g><g><use xlink:href="#b532lwwIa" opacity="1" fill="#2e6ce4" fill-opacity="1"></use></g><g><use xlink:href="#i6MGu2Yxxy" opacity="1" fill="#2e6ce4" fill-opacity="1"></use></g><g><use xlink:href="#c3iQcTb8G" opacity="1" fill="#2e6ce4" fill-opacity="1"></use></g><g><use xlink:href="#b8sGIGqkh" opacity="1" fill="#2e6ce4" fill-opacity="1"></use></g><g><use xlink:href="#c9K4kBv32" opacity="1" fill="#2e6ce4" fill-opacity="1"></use><g><use xlink:href="#c9K4kBv32" opacity="1" fill-opacity="0" stroke="#12070a" stroke-width="2" stroke-opacity="1"></use></g></g><g><use xlink:href="#c3rnjeg6n" opacity="1" fill="#f2e51a" fill-opacity="1"></use></g><g><use xlink:href="#k3ADAGE6Da" opacity="1" fill="#f2e51a" fill-opacity="1"></use></g><g><use xlink:href="#lngmw7HSg" opacity="1" fill="#f2e51a" fill-opacity="1"></use></g><g><use xlink:href="#cv1NDu7sd" opacity="1" fill="#f2e51a" fill-opacity="1"></use></g><g><use xlink:href="#a2PsYOXi4" opacity="1" fill="#ccecc5" fill-opacity="1"></use></g><g><use xlink:href="#g2Hk51kSpS" opacity="1" fill="#f99d03" fill-opacity="1"></use></g><g><use xlink:href="#h1RKYNqHFj" opacity="1" fill="#f99d03" fill-opacity="1"></use></g><g><use xlink:href="#eIVYqvT30" opacity="1" fill="#f99d03" fill-opacity="1"></use></g><g><use xlink:href="#dfTPP5evj" opacity="1" fill="#c59f5f" fill-opacity="1"></use></g><g><use xlink:href="#b19mO9uqrF" opacity="1" fill="#c59f5f" fill-opacity="1"></use></g><g><use xlink:href="#epePuzB" opacity="1" fill="#c60909" fill-opacity="1"></use></g><g><use xlink:href="#fks9AzC3H" opacity="1" fill="#0919ba" fill-opacity="1"></use></g><g><use xlink:href="#a1npai6Et" opacity="1" fill="#195c2e" fill-opacity="1"></use></g><g><use xlink:href="#c10GRZKEsm" opacity="1" fill="#c60909" fill-opacity="1"></use></g><g><use xlink:href="#d1WOZ1I0h" opacity="1" fill="#0919ba" fill-opacity="1"></use></g><g><use xlink:href="#b2JfqE4rJD" opacity="1" fill="#54ba09" fill-opacity="1"></use></g><g><use xlink:href="#a12Ah7wf4O" opacity="1" fill="#54ba09" fill-opacity="1"></use></g><g><use xlink:href="#a2LWnCV9ln" opacity="1" fill="#0919ba" fill-opacity="1"></use></g><g><use xlink:href="#c2xh2rnjmV" opacity="1" fill="#ed1253" fill-opacity="1"></use></g><g><use xlink:href="#f2Hz4ad40j" opacity="1" fill="#f6f221" fill-opacity="1"></use></g></g><g><use xlink:href="#i1xKtAtc1Z" opacity="1" fill="#f99d03" fill-opacity="1"></use></g><g><use xlink:href="#c7HaOAZDMQ" opacity="1" fill="#ccecc5" fill-opacity="1"></use></g><g><use xlink:href="#c1SAt6aOJb" opacity="1" fill="#9d6055" fill-opacity="1"></use></g></g><g><g><g></g></g><g><g><g><use xlink:href="#b6ltzq4jx" opacity="1" fill="#41380d" fill-opacity="1"></use></g><g><use xlink:href="#g19zm70ior" opacity="1" fill="#eae9e2" fill-opacity="1"></use></g><g><use xlink:href="#a2lyNlkvxV" opacity="1" fill="#eae9e4" fill-opacity="1"></use></g><g><use xlink:href="#b1Y1ONdgCt" opacity="1" fill="#eae9e4" fill-opacity="1"></use></g><g><use xlink:href="#i2byvKD0gV" opacity="1" fill="#eae9e4" fill-opacity="1"></use></g><g><use xlink:href="#b2oahWb22A" opacity="1" fill="#eae9e4" fill-opacity="1"></use></g><g><use xlink:href="#b5v7CWNA0Y" opacity="1" fill="#eae9e2" fill-opacity="1"></use></g><g><use xlink:href="#b3TE2WV1Fq" opacity="1" fill="#ffffff" fill-opacity="1"></use></g><g><use xlink:href="#a2CbaJrVii" opacity="1" fill="#ffffff" fill-opacity="1"></use></g><g><use xlink:href="#j3KzQijt1B" opacity="1" fill="#ffffff" fill-opacity="1"></use></g><g><use xlink:href="#b1B6IT8uLA" opacity="1" fill="#ffffff" fill-opacity="1"></use></g><g><use xlink:href="#b4m9YhzsDP" opacity="1" fill="#ffffff" fill-opacity="1"></use></g><g><use xlink:href="#b6Wvcu3YSW" opacity="1" fill="#ffffff" fill-opacity="1"></use></g><g><use xlink:href="#dIeiv5CPJ" opacity="1" fill="#ffffff" fill-opacity="1"></use></g><g><use xlink:href="#c293oYsLBu" opacity="1" fill="#5f77c5" fill-opacity="1"></use></g><g><use xlink:href="#iQsWzXaVJ" opacity="1" fill="#ffffff" fill-opacity="1"></use></g><g><use xlink:href="#b5NkfOtlA3" opacity="1" fill="#a83737" fill-opacity="1"></use></g><g><use xlink:href="#b2iXkoEdrr" opacity="1" fill="#a83737" fill-opacity="1"></use></g><g><use xlink:href="#ad8Q3MCgE" opacity="1" fill="#319b44" fill-opacity="1"></use></g><g><use xlink:href="#gfhScNt3R" opacity="1" fill="#319b44" fill-opacity="1"></use></g><g><use xlink:href="#b3ybYyn1dS" opacity="1" fill="#319b44" fill-opacity="1"></use></g><g><use xlink:href="#ci5Du6Lkp" opacity="1" fill="#ccecc5" fill-opacity="1"></use></g><g><use xlink:href="#a6ZCeEe7I" opacity="1" fill="#ccecc5" fill-opacity="1"></use></g><g><use xlink:href="#a47roYmcGB" opacity="1" fill="#319b44" fill-opacity="1"></use></g><g><use xlink:href="#aWxlUZywi" opacity="1" fill="#5f77c5" fill-opacity="1"></use></g><g><use xlink:href="#gpYk2kHpy" opacity="1" fill="#5f77c5" fill-opacity="1"></use></g><g><use xlink:href="#a3AoxMYFib" opacity="1" fill="#5f77c5" fill-opacity="1"></use></g><g><use xlink:href="#f1CaSNrd8" opacity="1" fill="#2e6ce4" fill-opacity="1"></use></g><g><use xlink:href="#e1aTLdkbb7" opacity="1" fill="#2e6ce4" fill-opacity="1"></use></g><g><use xlink:href="#dOeoYfQSU" opacity="1" fill="#2e6ce4" fill-opacity="1"></use></g><g><use xlink:href="#cYDTHFc7r" opacity="1" fill="#2e6ce4" fill-opacity="1"></use></g><g><use xlink:href="#a1wKpCXPFI" opacity="1" fill="#2e6ce4" fill-opacity="1"></use></g><g><use xlink:href="#k7chqeg6vx" opacity="1" fill="#2e6ce4" fill-opacity="1"></use><g><use xlink:href="#k7chqeg6vx" opacity="1" fill-opacity="0" stroke="#12070a" stroke-width="2" stroke-opacity="1"></use></g></g><g><use xlink:href="#e3NmrHepeV" opacity="1" fill="#f2e51a" fill-opacity="1"></use></g><g><use xlink:href="#b2DYpmI9vl" opacity="1" fill="#f2e51a" fill-opacity="1"></use></g><g><use xlink:href="#d3Nf8Ybsn" opacity="1" fill="#f2e51a" fill-opacity="1"></use></g><g><use xlink:href="#b4qhxGygt" opacity="1" fill="#f2e51a" fill-opacity="1"></use></g><g><use xlink:href="#aMq4eVxdf" opacity="1" fill="#ccecc5" fill-opacity="1"></use></g><g><use xlink:href="#eqT6cjCKw" opacity="1" fill="#f99d03" fill-opacity="1"></use></g><g><use xlink:href="#a31sVvIGE" opacity="1" fill="#f99d03" fill-opacity="1"></use></g><g><use xlink:href="#b1uScOWY1u" opacity="1" fill="#f99d03" fill-opacity="1"></use></g><g><use xlink:href="#c2P3yGgavQ" opacity="1" fill="#c59f5f" fill-opacity="1"></use></g><g><use xlink:href="#bfteyZExy" opacity="1" fill="#c59f5f" fill-opacity="1"></use></g><g><use xlink:href="#e2YX6bZI7k" opacity="1" fill="#c60909" fill-opacity="1"></use></g><g><use xlink:href="#aNNUy8MYO" opacity="1" fill="#0919ba" fill-opacity="1"></use></g><g><use xlink:href="#jjOoK9fD5" opacity="1" fill="#195c2e" fill-opacity="1"></use></g><g><use xlink:href="#dg0XMBhOM" opacity="1" fill="#c60909" fill-opacity="1"></use></g><g><use xlink:href="#b4MQfzqUut" opacity="1" fill="#0919ba" fill-opacity="1"></use></g><g><use xlink:href="#a2H7MKW2iQ" opacity="1" fill="#54ba09" fill-opacity="1"></use></g><g><use xlink:href="#fUbppvu5m" opacity="1" fill="#54ba09" fill-opacity="1"></use></g><g><use xlink:href="#a6WlNT2xu" opacity="1" fill="#0919ba" fill-opacity="1"></use></g><g><use xlink:href="#hR9Rxdisj" opacity="1" fill="#ed1253" fill-opacity="1"></use></g><g><use xlink:href="#b1Lx2QBwQF" opacity="1" fill="#f6f221" fill-opacity="1"></use></g></g><g><use xlink:href="#o3L239IbwX" opacity="1" fill="#f99d03" fill-opacity="1"></use></g></g><g><use xlink:href="#krFo8uebG" opacity="1" fill="#f99d03" fill-opacity="1"></use></g><g><use xlink:href="#a1skpQL6VQ" opacity="1" fill="#eae9e2" fill-opacity="1"></use></g><g><use xlink:href="#b83LdYP7x" opacity="1" fill="#ed1253" fill-opacity="1"></use></g><g><use xlink:href="#aPSxWVNTE" opacity="1" fill="#319b44" fill-opacity="1"></use></g><g><use xlink:href="#h2ws1lJ3DR" opacity="1" fill="#c59f5f" fill-opacity="1"></use></g><g><use xlink:href="#c2kFAptbWR" opacity="1" fill="#54ba09" fill-opacity="1"></use></g><g><g><use xlink:href="#apKBYZECq" opacity="1" fill="#41380d" fill-opacity="1"></use></g><g><use xlink:href="#b8uQQegiq" opacity="1" fill="#eae9e2" fill-opacity="1"></use></g><g><use xlink:href="#b19ISvLaiK" opacity="1" fill="#eae9e4" fill-opacity="1"></use></g><g><use xlink:href="#a2Blu3tIlN" opacity="1" fill="#eae9e4" fill-opacity="1"></use></g><g><use xlink:href="#b5ToiKnUxG" opacity="1" fill="#eae9e4" fill-opacity="1"></use></g><g><use xlink:href="#b14PntxQtb" opacity="1" fill="#eae9e4" fill-opacity="1"></use></g><g><use xlink:href="#e7NbOgQXHV" opacity="1" fill="#eae9e2" fill-opacity="1"></use></g><g><use xlink:href="#b470HEyIV0" opacity="1" fill="#ffffff" fill-opacity="1"></use></g><g><use xlink:href="#jMZAfhuOw" opacity="1" fill="#ffffff" fill-opacity="1"></use></g><g><use xlink:href="#g21cSe0E8X" opacity="1" fill="#ffffff" fill-opacity="1"></use></g><g><use xlink:href="#fdceg3Nve" opacity="1" fill="#319b44" fill-opacity="1"></use></g><g><use xlink:href="#e7TVc5iwQ" opacity="1" fill="#ffffff" fill-opacity="1"></use></g><g><use xlink:href="#ezIPaqpnS" opacity="1" fill="#ffffff" fill-opacity="1"></use></g><g><use xlink:href="#bleMmJ4Jg" opacity="1" fill="#ffffff" fill-opacity="1"></use></g><g><use xlink:href="#aslFNTivH" opacity="1" fill="#ffffff" fill-opacity="1"></use></g><g><use xlink:href="#d6Q5FZmM6I" opacity="1" fill="#5f77c5" fill-opacity="1"></use></g><g><use xlink:href="#cCyDO21L1" opacity="1" fill="#ffffff" fill-opacity="1"></use></g><g><use xlink:href="#b17YQ8jr2Q" opacity="1" fill="#a83737" fill-opacity="1"></use></g><g><use xlink:href="#b8wbgH3Srv" opacity="1" fill="#a83737" fill-opacity="1"></use></g><g><use xlink:href="#gYhVXA2Br" opacity="1" fill="#319b44" fill-opacity="1"></use></g><g><use xlink:href="#bSb18vuqe" opacity="1" fill="#319b44" fill-opacity="1"></use></g><g><use xlink:href="#bxczv2bei" opacity="1" fill="#ccecc5" fill-opacity="1"></use></g><g><use xlink:href="#a9rlcDS8n" opacity="1" fill="#319b44" fill-opacity="1"></use></g><g><use xlink:href="#a1KHoeDkkm" opacity="1" fill="#5f77c5" fill-opacity="1"></use></g><g><use xlink:href="#a2LSG88pO2" opacity="1" fill="#5f77c5" fill-opacity="1"></use></g><g><use xlink:href="#aIUTQrtjb" opacity="1" fill="#5f77c5" fill-opacity="1"></use></g><g><use xlink:href="#a5bvTWXAe" opacity="1" fill="#2e6ce4" fill-opacity="1"></use></g><g><use xlink:href="#d3QsipXx6K" opacity="1" fill="#2e6ce4" fill-opacity="1"></use></g><g><use xlink:href="#c1EvDzjKeI" opacity="1" fill="#2e6ce4" fill-opacity="1"></use></g><g><use xlink:href="#f1aDctHVAV" opacity="1" fill="#2e6ce4" fill-opacity="1"></use></g><g><use xlink:href="#b2nFOYbrnz" opacity="1" fill="#2e6ce4" fill-opacity="1"></use></g><g><use xlink:href="#gKMHhrfO2" opacity="1" fill="#2e6ce4" fill-opacity="1"></use><g><use xlink:href="#gKMHhrfO2" opacity="1" fill-opacity="0" stroke="#12070a" stroke-width="2" stroke-opacity="1"></use></g></g><g><use xlink:href="#clYGgOI4m" opacity="1" fill="#f2e51a" fill-opacity="1"></use></g><g><use xlink:href="#o5iQWN3G0J" opacity="1" fill="#f2e51a" fill-opacity="1"></use></g><g><use xlink:href="#l22FCoFvHZ" opacity="1" fill="#f2e51a" fill-opacity="1"></use></g><g><use xlink:href="#a2hhhmhg2r" opacity="1" fill="#f2e51a" fill-opacity="1"></use></g><g><use xlink:href="#bmoTiKTJP" opacity="1" fill="#ccecc5" fill-opacity="1"></use></g><g><use xlink:href="#bvBppkIa9" opacity="1" fill="#f99d03" fill-opacity="1"></use></g><g><use xlink:href="#aJ1ps8R0l" opacity="1" fill="#f99d03" fill-opacity="1"></use></g><g><use xlink:href="#d4snLhHJqV" opacity="1" fill="#f99d03" fill-opacity="1"></use></g><g><use xlink:href="#cwJ1FYBwq" opacity="1" fill="#c59f5f" fill-opacity="1"></use></g><g><use xlink:href="#kIqk6dpkA" opacity="1" fill="#c59f5f" fill-opacity="1"></use></g><g><use xlink:href="#a49aLvCV7J" opacity="1" fill="#c60909" fill-opacity="1"></use></g><g><use xlink:href="#dwT7krrQk" opacity="1" fill="#0919ba" fill-opacity="1"></use></g><g><use xlink:href="#bwEuWojXP" opacity="1" fill="#195c2e" fill-opacity="1"></use></g><g><use xlink:href="#d27qrMR54d" opacity="1" fill="#c60909" fill-opacity="1"></use></g><g><use xlink:href="#b2v5ivmUc" opacity="1" fill="#0919ba" fill-opacity="1"></use></g><g><use xlink:href="#bjyPXDctI" opacity="1" fill="#54ba09" fill-opacity="1"></use></g><g><use xlink:href="#a3oaWQ9XXI" opacity="1" fill="#54ba09" fill-opacity="1"></use></g><g><use xlink:href="#f4UGvEPIf" opacity="1" fill="#0919ba" fill-opacity="1"></use></g><g><use xlink:href="#b3Y8RTgxCh" opacity="1" fill="#ed1253" fill-opacity="1"></use></g><g><use xlink:href="#a6SqjCvba" opacity="1" fill="#f6f221" fill-opacity="1"></use></g></g><g><use xlink:href="#d1gtLaKyTn" opacity="1" fill="#f99d03" fill-opacity="1"></use></g><g><use xlink:href="#c3wronRo1x" opacity="1" fill="#ccecc5" fill-opacity="1"></use></g><g><use xlink:href="#ao0p5YzDs" opacity="1" fill="#9d6055" fill-opacity="1"></use></g></g><g><use xlink:href="#f6L10qDvB" opacity="1" fill="#ffffff" fill-opacity="1"></use></g></g></g></svg>