<?xml version="1.0" encoding="UTF-8" standalone="no"?>
<!DOCTYPE svg PUBLIC "-//W3C//DTD SVG 1.1//EN" "http://www.w3.org/Graphics/SVG/1.1/DTD/svg11.dtd">
<svg version="1.1" xmlns="http://www.w3.org/2000/svg" xmlns:xlink="http://www.w3.org/1999/xlink" preserveAspectRatio="xMidYMid meet" viewBox="0 0 1500 499" width="1500" height="499"><defs><path d="M0 0L1500 0L1500 499L0 499L0 0Z" id="a1e59F0ej"></path><path d="M1288.05 52.02C1304.69 52.02 1318.19 60.65 1318.19 71.29C1318.19 71.69 1318.17 72.09 1318.13 72.48C1330.15 74.1 1338.99 79.52 1338.99 85.96C1338.99 85.96 1338.99 85.96 1338.99 85.96C1338.99 93.68 1326.3 99.93 1310.64 99.93C1303.53 99.93 1246.64 99.93 1239.52 99.93C1223.87 99.93 1211.17 93.68 1211.17 85.96C1211.17 85.96 1211.17 85.96 1211.17 85.96C1211.17 79.23 1220.82 73.62 1233.67 72.29C1234.82 65 1244.45 59.31 1256.16 59.31C1258.73 59.31 1261.2 59.58 1263.51 60.09C1268.98 55.2 1277.93 52.02 1288.05 52.02Z" id="e2s5g64T55"></path><path d="M206.76 93.15C215.93 93.15 223.37 98.35 223.37 104.75C223.37 104.99 223.36 105.24 223.34 105.47C229.96 106.45 234.84 109.71 234.84 113.59C234.84 113.59 234.84 113.59 234.84 113.59C234.84 118.23 227.84 122 219.21 122C215.29 122 183.93 122 180.01 122C171.39 122 164.39 118.23 164.39 113.59C164.39 113.59 164.39 113.59 164.39 113.59C164.39 109.54 169.71 106.16 176.79 105.36C177.42 100.96 182.73 97.54 189.18 97.54C190.6 97.54 191.96 97.7 193.23 98.01C196.25 95.07 201.18 93.15 206.76 93.15Z" id="dnXIuRsNU"></path><path d="M965.84 150.8C965.84 221.83 904.03 279.5 827.88 279.5C751.74 279.5 689.92 221.83 689.92 150.8C689.92 79.76 751.74 22.09 827.88 22.09C904.03 22.09 965.84 79.76 965.84 150.8Z" id="c19StCagmk"></path><path d="M1122.33 229.26C1122.33 304.38 1052.21 365.37 965.84 365.37C879.48 365.37 809.36 304.38 809.36 229.26C809.36 154.14 879.48 93.15 965.84 93.15C1052.21 93.15 1122.33 154.14 1122.33 229.26Z" id="b2owliomtj"></path><path d="M851.67 214.74C851.67 289.86 781.55 350.85 695.19 350.85C608.82 350.85 538.7 289.86 538.7 214.74C538.7 139.62 608.82 78.63 695.19 78.63C781.55 78.63 851.67 139.62 851.67 214.74Z" id="g23IHuR8hP"></path><path d="M504.7 249.5L1257.48 249.5L1257.48 399.5L504.7 399.5L504.7 249.5Z" id="b1Ch1HllKl"></path><path d="M600.74 162.83C600.74 162.83 599.56 162.83 598.11 162.83C596.65 162.83 595.47 162.83 595.47 162.83C595.47 162.83 596.65 162.83 598.11 162.83C599.56 162.83 600.21 162.83 600.74 162.83Z" id="b1y7TlZXXq"></path><path d="M637.66 150.06C637.66 148.2 633.03 146.69 627.33 146.69C621.63 146.69 617 148.2 617 150.06C617 151.92 621.63 153.43 627.33 153.43C633.03 153.43 637.66 151.92 637.66 150.06Z" id="bjn3av1Uh"></path><path d="M634.2 105.5L642.99 132.37L625.4 132.37L607.81 132.37L616.6 105.5L625.4 78.63L634.2 105.5Z" id="eitqtleo6"></path><path d="M626.95 149L626.95 106.78" id="c1gVTRzzG"></path><path d="M632.82 111.26L626.95 121.49" id="gEJqTEwVK"></path><path d="M617.74 118.83L626.95 130.35" id="ae42Fcl1g"></path><path d="" id="f2dZZWWRY1"></path><path d="M0 245.72L1500 245.72L1500 503.13L0 503.13L0 245.72Z" id="d241umf13N"></path><path d="M1032.09 126.72C1032.09 124.6 1027.47 122.88 1021.76 122.88C1016.06 122.88 1011.43 124.6 1011.43 126.72C1011.43 128.83 1016.06 130.55 1021.76 130.55C1027.47 130.55 1032.09 128.83 1032.09 126.72Z" id="fw9sbKTbI"></path><path d="M1028.63 71.25L1037.43 106.48L1019.84 106.48L1002.25 106.48L1011.04 71.25L1019.84 36.02L1028.63 71.25Z" id="f2yGQUs2ls"></path><path d="M1021.39 125.43L1021.39 77.34" id="aCcxiRe8Z"></path><path d="M1027.26 82.44L1021.39 94.1" id="jARyfvF5"></path><path d="M1012.18 91.07L1021.39 104.18" id="a4i8cVOPP"></path><path d="" id="caDgsUWbZ"></path><path d="M974.66 133.68C974.66 132.25 971.24 131.09 967.04 131.09C962.84 131.09 959.43 132.25 959.43 133.68C959.43 135.11 962.84 136.28 967.04 136.28C971.24 136.28 974.66 135.11 974.66 133.68Z" id="e9RpFpmdO"></path><path d="M972.33 99.34L978.81 120.05L965.84 120.05L952.88 120.05L959.36 99.34L965.84 78.63L972.33 99.34Z" id="c8wS5IbBJM"></path><path d="M966.99 132.86L966.99 100.32" id="e2smDzFP8b"></path><path d="M971.31 103.77L966.99 111.66" id="iGFfgWK2V"></path><path d="M960.2 109.62L966.99 118.49" id="aEoYrQj6r"></path><path d="" id="a7dFfI3z2"></path><path d="M998.09 164.87C998.09 163.44 994.68 162.27 990.48 162.27C986.28 162.27 982.87 163.44 982.87 164.87C982.87 166.3 986.28 167.46 990.48 167.46C994.68 167.46 998.09 166.3 998.09 164.87Z" id="b3OXmgduz"></path><path d="M995.76 130.52L1002.25 151.23L989.28 151.23L976.32 151.23L982.8 130.52L989.28 109.82L995.76 130.52Z" id="c3RYGJ3Ny"></path><path d="M990.42 164.05L990.42 131.51" id="d9fN3kPQ7"></path><path d="M994.75 134.96L990.42 142.85" id="d3Iendboj6"></path><path d="M983.64 140.8L990.42 149.68" id="a4AYXltnUR"></path><path d="" id="c1jLwzVM43"></path><path d="M570.14 31.35C582.45 31.35 592.43 39.02 592.43 48.49C592.43 48.84 592.41 49.2 592.38 49.55C601.27 50.99 607.81 55.81 607.81 61.53C607.81 61.53 607.81 61.53 607.81 61.53C607.81 68.39 598.42 73.96 586.85 73.96C581.59 73.96 539.52 73.96 534.26 73.96C522.69 73.96 513.3 68.39 513.3 61.53C513.3 61.53 513.3 61.53 513.3 61.53C513.3 55.55 520.43 50.56 529.93 49.38C530.78 42.89 537.9 37.83 546.56 37.83C548.47 37.83 550.29 38.08 552 38.53C556.04 34.18 562.66 31.35 570.14 31.35Z" id="ccjQzhPq2"></path><path d="M703.47 183.36C703.47 180.75 698.11 178.64 691.51 178.64C684.91 178.64 679.55 180.75 679.55 183.36C679.55 185.96 684.91 188.07 691.51 188.07C698.11 188.07 703.47 185.96 703.47 183.36Z" id="ayWubh35U"></path><path d="M699.81 120.93L709.99 158.57L689.63 158.57L669.26 158.57L679.44 120.93L689.63 83.29L699.81 120.93Z" id="a15kuaKGe9"></path><path d="M691.42 181.87L691.42 122.72" id="a1RioEjdVA"></path><path d="M698.22 128.99L691.42 143.33" id="d3JL18yiir"></path><path d="M680.76 139.61L691.42 155.74" id="diBBee7qJ"></path><path d="" id="d215wFohJq"></path><path d="M403.5 365.37L472.99 365.37L472.99 402.44L403.5 402.44L403.5 365.37Z" id="b4YrrhGTnT"></path><path d="M464.47 364.89L558.81 364.89L558.81 494.62L464.47 494.62L464.47 364.89Z" id="b2bBvvNDer"></path><path d="M464.2 401.06L559.47 401.06L559.47 409.74L464.2 409.74L464.2 401.06Z" id="g3W9EqQMaV"></path><path d="M484.88 382.97L491.78 364.89L477.99 364.89L464.2 364.89L471.09 382.97L477.99 401.06L484.88 382.97Z" id="d2dJ3BrJtn"></path><path d="M512.19 382.97L519.09 364.89L505.3 364.89L491.51 364.89L498.4 382.97L505.3 401.06L512.19 382.97Z" id="b2hl1gHvBw"></path><path d="M539.42 382.97L546.32 364.89L532.52 364.89L518.73 364.89L525.63 382.97L532.52 401.06L539.42 382.97Z" id="aLwHLAXKp"></path><path d="M565.71 382.97L572.6 364.89L558.81 364.89L545.02 364.89L551.91 382.97L558.81 401.06L565.71 382.97Z" id="a3oJgBImee"></path><path d="M464 440.14L559.27 440.14L559.27 448.82L464 448.82L464 440.14Z" id="k8efkvGHUD"></path><path d="M471.36 475.53L464.47 494.62L478.26 494.62L492.05 494.62L485.15 475.53L478.26 456.44L471.36 475.53Z" id="ggri9KO6A"></path><path d="M498.95 475.53L492.05 494.62L505.84 494.62L519.63 494.62L512.74 475.53L505.84 456.44L498.95 475.53Z" id="aTLYDgQrZ"></path><path d="M525.99 475.53L519.09 494.62L532.88 494.62L546.67 494.62L539.78 475.53L532.88 456.44L525.99 475.53Z" id="a4Jutcv1Ty"></path><path d="M551.91 475.53L545.02 494.62L558.81 494.62L572.6 494.62L565.71 475.53L558.81 456.44L551.91 475.53Z" id="a5glnQx9km"></path><path d="M478.26 409.74L482.39 409.74L482.39 441.72L478.26 441.72L478.26 409.74Z" id="b2wquOUEdj"></path><path d="M538.21 409.74L542.35 409.74L542.35 441.72L538.21 441.72L538.21 409.74Z" id="c2jajSmCJ6"></path><path d="M550.88 433.43L559.27 441.27L559.16 425.28L559.06 409.29L550.77 417.44L542.48 425.59L550.88 433.43Z" id="az64NxMNX"></path><path d="M553.63 479L548.46 494.08L558.81 494.08L569.16 494.08L563.99 479L558.81 463.92L553.63 479Z" id="g5Q74Cf2VM"></path><path d="M471.63 417.43L464.31 409.29L464.2 425.28L464.08 441.27L471.51 433.42L478.95 425.57L471.63 417.43Z" id="boTq53c80"></path><path d="M552.35 429.94L557.79 434.67L557.72 425.02L557.66 415.37L552.29 420.29L546.91 425.22L552.35 429.94Z" id="f31Q10tBNo"></path><path d="M470.09 420.42L464.77 415.37L464.62 425.02L464.47 434.66L469.94 430.07L475.42 425.48L470.09 420.42Z" id="b6eH47YHLg"></path><path d="M537.7 378.99L542.87 364.89L532.52 364.89L522.17 364.89L527.35 378.99L532.52 393.09L537.7 378.99Z" id="a5qomVl2E"></path><path d="M510.47 380.16L515.65 366.05L505.3 366.05L494.95 366.05L500.12 380.16L505.3 394.26L510.47 380.16Z" id="bbJzOt1E9"></path><path d="M563.99 378.99L569.16 364.89L558.81 364.89L548.46 364.89L553.63 378.99L558.81 393.09L563.99 378.99Z" id="h1M5Rq4m7E"></path><path d="M560.55 458.04L586.48 458.04L586.48 494.59L560.55 494.59L560.55 458.04Z" id="bYnAgGglJ"></path><path d="M558.81 364.89L572.18 364.89L572.18 401.06L558.81 401.06L558.81 364.89Z" id="b1E53wOtry"></path><path d="M483.16 380.16L488.34 366.05L477.99 366.05L467.64 366.05L472.81 380.16L477.99 394.26L483.16 380.16Z" id="h6scC9pbyC"></path><path d="M527.71 479L522.53 494.08L532.88 494.08L543.23 494.08L538.06 479L532.88 463.92L527.71 479Z" id="bKxkwa2fm"></path><path d="M500.67 479L495.49 494.08L505.84 494.08L516.19 494.08L511.02 479L505.84 463.92L500.67 479Z" id="a78ZI7Qdi"></path><path d="M472.81 479.16L467.64 494.24L477.99 494.24L488.34 494.24L483.16 479.16L477.99 464.08L472.81 479.16Z" id="cf35TjyEz"></path><path d="M505.3 412.02L514.28 412.02L514.28 436.69L505.3 436.69L505.3 412.02Z" id="b6rxcQrWH"></path><path d="M511.83 420.02L519.63 420.02L519.63 431.44L511.83 431.44L511.83 420.02Z" id="aj05HL2Dd"></path><path d="M499.33 419.57L507.13 419.57L507.13 430.99L499.33 430.99L499.33 419.57Z" id="a2dPV61C4F"></path><path d="M519.63 422.67L527.44 422.67L527.44 429.75L519.63 429.75L519.63 422.67Z" id="ahfKJr0C7"></path><path d="M492.05 422.13L499.85 422.13L499.85 429.21L492.05 429.21L492.05 422.13Z" id="aiFlHAnpa"></path><path d="M511.93 425.02C511.93 426.97 511 428.56 509.86 428.56C508.72 428.56 507.79 426.97 507.79 425.02C507.79 423.06 508.72 421.48 509.86 421.48C511 421.48 511.93 423.06 511.93 425.02Z" id="c3HDm9BCXn"></path><path d="M498.44 466.44L504.79 448.82L492.09 448.82L479.4 448.82L485.75 466.44L492.09 484.06L498.44 466.44Z" id="ajy82esVf"></path><path d="M525.98 465.53L532.33 448.82L519.63 448.82L506.94 448.82L513.29 465.53L519.63 482.23L525.98 465.53Z" id="beCprT392"></path><path d="M552.32 466.44L558.67 448.82L545.98 448.82L533.28 448.82L539.63 466.44L545.98 484.06L552.32 466.44Z" id="b8tKrBor"></path><path d="M471.05 466.44L477.39 448.82L464.7 448.82L452 448.82L458.35 466.44L464.7 484.06L471.05 466.44Z" id="d6BetrGyL"></path><path d="M450.71 445.99L464.08 445.99L464.08 486.65L450.71 486.65L450.71 445.99Z" id="dbYjYiQsf"></path><path d="M486.6 386.96L481.43 401.06L491.78 401.06L502.13 401.06L496.96 386.96L491.78 372.85L486.6 386.96Z" id="c2Zhw7qtMd"></path><path d="M513.61 386.96L508.43 401.06L518.78 401.06L529.13 401.06L523.96 386.96L518.78 372.85L513.61 386.96Z" id="h1Hafr2bYX"></path><path d="M540.83 387.5L535.65 401.6L546 401.6L556.35 401.6L551.18 387.5L546 373.4L540.83 387.5Z" id="bhGKo3Lw0"></path><path d="M487.64 403.8L492.05 403.8L492.05 407L487.64 407L487.64 403.8Z" id="aqqywBaNh"></path><path d="M472.98 403.8L477.39 403.8L477.39 407L472.98 407L472.98 403.8Z" id="jbpX25XQ"></path><path d="M472.49 442.34L476.91 442.34L476.91 445.54L472.49 445.54L472.49 442.34Z" id="c1iN3snWYo"></path><path d="M488.07 442.8L492.48 442.8L492.48 446L488.07 446L488.07 442.8Z" id="aK7YdwRHh"></path><path d="M503.38 442.34L507.79 442.34L507.79 445.54L503.38 445.54L503.38 442.34Z" id="a4ZaVB7R8s"></path><path d="M518.73 442.8L523.14 442.8L523.14 446L518.73 446L518.73 442.8Z" id="glCn6mqLg"></path><path d="M535.12 442.8L539.53 442.8L539.53 445.99L535.12 445.99L535.12 442.8Z" id="a32TjC9Dr1"></path><path d="M550.88 442.34L555.29 442.34L555.29 445.54L550.88 445.54L550.88 442.34Z" id="j1lpS8w1g8"></path><path d="M503.38 403.8L507.79 403.8L507.79 407L503.38 407L503.38 403.8Z" id="b1Oxh6yiYs"></path><path d="M518.73 403.8L523.14 403.8L523.14 407L518.73 407L518.73 403.8Z" id="e2aJD8fFCP"></path><path d="M535.12 403.8L539.53 403.8L539.53 407L535.12 407L535.12 403.8Z" id="c33hEkBZ8p"></path><path d="M550.05 403.8L554.46 403.8L554.46 407L550.05 407L550.05 403.8Z" id="cwhJ4xUhY"></path><path d="M457.24 383.22L450.34 401.31L464.14 401.31L477.93 401.31L471.03 383.22L464.14 365.13L457.24 383.22Z" id="a2YradExjG"></path><path d="M416.39 385.14L408.52 401.94L424.27 401.94L440.01 401.94L432.14 385.14L424.27 368.34L416.39 385.14Z" id="cacFR1alu"></path><path d="M390.29 402.14L467.37 402.14L467.37 409.22L390.29 409.22L390.29 402.14Z" id="b1g176kDIl"></path><path d="M402.9 404.12L407.31 404.12L407.31 407.32L402.9 407.32L402.9 404.12Z" id="cbRvbtj6k"></path><path d="M452.13 383.61L460 365.07L444.26 365.07L428.52 365.07L436.39 383.61L444.26 402.14L452.13 383.61Z" id="agMa8uLpj"></path><path d="M425.68 404.12L430.09 404.12L430.09 407.32L425.68 407.32L425.68 404.12Z" id="aVCvGr03i"></path><path d="M450.63 404.12L455.04 404.12L455.04 407.32L450.63 407.32L450.63 404.12Z" id="aWwMM1u1l"></path><path d="M310.82 366.56L405.17 366.56L405.17 496.3L310.82 496.3L310.82 366.56Z" id="aKYI0t3o1"></path><path d="M310.55 402.74L405.82 402.74L405.82 411.42L310.55 411.42L310.55 402.74Z" id="bZcffUJMD"></path><path d="M331.24 384.65L338.14 366.56L324.34 366.56L310.55 366.56L317.45 384.65L324.34 402.74L331.24 384.65Z" id="b4MaVLXW5I"></path><path d="M358.55 384.65L365.45 366.56L351.65 366.56L337.86 366.56L344.76 384.65L351.65 402.74L358.55 384.65Z" id="c9zfheVHo1"></path><path d="M385.78 384.65L392.67 366.56L378.88 366.56L365.09 366.56L371.98 384.65L378.88 402.74L385.78 384.65Z" id="c6vXshUX2q"></path><path d="M412.06 384.65L418.96 366.56L405.17 366.56L391.37 366.56L398.27 384.65L405.17 402.74L412.06 384.65Z" id="a1UKzvXYcg"></path><path d="M310.36 441.82L405.63 441.82L405.63 450.5L310.36 450.5L310.36 441.82Z" id="bk1m4ZpnG"></path><path d="M317.72 477.21L310.82 496.3L324.61 496.3L338.41 496.3L331.51 477.21L324.61 458.11L317.72 477.21Z" id="a3ovo7xE4"></path><path d="M345.3 477.21L338.41 496.3L352.2 496.3L365.99 496.3L359.1 477.21L352.2 458.11L345.3 477.21Z" id="d5n38IYCwP"></path><path d="M372.34 477.21L365.45 496.3L379.24 496.3L393.03 496.3L386.14 477.21L379.24 458.11L372.34 477.21Z" id="b1QkXEG7me"></path><path d="M413.06 381.34L418.83 366.92L407.29 366.92L395.75 366.92L401.52 381.34L407.29 395.77L413.06 381.34Z" id="bbrZNiVsbI"></path><path d="M398.27 477.21L391.37 496.3L405.17 496.3L418.96 496.3L412.06 477.21L405.17 458.11L398.27 477.21Z" id="d1gPrHzh7V"></path><path d="M324.61 411.42L328.75 411.42L328.75 443.39L324.61 443.39L324.61 411.42Z" id="a1ZtLxQlt8"></path><path d="M384.57 411.42L388.71 411.42L388.71 443.39L384.57 443.39L384.57 411.42Z" id="b5wCoCmyRO"></path><path d="M397.24 435.1L405.63 442.94L405.52 426.95L405.41 410.97L397.13 419.11L388.84 427.26L397.24 435.1Z" id="aqGuudWgW"></path><path d="M399.99 480.67L394.82 495.75L405.17 495.75L415.52 495.75L410.34 480.67L405.17 465.59L399.99 480.67Z" id="e5Gh1LvRve"></path><path d="M317.99 419.11L310.67 410.97L310.56 426.95L310.44 442.94L317.87 435.09L325.3 427.25L317.99 419.11Z" id="i15SeCmzBb"></path><path d="M398.71 431.62L404.15 436.34L404.08 426.69L404.01 417.04L398.64 421.97L393.27 426.89L398.71 431.62Z" id="aaXl2PApq"></path><path d="M316.45 422.1L311.12 417.04L310.97 426.69L310.82 436.34L316.3 431.75L321.78 427.15L316.45 422.1Z" id="bf1Ezgiy9"></path><path d="M384.06 380.66L389.23 366.56L378.88 366.56L368.53 366.56L373.7 380.66L378.88 394.77L384.06 380.66Z" id="a1oJPBR5Fl"></path><path d="M356.83 381.83L362.01 367.73L351.65 367.73L341.3 367.73L346.48 381.83L351.65 395.94L356.83 381.83Z" id="d11Sz7hN7a"></path><path d="M405.17 455.75L431.09 455.75L431.09 498.35L405.17 498.35L405.17 455.75Z" id="m2Dr6eWky2"></path><path d="M329.52 381.83L334.7 367.73L324.34 367.73L313.99 367.73L319.17 381.83L324.34 395.94L329.52 381.83Z" id="d9WujkUkEs"></path><path d="M374.06 480.67L368.89 495.75L379.24 495.75L389.59 495.75L384.41 480.67L379.24 465.59L374.06 480.67Z" id="baoBQ7EF63"></path><path d="M347.02 480.67L341.85 495.75L352.2 495.75L362.55 495.75L357.37 480.67L352.2 465.59L347.02 480.67Z" id="aPoKThGTV"></path><path d="M319.17 480.84L313.99 495.92L324.35 495.92L334.7 495.92L329.52 480.84L324.35 465.76L319.17 480.84Z" id="a1IU3xyZD"></path><path d="M351.65 413.7L360.64 413.7L360.64 438.37L351.65 438.37L351.65 413.7Z" id="b1YFzybF9T"></path><path d="M358.19 421.69L365.99 421.69L365.99 433.11L358.19 433.11L358.19 421.69Z" id="dfFOCnDGi"></path><path d="M345.69 421.24L353.49 421.24L353.49 432.66L345.69 432.66L345.69 421.24Z" id="h192KXa7Iy"></path><path d="M365.99 424.35L373.79 424.35L373.79 431.43L365.99 431.43L365.99 424.35Z" id="cvMWVnkl2"></path><path d="M338.41 423.81L346.21 423.81L346.21 430.89L338.41 430.89L338.41 423.81Z" id="aBKg7uMe"></path><path d="M358.28 426.69C358.28 428.65 357.36 430.23 356.22 430.23C355.07 430.23 354.15 428.65 354.15 426.69C354.15 424.74 355.07 423.15 356.22 423.15C357.36 423.15 358.28 424.74 358.28 426.69Z" id="b1MElqV0AI"></path><path d="M344.8 468.12L351.15 450.5L338.45 450.5L325.76 450.5L332.1 468.12L338.45 485.73L344.8 468.12Z" id="ac5yCifk2"></path><path d="M372.34 467.2L378.69 450.5L365.99 450.5L353.3 450.5L359.64 467.2L365.99 483.91L372.34 467.2Z" id="bhE8VeY0v"></path><path d="M398.68 468.12L405.03 450.5L392.33 450.5L379.64 450.5L385.99 468.12L392.33 485.73L398.68 468.12Z" id="a3ubK5xuAa"></path><path d="M317.4 468.12L323.75 450.5L311.06 450.5L298.36 450.5L304.71 468.12L311.06 485.73L317.4 468.12Z" id="a5u20cLKlB"></path><path d="M297.07 450.67L310.44 450.67L310.44 491.33L297.07 491.33L297.07 450.67Z" id="dBnct68aN"></path><path d="M332.96 388.63L327.79 402.74L338.14 402.74L348.49 402.74L343.31 388.63L338.14 374.53L332.96 388.63Z" id="b4UVV2a5Iw"></path><path d="M359.96 388.63L354.79 402.74L365.14 402.74L375.49 402.74L370.31 388.63L365.14 374.53L359.96 388.63Z" id="b9F8F8qUJ"></path><path d="M387.18 389.18L382.01 403.28L392.36 403.28L402.71 403.28L397.54 389.18L392.36 375.07L387.18 389.18Z" id="deWeW0huh"></path><path d="M333.99 405.48L338.41 405.48L338.41 408.67L333.99 408.67L333.99 405.48Z" id="aH8fUUUzs"></path><path d="M319.34 405.48L323.75 405.48L323.75 408.67L319.34 408.67L319.34 405.48Z" id="d45S6YFVxp"></path><path d="M318.85 444.02L323.26 444.02L323.26 447.21L318.85 447.21L318.85 444.02Z" id="dbMaiFh0J"></path><path d="M334.42 444.48L338.84 444.48L338.84 447.68L334.42 447.68L334.42 444.48Z" id="cgQgjAU05"></path><path d="M349.73 444.02L354.15 444.02L354.15 447.21L349.73 447.21L349.73 444.02Z" id="a2NFT41fE"></path><path d="M365.09 444.48L369.5 444.48L369.5 447.68L365.09 447.68L365.09 444.48Z" id="c6DkOI9vu"></path><path d="M381.47 444.47L385.89 444.47L385.89 447.67L381.47 447.67L381.47 444.47Z" id="g1G8DPjlrT"></path><path d="M397.24 444.02L401.65 444.02L401.65 447.21L397.24 447.21L397.24 444.02Z" id="b2uTBgKT7W"></path><path d="M349.73 405.48L354.15 405.48L354.15 408.67L349.73 408.67L349.73 405.48Z" id="b31MiP6Q4L"></path><path d="M365.09 405.48L369.5 405.48L369.5 408.67L365.09 408.67L365.09 405.48Z" id="aidIGELlv"></path><path d="M381.47 405.48L385.89 405.48L385.89 408.67L381.47 408.67L381.47 405.48Z" id="du6yltOOV"></path><path d="M396.41 405.48L400.82 405.48L400.82 408.67L396.41 408.67L396.41 405.48Z" id="h12IqcnYYZ"></path><path d="M303.6 384.89L296.7 402.98L310.49 402.98L324.29 402.98L317.39 384.89L310.49 366.81L303.6 384.89Z" id="b7XtE76mn"></path><path d="M296.7 366.66L310.07 366.66L310.07 407.32L296.7 407.32L296.7 366.66Z" id="cjn0uKzSr"></path><path d="M276.03 368.56L319.65 277.38L408.49 250.5L465.49 257.97L489.67 284.6L489.67 252.36L530.16 284.6L551.65 277.38L591.63 368.56L319.65 368.56L276.03 368.56Z" id="b3S44PHlRY"></path><path d="M750.06 124.25C750.06 122.82 746.65 121.65 742.45 121.65C738.25 121.65 734.84 122.82 734.84 124.25C734.84 125.68 738.25 126.84 742.45 126.84C746.65 126.84 750.06 125.68 750.06 124.25Z" id="c1uDwY0Mbz"></path><path d="M747.74 89.9L754.22 110.61L741.25 110.61L728.29 110.61L734.77 89.9L741.25 69.2L747.74 89.9Z" id="avJslzZkd"></path><path d="M742.39 123.43L742.39 90.89" id="d1E9Vf2xdo"></path><path d="M746.72 94.34L742.39 102.23" id="d4S81WEL5R"></path><path d="M735.61 100.18L742.39 109.06" id="idGaRd9Pm"></path><path d="" id="a42sjwjdCD"></path><path d="M889.9 57.82C889.9 56.63 886.49 55.67 882.29 55.67C878.09 55.67 874.68 56.63 874.68 57.82C874.68 59.01 878.09 59.98 882.29 59.98C886.49 59.98 889.9 59.01 889.9 57.82Z" id="bHP7stPLX"></path><path d="M887.57 29.28L894.06 46.49L881.09 46.49L868.13 46.49L874.61 29.28L881.09 12.07L887.57 29.28Z" id="c2qu5DZ92t"></path><path d="M882.23 57.14L882.23 30.1" id="jwQrCFD0H"></path><path d="M886.56 32.97L882.23 39.52" id="a99NlPTJ6"></path><path d="M875.45 37.82L882.23 45.2" id="ciTiHbKVw"></path><path d="" id="a4U3AjXvl"></path><path d="M850.07 98.21C850.07 96.76 845.45 95.58 839.74 95.58C834.04 95.58 829.41 96.76 829.41 98.21C829.41 99.66 834.04 100.84 839.74 100.84C845.45 100.84 850.07 99.66 850.07 98.21Z" id="d29jlvv2jl"></path><path d="M846.62 60.18L855.41 84.34L837.82 84.34L820.23 84.34L829.02 60.18L837.82 36.02L846.62 60.18Z" id="hamAQVKic"></path><path d="M839.37 97.32L839.37 64.35" id="b3taDv4faQ"></path><path d="M845.24 67.85L839.37 75.84" id="a1r63AaqBg"></path><path d="M830.16 73.77L839.37 82.76" id="b2b3gxnhIg"></path><path d="" id="aZHSeDFVf"></path><path d="M1162.01 255.49C1162.01 254.06 1158.6 252.9 1154.4 252.9C1150.19 252.9 1146.78 254.06 1146.78 255.49C1146.78 256.92 1150.19 258.08 1154.4 258.08C1158.6 258.08 1162.01 256.92 1162.01 255.49Z" id="eKTJBsugJ"></path><path d="M1159.68 221.15L1166.16 241.85L1153.2 241.85L1140.23 241.85L1146.71 221.15L1153.2 200.44L1159.68 221.15Z" id="i116whw7av"></path><path d="M1154.34 254.67L1154.34 222.13" id="ajdcyPIER"></path><path d="M1158.67 225.58L1154.34 233.47" id="aE7CIvUk6"></path><path d="M1147.55 231.42L1154.34 240.3" id="k5G9zH1wdw"></path><path d="" id="boCCbLCzD"></path><path d="M1062.25 264.57C1062.25 261.97 1056.89 259.86 1050.29 259.86C1043.69 259.86 1038.33 261.97 1038.33 264.57C1038.33 267.18 1043.69 269.29 1050.29 269.29C1056.89 269.29 1062.25 267.18 1062.25 264.57Z" id="afxW2umiE"></path><path d="M1058.59 202.14L1068.77 239.79L1048.41 239.79L1028.04 239.79L1038.22 202.14L1048.41 164.5L1058.59 202.14Z" id="b1eI0XLs9K"></path><path d="M1050.2 263.09L1050.2 203.94" id="a1irFXszYa"></path><path d="M1057 210.21L1050.2 224.55" id="esFWIZP87"></path><path d="M1039.54 220.83L1050.2 236.96" id="b1QfhlXuW"></path><path d="" id="b5FO7UDch"></path><path d="M181.03 359.5C181.03 356.26 171.32 353.63 159.37 353.63C147.41 353.63 137.7 356.26 137.7 359.5C137.7 362.74 147.41 365.37 159.37 365.37C171.32 365.37 181.03 362.74 181.03 359.5Z" id="bieHtYQn"></path><path d="M174.4 281.76L192.85 328.63L155.95 328.63L119.06 328.63L137.5 281.76L155.95 234.89L174.4 281.76Z" id="ckSFzNCMe"></path><path d="M159.2 357.65L159.2 283.99" id="a1KZNzkBIg"></path><path d="M171.52 291.8L159.2 309.66" id="b6ONi0XKgt"></path><path d="M139.9 305.03L159.2 325.11" id="ct7s8wgtx"></path><path d="" id="iUZ7l2RNx"></path><path d="M1361.9 310.72C1361.9 307.31 1352.19 304.55 1340.23 304.55C1328.27 304.55 1318.57 307.31 1318.57 310.72C1318.57 314.13 1328.27 316.9 1340.23 316.9C1352.19 316.9 1361.9 314.13 1361.9 310.72Z" id="barDFQUGe"></path><path d="M1354.64 228.96L1373.09 278.26L1336.19 278.26L1299.3 278.26L1317.74 228.96L1336.19 179.67L1354.64 228.96Z" id="g3VW5sDhH"></path><path d="M1339.44 308.78L1339.44 231.31" id="bR1j8KDzN"></path><path d="M1351.76 239.53L1339.44 258.31" id="d8ctk5FHd"></path><path d="M1320.13 253.43L1339.44 274.56" id="a2KFDbeDJA"></path><path d="" id="a36sB7JqG"></path><path d="M751.27 279.97L805.49 279.97L805.49 366.69L751.27 366.69L751.27 279.97Z" id="b2ILiXyZYO"></path><path d="M751.12 304.15L805.86 304.15L805.86 309.95L751.12 309.95L751.12 304.15Z" id="aaqneqYOK"></path><path d="M763.01 292.06L766.97 279.97L759.04 279.97L751.12 279.97L755.08 292.06L759.04 304.15L763.01 292.06Z" id="a3pvGPUyJC"></path><path d="M778.7 292.06L782.66 279.97L774.74 279.97L766.81 279.97L770.77 292.06L774.74 304.15L778.7 292.06Z" id="b3ZRM1frd"></path><path d="M794.34 292.06L798.31 279.97L790.38 279.97L782.46 279.97L786.42 292.06L790.38 304.15L794.34 292.06Z" id="c1Kns8nKCI"></path><path d="M809.45 292.06L813.41 279.97L805.49 279.97L797.56 279.97L801.52 292.06L805.49 304.15L809.45 292.06Z" id="azvavc7d3"></path><path d="M751.01 330.27L805.75 330.27L805.75 336.08L751.01 336.08L751.01 330.27Z" id="bppMEcr0b"></path><path d="M755.24 353.93L751.27 366.69L759.2 366.69L767.12 366.69L763.16 353.93L759.2 341.17L755.24 353.93Z" id="e22Htr4Kqw"></path><path d="M771.09 353.93L767.12 366.69L775.05 366.69L782.97 366.69L779.01 353.93L775.05 341.17L771.09 353.93Z" id="aqLOvrCLr"></path><path d="M786.62 353.93L782.66 366.69L790.59 366.69L798.51 366.69L794.55 353.93L790.59 341.17L786.62 353.93Z" id="c4tbT67eA"></path><path d="M801.52 353.93L797.56 366.69L805.49 366.69L813.41 366.69L809.45 353.93L805.49 341.17L801.52 353.93Z" id="a1Zi7OjKfP"></path><path d="M759.2 309.95L761.57 309.95L761.57 331.33L759.2 331.33L759.2 309.95Z" id="b3MSp2IZ6m"></path><path d="M793.65 309.95L796.03 309.95L796.03 331.33L793.65 331.33L793.65 309.95Z" id="bXibZsf6V"></path><path d="M800.93 325.79L805.75 331.03L805.69 320.34L805.63 309.65L800.87 315.1L796.1 320.55L800.93 325.79Z" id="b62HTSSC5"></path><path d="M802.51 356.24L799.54 366.32L805.49 366.32L811.43 366.32L808.46 356.24L805.49 346.16L802.51 356.24Z" id="d5e7OzLQaD"></path><path d="M755.39 315.09L751.19 309.65L751.12 320.34L751.05 331.03L755.32 325.78L759.59 320.53L755.39 315.09Z" id="amfSQGveA"></path><path d="M801.77 323.46L804.9 326.61L804.86 320.17L804.82 313.72L801.74 317.01L798.65 320.3L801.77 323.46Z" id="b5YFg37eb"></path><path d="M754.51 317.09L751.44 313.72L751.36 320.16L751.27 326.61L754.42 323.54L757.57 320.47L754.51 317.09Z" id="h5goGSbnc"></path><path d="M793.35 289.4L796.33 279.97L790.38 279.97L784.43 279.97L787.41 289.4L790.38 298.83L793.35 289.4Z" id="dF8FvigZh"></path><path d="M777.71 290.18L780.68 280.76L774.74 280.76L768.79 280.76L771.76 290.18L774.74 299.61L777.71 290.18Z" id="g1k2QmEyFf"></path><path d="M808.46 289.4L811.43 279.97L805.49 279.97L799.54 279.97L802.51 289.4L805.49 298.83L808.46 289.4Z" id="hCUoKZn"></path><path d="M806.49 342.23L821.39 342.23L821.39 366.66L806.49 366.66L806.49 342.23Z" id="b6PRNIHriF"></path><path d="M805.49 279.97L813.17 279.97L813.17 304.15L805.49 304.15L805.49 279.97Z" id="a1csL2VWT7"></path><path d="M762.02 290.18L764.99 280.76L759.04 280.76L753.1 280.76L756.07 290.18L759.04 299.61L762.02 290.18Z" id="csnALfARk"></path><path d="M787.61 356.24L784.64 366.32L790.59 366.32L796.53 366.32L793.56 356.24L790.59 346.16L787.61 356.24Z" id="a1UbkcJqG"></path><path d="M772.07 356.24L769.1 366.32L775.05 366.32L781 366.32L778.02 356.24L775.05 346.16L772.07 356.24Z" id="a2f3Q5sEd8"></path><path d="M756.07 356.35L753.1 366.43L759.04 366.43L764.99 366.43L762.02 356.35L759.04 346.27L756.07 356.35Z" id="a6TWgUgSVi"></path><path d="M774.74 311.48L779.9 311.48L779.9 327.97L774.74 327.97L774.74 311.48Z" id="c2MgFF2FiU"></path><path d="M778.49 316.82L782.97 316.82L782.97 324.46L778.49 324.46L778.49 316.82Z" id="a7aNqLqcW"></path><path d="M771.31 316.52L775.79 316.52L775.79 324.16L771.31 324.16L771.31 316.52Z" id="a1pxCsoS8G"></path><path d="M782.97 318.6L787.46 318.6L787.46 323.33L782.97 323.33L782.97 318.6Z" id="b39887iepD"></path><path d="M767.12 318.24L771.61 318.24L771.61 322.97L767.12 322.97L767.12 318.24Z" id="eCVWj5Xq2"></path><path d="M778.54 320.16C778.54 321.47 778.01 322.53 777.36 322.53C776.7 322.53 776.17 321.47 776.17 320.16C776.17 318.86 776.7 317.8 777.36 317.8C778.01 317.8 778.54 318.86 778.54 320.16Z" id="d7sT6ngl44"></path><path d="M770.8 347.85L774.44 336.08L767.15 336.08L759.85 336.08L763.5 347.85L767.15 359.63L770.8 347.85Z" id="dnDcDJGDT"></path><path d="M786.62 347.24L790.27 336.08L782.97 336.08L775.68 336.08L779.33 347.24L782.97 358.4L786.62 347.24Z" id="a1tEpfSyXQ"></path><path d="M801.76 347.85L805.41 336.08L798.11 336.08L790.82 336.08L794.46 347.85L798.11 359.63L801.76 347.85Z" id="a14UFWsXbJ"></path><path d="M755.05 347.85L758.7 336.08L751.41 336.08L744.11 336.08L747.76 347.85L751.41 359.63L755.05 347.85Z" id="d4GV323J5B"></path><path d="M743.37 334.19L751.05 334.19L751.05 361.36L743.37 361.36L743.37 334.19Z" id="d281RUOGPd"></path><path d="M763.99 294.73L761.02 304.15L766.97 304.15L772.92 304.15L769.94 294.73L766.97 285.3L763.99 294.73Z" id="bnn1zSjyg"></path><path d="M779.51 294.73L776.54 304.15L782.48 304.15L788.43 304.15L785.46 294.73L782.48 285.3L779.51 294.73Z" id="dQgwjNYHh"></path><path d="M795.15 295.09L792.18 304.52L798.13 304.52L804.07 304.52L801.1 295.09L798.13 285.66L795.15 295.09Z" id="a2DK86VLVy"></path><path d="M764.59 305.98L767.12 305.98L767.12 308.12L764.59 308.12L764.59 305.98Z" id="dfRHrNJtS"></path><path d="M756.17 305.98L758.7 305.98L758.7 308.12L756.17 308.12L756.17 305.98Z" id="b2IgiIH1zm"></path><path d="M755.89 331.74L758.42 331.74L758.42 333.88L755.89 333.88L755.89 331.74Z" id="b2axHAuRij"></path><path d="M764.83 332.05L767.37 332.05L767.37 334.19L764.83 334.19L764.83 332.05Z" id="e11qHYwiO"></path><path d="M773.63 331.74L776.17 331.74L776.17 333.88L773.63 333.88L773.63 331.74Z" id="i1ytdOlw9l"></path><path d="M782.46 332.05L784.99 332.05L784.99 334.19L782.46 334.19L782.46 332.05Z" id="kkjW2iSqc"></path><path d="M791.87 332.05L794.41 332.05L794.41 334.19L791.87 334.19L791.87 332.05Z" id="e5ZekI4IE"></path><path d="M800.93 331.74L803.46 331.74L803.46 333.88L800.93 333.88L800.93 331.74Z" id="a28gF2NEd8"></path><path d="M773.63 305.98L776.17 305.98L776.17 308.12L773.63 308.12L773.63 305.98Z" id="c2ysFxJZ27"></path><path d="M782.46 305.98L784.99 305.98L784.99 308.12L782.46 308.12L782.46 305.98Z" id="asL2AZSSi"></path><path d="M791.87 305.98L794.41 305.98L794.41 308.12L791.87 308.12L791.87 305.98Z" id="bvb4vS9Rf"></path><path d="M800.45 305.98L802.99 305.98L802.99 308.12L800.45 308.12L800.45 305.98Z" id="c4IW3PD4GC"></path><path d="M747.12 292.23L743.16 304.32L751.08 304.32L759.01 304.32L755.05 292.23L751.08 280.14L747.12 292.23Z" id="hIcH3NuzT"></path><path d="M723.65 293.51L719.13 304.74L728.17 304.74L737.22 304.74L732.7 293.51L728.17 282.28L723.65 293.51Z" id="c7CWX3aK2"></path><path d="M708.65 304.87L752.94 304.87L752.94 309.61L708.65 309.61L708.65 304.87Z" id="f484fri3Xx"></path><path d="M715.89 306.2L718.43 306.2L718.43 308.33L715.89 308.33L715.89 306.2Z" id="f66KiYEJ1S"></path><path d="M744.18 292.49L748.71 280.1L739.66 280.1L730.62 280.1L735.14 292.49L739.66 304.87L744.18 292.49Z" id="a2n4iqsyHY"></path><path d="M728.98 306.2L731.52 306.2L731.52 308.33L728.98 308.33L728.98 306.2Z" id="b8Xv4QRSx"></path><path d="M743.32 306.2L745.86 306.2L745.86 308.33L743.32 308.33L743.32 306.2Z" id="g1X5yqwpCW"></path><path d="M662.99 281.09L717.2 281.09L717.2 367.81L662.99 367.81L662.99 281.09Z" id="h4mdnySGJ"></path><path d="M662.83 305.27L717.57 305.27L717.57 311.07L662.83 311.07L662.83 305.27Z" id="b18TGsmTX8"></path><path d="M674.72 293.18L678.68 281.09L670.76 281.09L662.83 281.09L666.79 293.18L670.76 305.27L674.72 293.18Z" id="dDfCgqTR4"></path><path d="M690.41 293.18L694.37 281.09L686.45 281.09L678.52 281.09L682.49 293.18L686.45 305.27L690.41 293.18Z" id="a4Zyk2ZTww"></path><path d="M706.06 293.18L710.02 281.09L702.09 281.09L694.17 281.09L698.13 293.18L702.09 305.27L706.06 293.18Z" id="b2f1cZF2aJ"></path><path d="M721.16 293.18L725.12 281.09L717.2 281.09L709.27 281.09L713.24 293.18L717.2 305.27L721.16 293.18Z" id="a3DDX6gP3X"></path><path d="M662.72 331.39L717.46 331.39L717.46 337.2L662.72 337.2L662.72 331.39Z" id="a1XdAKZPqo"></path><path d="M666.95 355.05L662.99 367.81L670.91 367.81L678.84 367.81L674.87 355.05L670.91 342.29L666.95 355.05Z" id="b7fYAc7uHF"></path><path d="M682.8 355.05L678.84 367.81L686.76 367.81L694.69 367.81L690.72 355.05L686.76 342.29L682.8 355.05Z" id="a72J36mcK"></path><path d="M698.34 355.05L694.37 367.81L702.3 367.81L710.22 367.81L706.26 355.05L702.3 342.29L698.34 355.05Z" id="b2zmwmKwFu"></path><path d="M721.74 290.97L725.05 281.33L718.42 281.33L711.79 281.33L715.1 290.97L718.42 300.61L721.74 290.97Z" id="b6isHi1mp"></path><path d="M713.24 355.05L709.27 367.81L717.2 367.81L725.12 367.81L721.16 355.05L717.2 342.29L713.24 355.05Z" id="a3ed6Yc3k"></path><path d="M670.91 311.07L673.29 311.07L673.29 332.45L670.91 332.45L670.91 311.07Z" id="ae0Ldpkhf"></path><path d="M705.36 311.07L707.74 311.07L707.74 332.45L705.36 332.45L705.36 311.07Z" id="bEoz4Fiy1"></path><path d="M712.64 326.91L717.46 332.14L717.4 321.46L717.34 310.77L712.58 316.22L707.82 321.67L712.64 326.91Z" id="a1a3LZ7N5y"></path><path d="M714.22 357.36L711.25 367.44L717.2 367.44L723.15 367.44L720.17 357.36L717.2 347.28L714.22 357.36Z" id="brQqfKDfy"></path><path d="M667.1 316.21L662.9 310.77L662.83 321.46L662.77 332.14L667.04 326.9L671.31 321.65L667.1 316.21Z" id="a5mnH6zdi8"></path><path d="M713.49 324.58L716.61 327.73L716.57 321.28L716.54 314.84L713.45 318.13L710.36 321.42L713.49 324.58Z" id="a2Gi2RXp2V"></path><path d="M666.22 318.21L663.16 314.84L663.07 321.28L662.99 327.73L666.13 324.66L669.28 321.59L666.22 318.21Z" id="aepZSlBV"></path><path d="M705.07 290.52L708.04 281.09L702.09 281.09L696.15 281.09L699.12 290.52L702.09 299.95L705.07 290.52Z" id="a8C6LsXNJ"></path><path d="M689.42 291.3L692.4 281.87L686.45 281.87L680.5 281.87L683.47 291.3L686.45 300.73L689.42 291.3Z" id="d6YfBNxbn"></path><path d="M717.2 340.7L732.1 340.7L732.1 369.18L717.2 369.18L717.2 340.7Z" id="l1NSeyoA5x"></path><path d="M673.73 291.3L676.7 281.87L670.76 281.87L664.81 281.87L667.78 291.3L670.76 300.73L673.73 291.3Z" id="a7kVSQ5rC"></path><path d="M699.33 357.36L696.35 367.44L702.3 367.44L708.25 367.44L705.27 357.36L702.3 347.28L699.33 357.36Z" id="b57jqtDp0"></path><path d="M683.79 357.36L680.81 367.44L686.76 367.44L692.71 367.44L689.74 357.36L686.76 347.28L683.79 357.36Z" id="a3rzYqyxR9"></path><path d="M667.78 357.47L664.81 367.55L670.76 367.55L676.7 367.55L673.73 357.47L670.76 347.39L667.78 357.47Z" id="bhYv2mUiT"></path><path d="M686.45 312.6L691.61 312.6L691.61 329.09L686.45 329.09L686.45 312.6Z" id="b2XmawRnjb"></path><path d="M690.2 317.94L694.69 317.94L694.69 325.58L690.2 325.58L690.2 317.94Z" id="a2Db20yIzp"></path><path d="M683.02 317.64L687.5 317.64L687.5 325.28L683.02 325.28L683.02 317.64Z" id="dMOPkd2I2"></path><path d="M694.69 319.72L699.17 319.72L699.17 324.45L694.69 324.45L694.69 319.72Z" id="dgktrCgTG"></path><path d="M678.84 319.35L683.32 319.35L683.32 324.09L678.84 324.09L678.84 319.35Z" id="c1dsD4z8z3"></path><path d="M690.26 321.28C690.26 322.59 689.73 323.65 689.07 323.65C688.41 323.65 687.88 322.59 687.88 321.28C687.88 319.98 688.41 318.92 689.07 318.92C689.73 318.92 690.26 319.98 690.26 321.28Z" id="c8J1dOaxO"></path><path d="M682.51 348.97L686.16 337.2L678.86 337.2L671.57 337.2L675.21 348.97L678.86 360.75L682.51 348.97Z" id="a2pBJlFcg"></path><path d="M698.33 348.36L701.98 337.2L694.69 337.2L687.39 337.2L691.04 348.36L694.69 359.52L698.33 348.36Z" id="m5YShUhSbK"></path><path d="M713.47 348.97L717.12 337.2L709.82 337.2L702.53 337.2L706.18 348.97L709.82 360.75L713.47 348.97Z" id="cE83HrCxe"></path><path d="M666.77 348.97L670.41 337.2L663.12 337.2L655.82 337.2L659.47 348.97L663.12 360.75L666.77 348.97Z" id="icU74k9QV"></path><path d="M655.08 337.31L662.77 337.31L662.77 364.49L655.08 364.49L655.08 337.31Z" id="dJwUw02JX"></path><path d="M675.71 295.85L672.73 305.27L678.68 305.27L684.63 305.27L681.66 295.85L678.68 286.42L675.71 295.85Z" id="dzHMyw3At"></path><path d="M691.22 295.85L688.25 305.27L694.2 305.27L700.15 305.27L697.17 295.85L694.2 286.42L691.22 295.85Z" id="a4lObilX8b"></path><path d="M706.86 296.21L703.89 305.64L709.84 305.64L715.79 305.64L712.81 296.21L709.84 286.78L706.86 296.21Z" id="c9hxngtNk"></path><path d="M676.3 307.1L678.84 307.1L678.84 309.24L676.3 309.24L676.3 307.1Z" id="c1JwD7dIsc"></path><path d="M667.88 307.1L670.41 307.1L670.41 309.24L667.88 309.24L667.88 307.1Z" id="adGZzhkPT"></path><path d="M667.6 332.86L670.13 332.86L670.13 335L667.6 335L667.6 332.86Z" id="a2t2Hd7LUh"></path><path d="M676.55 333.17L679.08 333.17L679.08 335.31L676.55 335.31L676.55 333.17Z" id="fvdBQa0xZ"></path><path d="M685.35 332.86L687.88 332.86L687.88 335L685.35 335L685.35 332.86Z" id="a3VtGnPW7X"></path><path d="M694.17 333.17L696.7 333.17L696.7 335.31L694.17 335.31L694.17 333.17Z" id="a8cEPxCQm4"></path><path d="M703.58 333.17L706.12 333.17L706.12 335.3L703.58 335.3L703.58 333.17Z" id="bjj3T4SeN"></path><path d="M712.64 332.86L715.18 332.86L715.18 335L712.64 335L712.64 332.86Z" id="b6TEdlMIMa"></path><path d="M685.35 307.1L687.88 307.1L687.88 309.24L685.35 309.24L685.35 307.1Z" id="aNuARQvKl"></path><path d="M694.17 307.1L696.7 307.1L696.7 309.24L694.17 309.24L694.17 307.1Z" id="e5GiYu65ge"></path><path d="M703.58 307.1L706.12 307.1L706.12 309.24L703.58 309.24L703.58 307.1Z" id="kmG65tyvw"></path><path d="M712.16 307.1L714.7 307.1L714.7 309.24L712.16 309.24L712.16 307.1Z" id="bzEkHz8Fi"></path><path d="M658.83 293.35L654.87 305.44L662.8 305.44L670.72 305.44L666.76 293.35L662.8 281.26L658.83 293.35Z" id="cYgk4fdDf"></path><path d="M654.87 281.16L662.55 281.16L662.55 308.33L654.87 308.33L654.87 281.16Z" id="f9st15xZz"></path><path d="M642.99 282.43L668.06 221.49L719.11 203.52L751.86 208.51L765.75 226.31L765.75 204.76L802.76 204.76L802.76 226.31L824.34 282.43L668.06 282.43L642.99 282.43Z" id="c2IE9Mmbsc"></path><path d="M945.95 257.94L970.33 257.94L970.33 304.5L945.95 304.5L945.95 257.94Z" id="aDUzZo9bf"></path><path d="M945.88 270.93L970.5 270.93L970.5 274.04L945.88 274.04L945.88 270.93Z" id="b7uGKYa75"></path><path d="M951.23 264.43L953.01 257.94L949.45 257.94L945.88 257.94L947.66 264.43L949.45 270.93L951.23 264.43Z" id="i1SFs5Z61x"></path><path d="M958.28 264.43L960.07 257.94L956.5 257.94L952.94 257.94L954.72 264.43L956.5 270.93L958.28 264.43Z" id="c1aBWORXjU"></path><path d="M965.32 264.43L967.1 257.94L963.54 257.94L959.97 257.94L961.75 264.43L963.54 270.93L965.32 264.43Z" id="d2W1QPKVx"></path><path d="M972.11 264.43L973.89 257.94L970.33 257.94L966.76 257.94L968.55 264.43L970.33 270.93L972.11 264.43Z" id="bzwLQcqK1"></path><path d="M945.83 284.95L970.45 284.95L970.45 288.07L945.83 288.07L945.83 284.95Z" id="fyC9cykWJ"></path><path d="M947.73 297.65L945.95 304.5L949.52 304.5L953.08 304.5L951.3 297.65L949.52 290.8L947.73 297.65Z" id="drpnEUsOl"></path><path d="M954.86 297.65L953.08 304.5L956.64 304.5L960.21 304.5L958.42 297.65L956.64 290.8L954.86 297.65Z" id="f1qR3jrItI"></path><path d="M961.85 297.65L960.07 304.5L963.63 304.5L967.19 304.5L965.41 297.65L963.63 290.8L961.85 297.65Z" id="a8BcDnGrl"></path><path d="M968.55 297.65L966.76 304.5L970.33 304.5L973.89 304.5L972.11 297.65L970.33 290.8L968.55 297.65Z" id="etDcwnBZG"></path><path d="M949.52 274.04L950.58 274.04L950.58 285.52L949.52 285.52L949.52 274.04Z" id="omfn3ufpf"></path><path d="M965.01 274.04L966.08 274.04L966.08 285.52L965.01 285.52L965.01 274.04Z" id="a1eWOYTuKz"></path><path d="M968.28 282.54L970.45 285.35L970.42 279.62L970.39 273.88L968.25 276.8L966.11 279.73L968.28 282.54Z" id="a4MqEJIe1V"></path><path d="M968.99 298.89L967.65 304.31L970.33 304.31L973 304.31L971.67 298.89L970.33 293.48L968.99 298.89Z" id="e6Wx5kWXsS"></path><path d="M947.8 276.8L945.91 273.88L945.88 279.62L945.85 285.35L947.77 282.54L949.69 279.72L947.8 276.8Z" id="fsgPAlHtq"></path><path d="M968.66 281.29L970.06 282.99L970.05 279.52L970.03 276.06L968.64 277.83L967.25 279.6L968.66 281.29Z" id="geZlJLsIf"></path><path d="M947.41 277.87L946.03 276.06L945.99 279.52L945.95 282.98L947.37 281.34L948.78 279.69L947.41 277.87Z" id="b1U2NFPjyi"></path><path d="M964.87 263.01L966.21 257.94L963.54 257.94L960.86 257.94L962.2 263.01L963.54 268.07L964.87 263.01Z" id="eKKwCfLi"></path><path d="M957.84 263.42L959.18 258.36L956.5 258.36L953.83 258.36L955.16 263.42L956.5 268.49L957.84 263.42Z" id="e11XhdSDCC"></path><path d="M971.67 263.01L973 257.94L970.33 257.94L967.65 257.94L968.99 263.01L970.33 268.07L971.67 263.01Z" id="a2m9RgXnE8"></path><path d="M970.78 291.37L977.48 291.37L977.48 304.49L970.78 304.49L970.78 291.37Z" id="a1rDENX15F"></path><path d="M970.33 257.94L973.78 257.94L973.78 270.93L970.33 270.93L970.33 257.94Z" id="aahHHJYRh"></path><path d="M950.78 263.42L952.12 258.36L949.45 258.36L946.77 258.36L948.11 263.42L949.45 268.49L950.78 263.42Z" id="bOLm9ydni"></path><path d="M962.29 298.89L960.95 304.31L963.63 304.31L966.3 304.31L964.97 298.89L963.63 293.48L962.29 298.89Z" id="a2jTYQ0uFL"></path><path d="M955.31 298.89L953.97 304.31L956.64 304.31L959.32 304.31L957.98 298.89L956.64 293.48L955.31 298.89Z" id="d14h5OfFf"></path><path d="M948.11 298.95L946.77 304.37L949.45 304.37L952.12 304.37L950.78 298.95L949.45 293.54L948.11 298.95Z" id="b3ourbRS7v"></path><path d="M956.5 274.86L958.82 274.86L958.82 283.71L956.5 283.71L956.5 274.86Z" id="b8fnuEgHT"></path><path d="M958.19 277.73L960.21 277.73L960.21 281.83L958.19 281.83L958.19 277.73Z" id="b2CtxmvqfK"></path><path d="M954.96 277.57L956.98 277.57L956.98 281.67L954.96 281.67L954.96 277.57Z" id="b5Irw48eC"></path><path d="M960.21 278.68L962.22 278.68L962.22 281.22L960.21 281.22L960.21 278.68Z" id="a17ac7anp0"></path><path d="M953.08 278.49L955.1 278.49L955.1 281.03L953.08 281.03L953.08 278.49Z" id="cdttAM7ch"></path><path d="M958.21 279.52C958.21 280.22 957.98 280.79 957.68 280.79C957.39 280.79 957.15 280.22 957.15 279.52C957.15 278.82 957.39 278.25 957.68 278.25C957.98 278.25 958.21 278.82 958.21 279.52Z" id="d6cQKYBapU"></path><path d="M954.73 294.39L956.37 288.07L953.09 288.07L949.81 288.07L951.45 294.39L953.09 300.71L954.73 294.39Z" id="mxqy7pi5h"></path><path d="M961.85 294.06L963.49 288.07L960.21 288.07L956.93 288.07L958.57 294.06L960.21 300.05L961.85 294.06Z" id="dANyoNll3"></path><path d="M968.65 294.39L970.29 288.07L967.01 288.07L963.73 288.07L965.37 294.39L967.01 300.71L968.65 294.39Z" id="c1GKArMXgQ"></path><path d="M947.65 294.39L949.29 288.07L946.01 288.07L942.73 288.07L944.37 294.39L946.01 300.71L947.65 294.39Z" id="a2ANE4nCTR"></path><path d="M942.4 287.05L945.85 287.05L945.85 301.64L942.4 301.64L942.4 287.05Z" id="eDxCKT1z7"></path><path d="M951.67 265.86L950.33 270.93L953.01 270.93L955.68 270.93L954.35 265.86L953.01 260.8L951.67 265.86Z" id="a1jCw1XFe4"></path><path d="M958.65 265.86L957.31 270.93L959.99 270.93L962.66 270.93L961.32 265.86L959.99 260.8L958.65 265.86Z" id="cmu92MS6g"></path><path d="M965.68 266.06L964.34 271.12L967.02 271.12L969.69 271.12L968.36 266.06L967.02 261L965.68 266.06Z" id="b10vIFWWBX"></path><path d="M951.94 271.91L953.08 271.91L953.08 273.06L951.94 273.06L951.94 271.91Z" id="a8mXkIBcgg"></path><path d="M948.15 271.91L949.29 271.91L949.29 273.06L948.15 273.06L948.15 271.91Z" id="ahLk3HG77"></path><path d="M948.03 285.74L949.17 285.74L949.17 286.89L948.03 286.89L948.03 285.74Z" id="h2g6rPXxlr"></path><path d="M952.05 285.91L953.19 285.91L953.19 287.05L952.05 287.05L952.05 285.91Z" id="a1CKNlONV"></path><path d="M956.01 285.74L957.15 285.74L957.15 286.89L956.01 286.89L956.01 285.74Z" id="aNkXWfKDh"></path><path d="M959.97 285.91L961.11 285.91L961.11 287.05L959.97 287.05L959.97 285.91Z" id="d2k21kKkAL"></path><path d="M964.21 285.9L965.35 285.9L965.35 287.05L964.21 287.05L964.21 285.9Z" id="b7mjuXlzZ"></path><path d="M968.28 285.74L969.42 285.74L969.42 286.89L968.28 286.89L968.28 285.74Z" id="cb4SDHNkS"></path><path d="M956.01 271.91L957.15 271.91L957.15 273.06L956.01 273.06L956.01 271.91Z" id="b2gjyaeEV6"></path><path d="M959.97 271.91L961.11 271.91L961.11 273.06L959.97 273.06L959.97 271.91Z" id="k5jD2W67ii"></path><path d="M964.21 271.91L965.35 271.91L965.35 273.06L964.21 273.06L964.21 271.91Z" id="ahSoCpebt"></path><path d="M968.07 271.91L969.21 271.91L969.21 273.06L968.07 273.06L968.07 271.91Z" id="c1qCuqOI6F"></path><path d="M944.08 264.52L942.3 271.01L945.87 271.01L949.43 271.01L947.65 264.52L945.87 258.03L944.08 264.52Z" id="a2paehswUU"></path><path d="M933.53 265.21L931.5 271.24L935.56 271.24L939.63 271.24L937.6 265.21L935.56 259.18L933.53 265.21Z" id="g68X6Kb8Z"></path><path d="M926.78 271.31L946.7 271.31L946.7 273.85L926.78 273.85L926.78 271.31Z" id="eB8X5UMZg"></path><path d="M930.04 272.02L931.18 272.02L931.18 273.17L930.04 273.17L930.04 272.02Z" id="c37U22gM7"></path><path d="M942.76 264.66L944.8 258.01L940.73 258.01L936.66 258.01L938.7 264.66L940.73 271.31L942.76 264.66Z" id="b5FcFaiRGe"></path><path d="M935.93 272.02L937.07 272.02L937.07 273.17L935.93 273.17L935.93 272.02Z" id="f86uc1rRDy"></path><path d="M942.38 272.02L943.52 272.02L943.52 273.17L942.38 273.17L942.38 272.02Z" id="e6YwyuRS"></path><path d="M906.25 258.55L930.63 258.55L930.63 305.1L906.25 305.1L906.25 258.55Z" id="bawgDTiFL"></path><path d="M906.18 271.53L930.8 271.53L930.8 274.64L906.18 274.64L906.18 271.53Z" id="c1mdvvpWI5"></path><path d="M911.53 265.04L913.31 258.55L909.75 258.55L906.18 258.55L907.96 265.04L909.75 271.53L911.53 265.04Z" id="d1YkhXr1X"></path><path d="M918.58 265.04L920.37 258.55L916.8 258.55L913.24 258.55L915.02 265.04L916.8 271.53L918.58 265.04Z" id="cozO0GSEO"></path><path d="M925.62 265.04L927.4 258.55L923.84 258.55L920.27 258.55L922.06 265.04L923.84 271.53L925.62 265.04Z" id="dcvlTuv1V"></path><path d="M932.41 265.04L934.19 258.55L930.63 258.55L927.07 258.55L928.85 265.04L930.63 271.53L932.41 265.04Z" id="j7ovrdCoPm"></path><path d="M906.13 285.55L930.75 285.55L930.75 288.67L906.13 288.67L906.13 285.55Z" id="a2KB9zi5gA"></path><path d="M908.03 298.25L906.25 305.1L909.82 305.1L913.38 305.1L911.6 298.25L909.82 291.4L908.03 298.25Z" id="c2roTPpiKJ"></path><path d="M915.16 298.25L913.38 305.1L916.94 305.1L920.51 305.1L918.73 298.25L916.94 291.4L915.16 298.25Z" id="b7e3fixZL"></path><path d="M922.15 298.25L920.37 305.1L923.93 305.1L927.49 305.1L925.71 298.25L923.93 291.4L922.15 298.25Z" id="a6Kh41rQef"></path><path d="M932.67 263.85L934.16 258.67L931.18 258.67L928.2 258.67L929.69 263.85L931.18 269.03L932.67 263.85Z" id="e1SnLOX5Lt"></path><path d="M928.85 298.25L927.07 305.1L930.63 305.1L934.19 305.1L932.41 298.25L930.63 291.4L928.85 298.25Z" id="b213qszXI3"></path><path d="M909.82 274.64L910.88 274.64L910.88 286.12L909.82 286.12L909.82 274.64Z" id="f5T20YMWFg"></path><path d="M925.31 274.64L926.38 274.64L926.38 286.12L925.31 286.12L925.31 274.64Z" id="i6iE3ncfpZ"></path><path d="M928.58 283.14L930.75 285.96L930.72 280.22L930.69 274.48L928.55 277.4L926.41 280.33L928.58 283.14Z" id="h1cc6Ex2t9"></path><path d="M929.29 299.5L927.95 304.91L930.63 304.91L933.3 304.91L931.97 299.5L930.63 294.08L929.29 299.5Z" id="b1HJflKDS"></path><path d="M908.1 277.4L906.21 274.48L906.18 280.22L906.15 285.96L908.07 283.14L909.99 280.32L908.1 277.4Z" id="a6TNugB7KP"></path><path d="M928.96 281.89L930.37 283.59L930.35 280.12L930.33 276.66L928.94 278.43L927.56 280.2L928.96 281.89Z" id="aTgrFpVz"></path><path d="M907.71 278.48L906.33 276.66L906.29 280.12L906.25 283.59L907.67 281.94L909.08 280.29L907.71 278.48Z" id="a6hSQb2Fk"></path><path d="M925.17 263.61L926.51 258.55L923.84 258.55L921.16 258.55L922.5 263.61L923.84 268.67L925.17 263.61Z" id="e36YHu2no8"></path><path d="M918.14 264.03L919.48 258.96L916.8 258.96L914.13 258.96L915.47 264.03L916.8 269.09L918.14 264.03Z" id="d1MG5Z9InC"></path><path d="M930.63 290.55L937.33 290.55L937.33 305.84L930.63 305.84L930.63 290.55Z" id="ezhoUxEfQ"></path><path d="M911.08 264.03L912.42 258.96L909.75 258.96L907.07 258.96L908.41 264.03L909.75 269.09L911.08 264.03Z" id="g9mQWl0M6"></path><path d="M922.59 299.5L921.26 304.91L923.93 304.91L926.6 304.91L925.27 299.5L923.93 294.08L922.59 299.5Z" id="d1gca8xeQA"></path><path d="M915.61 299.5L914.27 304.91L916.94 304.91L919.62 304.91L918.28 299.5L916.94 294.08L915.61 299.5Z" id="bqZ7MITLh"></path><path d="M908.41 299.56L907.07 304.97L909.75 304.97L912.42 304.97L911.08 299.56L909.75 294.14L908.41 299.56Z" id="e4nWbE7dxg"></path><path d="M916.8 275.46L919.12 275.46L919.12 284.31L916.8 284.31L916.8 275.46Z" id="bo9vBVsLj"></path><path d="M918.49 278.33L920.51 278.33L920.51 282.43L918.49 282.43L918.49 278.33Z" id="e16i1ezh4M"></path><path d="M915.26 278.17L917.28 278.17L917.28 282.27L915.26 282.27L915.26 278.17Z" id="e7qrRw96h"></path><path d="M920.51 279.28L922.52 279.28L922.52 281.82L920.51 281.82L920.51 279.28Z" id="g2f3G0GqTw"></path><path d="M913.38 279.09L915.4 279.09L915.4 281.63L913.38 281.63L913.38 279.09Z" id="b1im9zrbYU"></path><path d="M918.52 280.12C918.52 280.82 918.28 281.39 917.98 281.39C917.69 281.39 917.45 280.82 917.45 280.12C917.45 279.42 917.69 278.85 917.98 278.85C918.28 278.85 918.52 279.42 918.52 280.12Z" id="a3pydpC9j"></path><path d="M915.03 294.99L916.67 288.67L913.39 288.67L910.11 288.67L911.75 294.99L913.39 301.31L915.03 294.99Z" id="g8MAFU8P1"></path><path d="M922.15 294.66L923.79 288.67L920.51 288.67L917.23 288.67L918.87 294.66L920.51 300.66L922.15 294.66Z" id="j4zamF8Fi"></path><path d="M928.95 294.99L930.59 288.67L927.31 288.67L924.03 288.67L925.67 294.99L927.31 301.31L928.95 294.99Z" id="dCsi5qU6"></path><path d="M907.95 294.99L909.59 288.67L906.31 288.67L903.03 288.67L904.67 294.99L906.31 301.31L907.95 294.99Z" id="b5DLGw9fcx"></path><path d="M902.7 288.73L906.15 288.73L906.15 303.32L902.7 303.32L902.7 288.73Z" id="c1V0v34xeW"></path><path d="M911.97 266.47L910.64 271.53L913.31 271.53L915.98 271.53L914.65 266.47L913.31 261.4L911.97 266.47Z" id="g48GN0iHh"></path><path d="M918.95 266.47L917.61 271.53L920.29 271.53L922.96 271.53L921.62 266.47L920.29 261.4L918.95 266.47Z" id="h5oUufYYyq"></path><path d="M925.98 266.66L924.65 271.72L927.32 271.72L929.99 271.72L928.66 266.66L927.32 261.6L925.98 266.66Z" id="bPShYA7z"></path><path d="M912.24 272.51L913.38 272.51L913.38 273.66L912.24 273.66L912.24 272.51Z" id="a82E3J6p39"></path><path d="M908.45 272.51L909.59 272.51L909.59 273.66L908.45 273.66L908.45 272.51Z" id="f4avKuvpi8"></path><path d="M908.33 286.34L909.47 286.34L909.47 287.49L908.33 287.49L908.33 286.34Z" id="a3yfG9Wpfc"></path><path d="M912.35 286.51L913.49 286.51L913.49 287.65L912.35 287.65L912.35 286.51Z" id="a4iodQRXwp"></path><path d="M916.31 286.34L917.45 286.34L917.45 287.49L916.31 287.49L916.31 286.34Z" id="a19ToDeEeG"></path><path d="M920.27 286.51L921.41 286.51L921.41 287.65L920.27 287.65L920.27 286.51Z" id="dOWPgj9G0"></path><path d="M924.51 286.5L925.65 286.5L925.65 287.65L924.51 287.65L924.51 286.5Z" id="e5GXA3rYBb"></path><path d="M928.58 286.34L929.72 286.34L929.72 287.49L928.58 287.49L928.58 286.34Z" id="a3XhjQyIq9"></path><path d="M916.31 272.51L917.45 272.51L917.45 273.66L916.31 273.66L916.31 272.51Z" id="acs5eMHOj"></path><path d="M920.27 272.51L921.41 272.51L921.41 273.66L920.27 273.66L920.27 272.51Z" id="a2rI5B4ncE"></path><path d="M924.51 272.51L925.65 272.51L925.65 273.66L924.51 273.66L924.51 272.51Z" id="aaTZp38mb"></path><path d="M928.37 272.51L929.51 272.51L929.51 273.66L928.37 273.66L928.37 272.51Z" id="j9ZZOify8"></path><path d="M904.39 265.12L902.6 271.61L906.17 271.61L909.73 271.61L907.95 265.12L906.17 258.63L904.39 265.12Z" id="anmEbx8dR"></path><path d="M902.6 258.58L906.06 258.58L906.06 273.17L902.6 273.17L902.6 258.58Z" id="b1soRIQbyq"></path><path d="M897.26 259.26L908.53 226.54L931.49 216.89L946.22 219.58L952.46 229.13L952.46 217.56L969.1 217.56L969.1 229.13L978.81 259.26L908.53 259.26L897.26 259.26Z" id="hBdE8Xa97"></path><path d="M555.52 292.87C555.52 324.87 501.72 350.85 435.47 350.85C369.21 350.85 315.42 324.87 315.42 292.87C315.42 260.87 369.21 234.89 435.47 234.89C501.72 234.89 555.52 260.87 555.52 292.87Z" id="c4Lm76vHyG"></path></defs><g><g><g><use xlink:href="#a1e59F0ej" opacity="1" fill="#8ad9e4" fill-opacity="1"></use></g><g><use xlink:href="#e2s5g64T55" opacity="1" fill="#ffffff" fill-opacity="1"></use></g><g><use xlink:href="#dnXIuRsNU" opacity="1" fill="#ffffff" fill-opacity="1"></use></g><g><use xlink:href="#c19StCagmk" opacity="1" fill="#139c6b" fill-opacity="1"></use></g><g><use xlink:href="#b2owliomtj" opacity="1" fill="#8a6c6c" fill-opacity="1"></use></g><g><use xlink:href="#g23IHuR8hP" opacity="1" fill="#13a594" fill-opacity="1"></use></g><g><use xlink:href="#b1Ch1HllKl" opacity="1" fill="#8ad9e4" fill-opacity="1"></use></g><g><use xlink:href="#b1y7TlZXXq" opacity="1" fill="#f3b40b" fill-opacity="1"></use></g><g><g><use xlink:href="#bjn3av1Uh" opacity="1" fill="#626669" fill-opacity="1"></use></g><g><g><use xlink:href="#eitqtleo6" opacity="1" fill="#f0c61b" fill-opacity="1"></use></g><g><use xlink:href="#c1gVTRzzG" opacity="1" fill="#483910" fill-opacity="1"></use><g><use xlink:href="#c1gVTRzzG" opacity="1" fill-opacity="0" stroke="#855e42" stroke-width="2" stroke-opacity="1"></use></g></g><g><g><use xlink:href="#gEJqTEwVK" opacity="1" fill-opacity="0" stroke="#855e42" stroke-width="2" stroke-opacity="1"></use></g></g><g><g><use xlink:href="#ae42Fcl1g" opacity="1" fill-opacity="0" stroke="#855e42" stroke-width="2" stroke-opacity="1"></use></g></g><g><g><use xlink:href="#f2dZZWWRY1" opacity="1" fill-opacity="0" stroke="#4b3a14" stroke-width="4" stroke-opacity="1"></use></g></g></g></g><g><use xlink:href="#d241umf13N" opacity="1" fill="#81c972" fill-opacity="1"></use></g><g><g><use xlink:href="#fw9sbKTbI" opacity="1" fill="#626669" fill-opacity="1"></use></g><g><g><use xlink:href="#f2yGQUs2ls" opacity="1" fill="#f0c61b" fill-opacity="1"></use></g><g><use xlink:href="#aCcxiRe8Z" opacity="1" fill="#483910" fill-opacity="1"></use><g><use xlink:href="#aCcxiRe8Z" opacity="1" fill-opacity="0" stroke="#855e42" stroke-width="2" stroke-opacity="1"></use></g></g><g><g><use xlink:href="#jARyfvF5" opacity="1" fill-opacity="0" stroke="#855e42" stroke-width="2" stroke-opacity="1"></use></g></g><g><g><use xlink:href="#a4i8cVOPP" opacity="1" fill-opacity="0" stroke="#855e42" stroke-width="2" stroke-opacity="1"></use></g></g><g><g><use xlink:href="#caDgsUWbZ" opacity="1" fill-opacity="0" stroke="#4b3a14" stroke-width="4" stroke-opacity="1"></use></g></g></g></g><g><g><use xlink:href="#e9RpFpmdO" opacity="1" fill="#626669" fill-opacity="1"></use></g><g><g><use xlink:href="#c8wS5IbBJM" opacity="1" fill="#346f1c" fill-opacity="1"></use></g><g><use xlink:href="#e2smDzFP8b" opacity="1" fill="#483910" fill-opacity="1"></use><g><use xlink:href="#e2smDzFP8b" opacity="1" fill-opacity="0" stroke="#855e42" stroke-width="2" stroke-opacity="1"></use></g></g><g><g><use xlink:href="#iGFfgWK2V" opacity="1" fill-opacity="0" stroke="#855e42" stroke-width="2" stroke-opacity="1"></use></g></g><g><g><use xlink:href="#aEoYrQj6r" opacity="1" fill-opacity="0" stroke="#855e42" stroke-width="2" stroke-opacity="1"></use></g></g><g><g><use xlink:href="#a7dFfI3z2" opacity="1" fill-opacity="0" stroke="#4b3a14" stroke-width="4" stroke-opacity="1"></use></g></g></g></g><g><g><use xlink:href="#b3OXmgduz" opacity="1" fill="#626669" fill-opacity="1"></use></g><g><g><use xlink:href="#c3RYGJ3Ny" opacity="1" fill="#c26c86" fill-opacity="1"></use></g><g><use xlink:href="#d9fN3kPQ7" opacity="1" fill="#483910" fill-opacity="1"></use><g><use xlink:href="#d9fN3kPQ7" opacity="1" fill-opacity="0" stroke="#855e42" stroke-width="2" stroke-opacity="1"></use></g></g><g><g><use xlink:href="#d3Iendboj6" opacity="1" fill-opacity="0" stroke="#855e42" stroke-width="2" stroke-opacity="1"></use></g></g><g><g><use xlink:href="#a4AYXltnUR" opacity="1" fill-opacity="0" stroke="#855e42" stroke-width="2" stroke-opacity="1"></use></g></g><g><g><use xlink:href="#c1jLwzVM43" opacity="1" fill-opacity="0" stroke="#4b3a14" stroke-width="4" stroke-opacity="1"></use></g></g></g></g><g><use xlink:href="#ccjQzhPq2" opacity="1" fill="#ffffff" fill-opacity="1"></use></g><g><g><use xlink:href="#ayWubh35U" opacity="1" fill="#626669" fill-opacity="1"></use></g><g><g><use xlink:href="#a15kuaKGe9" opacity="1" fill="#c26c86" fill-opacity="1"></use></g><g><use xlink:href="#a1RioEjdVA" opacity="1" fill="#483910" fill-opacity="1"></use><g><use xlink:href="#a1RioEjdVA" opacity="1" fill-opacity="0" stroke="#855e42" stroke-width="2" stroke-opacity="1"></use></g></g><g><g><use xlink:href="#d3JL18yiir" opacity="1" fill-opacity="0" stroke="#855e42" stroke-width="2" stroke-opacity="1"></use></g></g><g><g><use xlink:href="#diBBee7qJ" opacity="1" fill-opacity="0" stroke="#855e42" stroke-width="2" stroke-opacity="1"></use></g></g><g><g><use xlink:href="#d215wFohJq" opacity="1" fill-opacity="0" stroke="#4b3a14" stroke-width="4" stroke-opacity="1"></use></g></g></g></g><g><use xlink:href="#b4YrrhGTnT" opacity="1" fill="#ffffff" fill-opacity="1"></use></g><g><g><g></g></g><g><g><g><use xlink:href="#b2bBvvNDer" opacity="1" fill="#41380d" fill-opacity="1"></use></g><g><use xlink:href="#g3W9EqQMaV" opacity="1" fill="#eae9e2" fill-opacity="1"></use></g><g><use xlink:href="#d2dJ3BrJtn" opacity="1" fill="#eae9e4" fill-opacity="1"></use></g><g><use xlink:href="#b2hl1gHvBw" opacity="1" fill="#eae9e4" fill-opacity="1"></use></g><g><use xlink:href="#aLwHLAXKp" opacity="1" fill="#eae9e4" fill-opacity="1"></use></g><g><use xlink:href="#a3oJgBImee" opacity="1" fill="#eae9e4" fill-opacity="1"></use></g><g><use xlink:href="#k8efkvGHUD" opacity="1" fill="#eae9e2" fill-opacity="1"></use></g><g><use xlink:href="#ggri9KO6A" opacity="1" fill="#ffffff" fill-opacity="1"></use></g><g><use xlink:href="#aTLYDgQrZ" opacity="1" fill="#ffffff" fill-opacity="1"></use></g><g><use xlink:href="#a4Jutcv1Ty" opacity="1" fill="#ffffff" fill-opacity="1"></use></g><g><use xlink:href="#a5glnQx9km" opacity="1" fill="#ffffff" fill-opacity="1"></use></g><g><use xlink:href="#b2wquOUEdj" opacity="1" fill="#ffffff" fill-opacity="1"></use></g><g><use xlink:href="#c2jajSmCJ6" opacity="1" fill="#ffffff" fill-opacity="1"></use></g><g><use xlink:href="#az64NxMNX" opacity="1" fill="#ffffff" fill-opacity="1"></use></g><g><use xlink:href="#g5Q74Cf2VM" opacity="1" fill="#5f77c5" fill-opacity="1"></use></g><g><use xlink:href="#boTq53c80" opacity="1" fill="#ffffff" fill-opacity="1"></use></g><g><use xlink:href="#f31Q10tBNo" opacity="1" fill="#a83737" fill-opacity="1"></use></g><g><use xlink:href="#b6eH47YHLg" opacity="1" fill="#a83737" fill-opacity="1"></use></g><g><use xlink:href="#a5qomVl2E" opacity="1" fill="#319b44" fill-opacity="1"></use></g><g><use xlink:href="#bbJzOt1E9" opacity="1" fill="#319b44" fill-opacity="1"></use></g><g><use xlink:href="#h1M5Rq4m7E" opacity="1" fill="#319b44" fill-opacity="1"></use></g><g><use xlink:href="#bYnAgGglJ" opacity="1" fill="#81c972" fill-opacity="1"></use></g><g><use xlink:href="#b1E53wOtry" opacity="1" fill="#81c972" fill-opacity="1"></use></g><g><use xlink:href="#h6scC9pbyC" opacity="1" fill="#319b44" fill-opacity="1"></use></g><g><use xlink:href="#bKxkwa2fm" opacity="1" fill="#5f77c5" fill-opacity="1"></use></g><g><use xlink:href="#a78ZI7Qdi" opacity="1" fill="#5f77c5" fill-opacity="1"></use></g><g><use xlink:href="#cf35TjyEz" opacity="1" fill="#5f77c5" fill-opacity="1"></use></g><g><use xlink:href="#b6rxcQrWH" opacity="1" fill="#2e6ce4" fill-opacity="1"></use></g><g><use xlink:href="#aj05HL2Dd" opacity="1" fill="#2e6ce4" fill-opacity="1"></use></g><g><use xlink:href="#a2dPV61C4F" opacity="1" fill="#2e6ce4" fill-opacity="1"></use></g><g><use xlink:href="#ahfKJr0C7" opacity="1" fill="#2e6ce4" fill-opacity="1"></use></g><g><use xlink:href="#aiFlHAnpa" opacity="1" fill="#2e6ce4" fill-opacity="1"></use></g><g><use xlink:href="#c3HDm9BCXn" opacity="1" fill="#2e6ce4" fill-opacity="1"></use><g><use xlink:href="#c3HDm9BCXn" opacity="1" fill-opacity="0" stroke="#12070a" stroke-width="2" stroke-opacity="1"></use></g></g><g><use xlink:href="#ajy82esVf" opacity="1" fill="#f2e51a" fill-opacity="1"></use></g><g><use xlink:href="#beCprT392" opacity="1" fill="#f2e51a" fill-opacity="1"></use></g><g><use xlink:href="#b8tKrBor" opacity="1" fill="#f2e51a" fill-opacity="1"></use></g><g><use xlink:href="#d6BetrGyL" opacity="1" fill="#f2e51a" fill-opacity="1"></use></g><g><use xlink:href="#dbYjYiQsf" opacity="1" fill="#81c972" fill-opacity="1"></use></g><g><use xlink:href="#c2Zhw7qtMd" opacity="1" fill="#f99d03" fill-opacity="1"></use></g><g><use xlink:href="#h1Hafr2bYX" opacity="1" fill="#f99d03" fill-opacity="1"></use></g><g><use xlink:href="#bhGKo3Lw0" opacity="1" fill="#f99d03" fill-opacity="1"></use></g><g><use xlink:href="#aqqywBaNh" opacity="1" fill="#c59f5f" fill-opacity="1"></use></g><g><use xlink:href="#jbpX25XQ" opacity="1" fill="#c59f5f" fill-opacity="1"></use></g><g><use xlink:href="#c1iN3snWYo" opacity="1" fill="#c60909" fill-opacity="1"></use></g><g><use xlink:href="#aK7YdwRHh" opacity="1" fill="#0919ba" fill-opacity="1"></use></g><g><use xlink:href="#a4ZaVB7R8s" opacity="1" fill="#195c2e" fill-opacity="1"></use></g><g><use xlink:href="#glCn6mqLg" opacity="1" fill="#c60909" fill-opacity="1"></use></g><g><use xlink:href="#a32TjC9Dr1" opacity="1" fill="#0919ba" fill-opacity="1"></use></g><g><use xlink:href="#j1lpS8w1g8" opacity="1" fill="#54ba09" fill-opacity="1"></use></g><g><use xlink:href="#b1Oxh6yiYs" opacity="1" fill="#54ba09" fill-opacity="1"></use></g><g><use xlink:href="#e2aJD8fFCP" opacity="1" fill="#0919ba" fill-opacity="1"></use></g><g><use xlink:href="#c33hEkBZ8p" opacity="1" fill="#ed1253" fill-opacity="1"></use></g><g><use xlink:href="#cwhJ4xUhY" opacity="1" fill="#f6f221" fill-opacity="1"></use></g></g><g><use xlink:href="#a2YradExjG" opacity="1" fill="#f99d03" fill-opacity="1"></use></g></g><g><use xlink:href="#cacFR1alu" opacity="1" fill="#f99d03" fill-opacity="1"></use></g><g><use xlink:href="#b1g176kDIl" opacity="1" fill="#eae9e2" fill-opacity="1"></use></g><g><use xlink:href="#cbRvbtj6k" opacity="1" fill="#ed1253" fill-opacity="1"></use></g><g><use xlink:href="#agMa8uLpj" opacity="1" fill="#319b44" fill-opacity="1"></use></g><g><use xlink:href="#aVCvGr03i" opacity="1" fill="#c59f5f" fill-opacity="1"></use></g><g><use xlink:href="#aWwMM1u1l" opacity="1" fill="#54ba09" fill-opacity="1"></use></g><g><g><use xlink:href="#aKYI0t3o1" opacity="1" fill="#41380d" fill-opacity="1"></use></g><g><use xlink:href="#bZcffUJMD" opacity="1" fill="#eae9e2" fill-opacity="1"></use></g><g><use xlink:href="#b4MaVLXW5I" opacity="1" fill="#eae9e4" fill-opacity="1"></use></g><g><use xlink:href="#c9zfheVHo1" opacity="1" fill="#eae9e4" fill-opacity="1"></use></g><g><use xlink:href="#c6vXshUX2q" opacity="1" fill="#eae9e4" fill-opacity="1"></use></g><g><use xlink:href="#a1UKzvXYcg" opacity="1" fill="#eae9e4" fill-opacity="1"></use></g><g><use xlink:href="#bk1m4ZpnG" opacity="1" fill="#eae9e2" fill-opacity="1"></use></g><g><use xlink:href="#a3ovo7xE4" opacity="1" fill="#ffffff" fill-opacity="1"></use></g><g><use xlink:href="#d5n38IYCwP" opacity="1" fill="#ffffff" fill-opacity="1"></use></g><g><use xlink:href="#b1QkXEG7me" opacity="1" fill="#ffffff" fill-opacity="1"></use></g><g><use xlink:href="#bbrZNiVsbI" opacity="1" fill="#319b44" fill-opacity="1"></use></g><g><use xlink:href="#d1gPrHzh7V" opacity="1" fill="#ffffff" fill-opacity="1"></use></g><g><use xlink:href="#a1ZtLxQlt8" opacity="1" fill="#ffffff" fill-opacity="1"></use></g><g><use xlink:href="#b5wCoCmyRO" opacity="1" fill="#ffffff" fill-opacity="1"></use></g><g><use xlink:href="#aqGuudWgW" opacity="1" fill="#ffffff" fill-opacity="1"></use></g><g><use xlink:href="#e5Gh1LvRve" opacity="1" fill="#5f77c5" fill-opacity="1"></use></g><g><use xlink:href="#i15SeCmzBb" opacity="1" fill="#ffffff" fill-opacity="1"></use></g><g><use xlink:href="#aaXl2PApq" opacity="1" fill="#a83737" fill-opacity="1"></use></g><g><use xlink:href="#bf1Ezgiy9" opacity="1" fill="#a83737" fill-opacity="1"></use></g><g><use xlink:href="#a1oJPBR5Fl" opacity="1" fill="#319b44" fill-opacity="1"></use></g><g><use xlink:href="#d11Sz7hN7a" opacity="1" fill="#319b44" fill-opacity="1"></use></g><g><use xlink:href="#m2Dr6eWky2" opacity="1" fill="#81c972" fill-opacity="1"></use></g><g><use xlink:href="#d9WujkUkEs" opacity="1" fill="#319b44" fill-opacity="1"></use></g><g><use xlink:href="#baoBQ7EF63" opacity="1" fill="#5f77c5" fill-opacity="1"></use></g><g><use xlink:href="#aPoKThGTV" opacity="1" fill="#5f77c5" fill-opacity="1"></use></g><g><use xlink:href="#a1IU3xyZD" opacity="1" fill="#5f77c5" fill-opacity="1"></use></g><g><use xlink:href="#b1YFzybF9T" opacity="1" fill="#2e6ce4" fill-opacity="1"></use></g><g><use xlink:href="#dfFOCnDGi" opacity="1" fill="#2e6ce4" fill-opacity="1"></use></g><g><use xlink:href="#h192KXa7Iy" opacity="1" fill="#2e6ce4" fill-opacity="1"></use></g><g><use xlink:href="#cvMWVnkl2" opacity="1" fill="#2e6ce4" fill-opacity="1"></use></g><g><use xlink:href="#aBKg7uMe" opacity="1" fill="#2e6ce4" fill-opacity="1"></use></g><g><use xlink:href="#b1MElqV0AI" opacity="1" fill="#2e6ce4" fill-opacity="1"></use><g><use xlink:href="#b1MElqV0AI" opacity="1" fill-opacity="0" stroke="#12070a" stroke-width="2" stroke-opacity="1"></use></g></g><g><use xlink:href="#ac5yCifk2" opacity="1" fill="#f2e51a" fill-opacity="1"></use></g><g><use xlink:href="#bhE8VeY0v" opacity="1" fill="#f2e51a" fill-opacity="1"></use></g><g><use xlink:href="#a3ubK5xuAa" opacity="1" fill="#f2e51a" fill-opacity="1"></use></g><g><use xlink:href="#a5u20cLKlB" opacity="1" fill="#f2e51a" fill-opacity="1"></use></g><g><use xlink:href="#dBnct68aN" opacity="1" fill="#81c972" fill-opacity="1"></use></g><g><use xlink:href="#b4UVV2a5Iw" opacity="1" fill="#f99d03" fill-opacity="1"></use></g><g><use xlink:href="#b9F8F8qUJ" opacity="1" fill="#f99d03" fill-opacity="1"></use></g><g><use xlink:href="#deWeW0huh" opacity="1" fill="#f99d03" fill-opacity="1"></use></g><g><use xlink:href="#aH8fUUUzs" opacity="1" fill="#c59f5f" fill-opacity="1"></use></g><g><use xlink:href="#d45S6YFVxp" opacity="1" fill="#c59f5f" fill-opacity="1"></use></g><g><use xlink:href="#dbMaiFh0J" opacity="1" fill="#c60909" fill-opacity="1"></use></g><g><use xlink:href="#cgQgjAU05" opacity="1" fill="#0919ba" fill-opacity="1"></use></g><g><use xlink:href="#a2NFT41fE" opacity="1" fill="#195c2e" fill-opacity="1"></use></g><g><use xlink:href="#c6DkOI9vu" opacity="1" fill="#c60909" fill-opacity="1"></use></g><g><use xlink:href="#g1G8DPjlrT" opacity="1" fill="#0919ba" fill-opacity="1"></use></g><g><use xlink:href="#b2uTBgKT7W" opacity="1" fill="#54ba09" fill-opacity="1"></use></g><g><use xlink:href="#b31MiP6Q4L" opacity="1" fill="#54ba09" fill-opacity="1"></use></g><g><use xlink:href="#aidIGELlv" opacity="1" fill="#0919ba" fill-opacity="1"></use></g><g><use xlink:href="#du6yltOOV" opacity="1" fill="#ed1253" fill-opacity="1"></use></g><g><use xlink:href="#h12IqcnYYZ" opacity="1" fill="#f6f221" fill-opacity="1"></use></g></g><g><use xlink:href="#b7XtE76mn" opacity="1" fill="#f99d03" fill-opacity="1"></use></g><g><use xlink:href="#cjn0uKzSr" opacity="1" fill="#81c972" fill-opacity="1"></use></g><g><use xlink:href="#b3S44PHlRY" opacity="1" fill="#9d6055" fill-opacity="1"></use></g></g><g><g><use xlink:href="#c1uDwY0Mbz" opacity="1" fill="#626669" fill-opacity="1"></use></g><g><g><use xlink:href="#avJslzZkd" opacity="1" fill="#346f1c" fill-opacity="1"></use></g><g><use xlink:href="#d1E9Vf2xdo" opacity="1" fill="#483910" fill-opacity="1"></use><g><use xlink:href="#d1E9Vf2xdo" opacity="1" fill-opacity="0" stroke="#855e42" stroke-width="2" stroke-opacity="1"></use></g></g><g><g><use xlink:href="#d4S81WEL5R" opacity="1" fill-opacity="0" stroke="#855e42" stroke-width="2" stroke-opacity="1"></use></g></g><g><g><use xlink:href="#idGaRd9Pm" opacity="1" fill-opacity="0" stroke="#855e42" stroke-width="2" stroke-opacity="1"></use></g></g><g><g><use xlink:href="#a42sjwjdCD" opacity="1" fill-opacity="0" stroke="#4b3a14" stroke-width="4" stroke-opacity="1"></use></g></g></g></g><g><g><use xlink:href="#bHP7stPLX" opacity="1" fill="#626669" fill-opacity="1"></use></g><g><g><use xlink:href="#c2qu5DZ92t" opacity="1" fill="#c26c86" fill-opacity="1"></use></g><g><use xlink:href="#jwQrCFD0H" opacity="1" fill="#483910" fill-opacity="1"></use><g><use xlink:href="#jwQrCFD0H" opacity="1" fill-opacity="0" stroke="#855e42" stroke-width="2" stroke-opacity="1"></use></g></g><g><g><use xlink:href="#a99NlPTJ6" opacity="1" fill-opacity="0" stroke="#855e42" stroke-width="2" stroke-opacity="1"></use></g></g><g><g><use xlink:href="#ciTiHbKVw" opacity="1" fill-opacity="0" stroke="#855e42" stroke-width="2" stroke-opacity="1"></use></g></g><g><g><use xlink:href="#a4U3AjXvl" opacity="1" fill-opacity="0" stroke="#4b3a14" stroke-width="4" stroke-opacity="1"></use></g></g></g></g><g><g><use xlink:href="#d29jlvv2jl" opacity="1" fill="#626669" fill-opacity="1"></use></g><g><g><use xlink:href="#hamAQVKic" opacity="1" fill="#f0891b" fill-opacity="1"></use></g><g><use xlink:href="#b3taDv4faQ" opacity="1" fill="#483910" fill-opacity="1"></use><g><use xlink:href="#b3taDv4faQ" opacity="1" fill-opacity="0" stroke="#855e42" stroke-width="2" stroke-opacity="1"></use></g></g><g><g><use xlink:href="#a1r63AaqBg" opacity="1" fill-opacity="0" stroke="#855e42" stroke-width="2" stroke-opacity="1"></use></g></g><g><g><use xlink:href="#b2b3gxnhIg" opacity="1" fill-opacity="0" stroke="#855e42" stroke-width="2" stroke-opacity="1"></use></g></g><g><g><use xlink:href="#aZHSeDFVf" opacity="1" fill-opacity="0" stroke="#4b3a14" stroke-width="4" stroke-opacity="1"></use></g></g></g></g><g><g><use xlink:href="#eKTJBsugJ" opacity="1" fill="#626669" fill-opacity="1"></use></g><g><g><use xlink:href="#i116whw7av" opacity="1" fill="#346f1c" fill-opacity="1"></use></g><g><use xlink:href="#ajdcyPIER" opacity="1" fill="#483910" fill-opacity="1"></use><g><use xlink:href="#ajdcyPIER" opacity="1" fill-opacity="0" stroke="#855e42" stroke-width="2" stroke-opacity="1"></use></g></g><g><g><use xlink:href="#aE7CIvUk6" opacity="1" fill-opacity="0" stroke="#855e42" stroke-width="2" stroke-opacity="1"></use></g></g><g><g><use xlink:href="#k5G9zH1wdw" opacity="1" fill-opacity="0" stroke="#855e42" stroke-width="2" stroke-opacity="1"></use></g></g><g><g><use xlink:href="#boCCbLCzD" opacity="1" fill-opacity="0" stroke="#4b3a14" stroke-width="4" stroke-opacity="1"></use></g></g></g></g><g><g><use xlink:href="#afxW2umiE" opacity="1" fill="#626669" fill-opacity="1"></use></g><g><g><use xlink:href="#b1eI0XLs9K" opacity="1" fill="#c26c86" fill-opacity="1"></use></g><g><use xlink:href="#a1irFXszYa" opacity="1" fill="#483910" fill-opacity="1"></use><g><use xlink:href="#a1irFXszYa" opacity="1" fill-opacity="0" stroke="#855e42" stroke-width="2" stroke-opacity="1"></use></g></g><g><g><use xlink:href="#esFWIZP87" opacity="1" fill-opacity="0" stroke="#855e42" stroke-width="2" stroke-opacity="1"></use></g></g><g><g><use xlink:href="#b1QfhlXuW" opacity="1" fill-opacity="0" stroke="#855e42" stroke-width="2" stroke-opacity="1"></use></g></g><g><g><use xlink:href="#b5FO7UDch" opacity="1" fill-opacity="0" stroke="#4b3a14" stroke-width="4" stroke-opacity="1"></use></g></g></g></g><g><g><use xlink:href="#bieHtYQn" opacity="1" fill="#626669" fill-opacity="1"></use></g><g><g><use xlink:href="#ckSFzNCMe" opacity="1" fill="#346f1c" fill-opacity="1"></use></g><g><use xlink:href="#a1KZNzkBIg" opacity="1" fill="#483910" fill-opacity="1"></use><g><use xlink:href="#a1KZNzkBIg" opacity="1" fill-opacity="0" stroke="#855e42" stroke-width="2" stroke-opacity="1"></use></g></g><g><g><use xlink:href="#b6ONi0XKgt" opacity="1" fill-opacity="0" stroke="#855e42" stroke-width="2" stroke-opacity="1"></use></g></g><g><g><use xlink:href="#ct7s8wgtx" opacity="1" fill-opacity="0" stroke="#855e42" stroke-width="2" stroke-opacity="1"></use></g></g><g><g><use xlink:href="#iUZ7l2RNx" opacity="1" fill-opacity="0" stroke="#4b3a14" stroke-width="4" stroke-opacity="1"></use></g></g></g></g><g><g><use xlink:href="#barDFQUGe" opacity="1" fill="#626669" fill-opacity="1"></use></g><g><g><use xlink:href="#g3VW5sDhH" opacity="1" fill="#f0c61b" fill-opacity="1"></use></g><g><use xlink:href="#bR1j8KDzN" opacity="1" fill="#483910" fill-opacity="1"></use><g><use xlink:href="#bR1j8KDzN" opacity="1" fill-opacity="0" stroke="#855e42" stroke-width="2" stroke-opacity="1"></use></g></g><g><g><use xlink:href="#d8ctk5FHd" opacity="1" fill-opacity="0" stroke="#855e42" stroke-width="2" stroke-opacity="1"></use></g></g><g><g><use xlink:href="#a2KFDbeDJA" opacity="1" fill-opacity="0" stroke="#855e42" stroke-width="2" stroke-opacity="1"></use></g></g><g><g><use xlink:href="#a36sB7JqG" opacity="1" fill-opacity="0" stroke="#4b3a14" stroke-width="4" stroke-opacity="1"></use></g></g></g></g><g><g><g></g></g><g><g><g><use xlink:href="#b2ILiXyZYO" opacity="1" fill="#41380d" fill-opacity="1"></use></g><g><use xlink:href="#aaqneqYOK" opacity="1" fill="#eae9e2" fill-opacity="1"></use></g><g><use xlink:href="#a3pvGPUyJC" opacity="1" fill="#eae9e4" fill-opacity="1"></use></g><g><use xlink:href="#b3ZRM1frd" opacity="1" fill="#eae9e4" fill-opacity="1"></use></g><g><use xlink:href="#c1Kns8nKCI" opacity="1" fill="#eae9e4" fill-opacity="1"></use></g><g><use xlink:href="#azvavc7d3" opacity="1" fill="#eae9e4" fill-opacity="1"></use></g><g><use xlink:href="#bppMEcr0b" opacity="1" fill="#eae9e2" fill-opacity="1"></use></g><g><use xlink:href="#e22Htr4Kqw" opacity="1" fill="#ffffff" fill-opacity="1"></use></g><g><use xlink:href="#aqLOvrCLr" opacity="1" fill="#ffffff" fill-opacity="1"></use></g><g><use xlink:href="#c4tbT67eA" opacity="1" fill="#ffffff" fill-opacity="1"></use></g><g><use xlink:href="#a1Zi7OjKfP" opacity="1" fill="#ffffff" fill-opacity="1"></use></g><g><use xlink:href="#b3MSp2IZ6m" opacity="1" fill="#ffffff" fill-opacity="1"></use></g><g><use xlink:href="#bXibZsf6V" opacity="1" fill="#ffffff" fill-opacity="1"></use></g><g><use xlink:href="#b62HTSSC5" opacity="1" fill="#ffffff" fill-opacity="1"></use></g><g><use xlink:href="#d5e7OzLQaD" opacity="1" fill="#5f77c5" fill-opacity="1"></use></g><g><use xlink:href="#amfSQGveA" opacity="1" fill="#ffffff" fill-opacity="1"></use></g><g><use xlink:href="#b5YFg37eb" opacity="1" fill="#a83737" fill-opacity="1"></use></g><g><use xlink:href="#h5goGSbnc" opacity="1" fill="#a83737" fill-opacity="1"></use></g><g><use xlink:href="#dF8FvigZh" opacity="1" fill="#319b44" fill-opacity="1"></use></g><g><use xlink:href="#g1k2QmEyFf" opacity="1" fill="#319b44" fill-opacity="1"></use></g><g><use xlink:href="#hCUoKZn" opacity="1" fill="#319b44" fill-opacity="1"></use></g><g><use xlink:href="#b6PRNIHriF" opacity="1" fill="#81c972" fill-opacity="1"></use></g><g><use xlink:href="#a1csL2VWT7" opacity="1" fill="#81c972" fill-opacity="1"></use></g><g><use xlink:href="#csnALfARk" opacity="1" fill="#319b44" fill-opacity="1"></use></g><g><use xlink:href="#a1UbkcJqG" opacity="1" fill="#5f77c5" fill-opacity="1"></use></g><g><use xlink:href="#a2f3Q5sEd8" opacity="1" fill="#5f77c5" fill-opacity="1"></use></g><g><use xlink:href="#a6TWgUgSVi" opacity="1" fill="#5f77c5" fill-opacity="1"></use></g><g><use xlink:href="#c2MgFF2FiU" opacity="1" fill="#2e6ce4" fill-opacity="1"></use></g><g><use xlink:href="#a7aNqLqcW" opacity="1" fill="#2e6ce4" fill-opacity="1"></use></g><g><use xlink:href="#a1pxCsoS8G" opacity="1" fill="#2e6ce4" fill-opacity="1"></use></g><g><use xlink:href="#b39887iepD" opacity="1" fill="#2e6ce4" fill-opacity="1"></use></g><g><use xlink:href="#eCVWj5Xq2" opacity="1" fill="#2e6ce4" fill-opacity="1"></use></g><g><use xlink:href="#d7sT6ngl44" opacity="1" fill="#2e6ce4" fill-opacity="1"></use><g><use xlink:href="#d7sT6ngl44" opacity="1" fill-opacity="0" stroke="#12070a" stroke-width="2" stroke-opacity="1"></use></g></g><g><use xlink:href="#dnDcDJGDT" opacity="1" fill="#f2e51a" fill-opacity="1"></use></g><g><use xlink:href="#a1tEpfSyXQ" opacity="1" fill="#f2e51a" fill-opacity="1"></use></g><g><use xlink:href="#a14UFWsXbJ" opacity="1" fill="#f2e51a" fill-opacity="1"></use></g><g><use xlink:href="#d4GV323J5B" opacity="1" fill="#f2e51a" fill-opacity="1"></use></g><g><use xlink:href="#d281RUOGPd" opacity="1" fill="#81c972" fill-opacity="1"></use></g><g><use xlink:href="#bnn1zSjyg" opacity="1" fill="#f99d03" fill-opacity="1"></use></g><g><use xlink:href="#dQgwjNYHh" opacity="1" fill="#f99d03" fill-opacity="1"></use></g><g><use xlink:href="#a2DK86VLVy" opacity="1" fill="#f99d03" fill-opacity="1"></use></g><g><use xlink:href="#dfRHrNJtS" opacity="1" fill="#c59f5f" fill-opacity="1"></use></g><g><use xlink:href="#b2IgiIH1zm" opacity="1" fill="#c59f5f" fill-opacity="1"></use></g><g><use xlink:href="#b2axHAuRij" opacity="1" fill="#c60909" fill-opacity="1"></use></g><g><use xlink:href="#e11qHYwiO" opacity="1" fill="#0919ba" fill-opacity="1"></use></g><g><use xlink:href="#i1ytdOlw9l" opacity="1" fill="#195c2e" fill-opacity="1"></use></g><g><use xlink:href="#kkjW2iSqc" opacity="1" fill="#c60909" fill-opacity="1"></use></g><g><use xlink:href="#e5ZekI4IE" opacity="1" fill="#0919ba" fill-opacity="1"></use></g><g><use xlink:href="#a28gF2NEd8" opacity="1" fill="#54ba09" fill-opacity="1"></use></g><g><use xlink:href="#c2ysFxJZ27" opacity="1" fill="#54ba09" fill-opacity="1"></use></g><g><use xlink:href="#asL2AZSSi" opacity="1" fill="#0919ba" fill-opacity="1"></use></g><g><use xlink:href="#bvb4vS9Rf" opacity="1" fill="#ed1253" fill-opacity="1"></use></g><g><use xlink:href="#c4IW3PD4GC" opacity="1" fill="#f6f221" fill-opacity="1"></use></g></g><g><use xlink:href="#hIcH3NuzT" opacity="1" fill="#f99d03" fill-opacity="1"></use></g></g><g><use xlink:href="#c7CWX3aK2" opacity="1" fill="#f99d03" fill-opacity="1"></use></g><g><use xlink:href="#f484fri3Xx" opacity="1" fill="#eae9e2" fill-opacity="1"></use></g><g><use xlink:href="#f66KiYEJ1S" opacity="1" fill="#ed1253" fill-opacity="1"></use></g><g><use xlink:href="#a2n4iqsyHY" opacity="1" fill="#319b44" fill-opacity="1"></use></g><g><use xlink:href="#b8Xv4QRSx" opacity="1" fill="#c59f5f" fill-opacity="1"></use></g><g><use xlink:href="#g1X5yqwpCW" opacity="1" fill="#54ba09" fill-opacity="1"></use></g><g><g><use xlink:href="#h4mdnySGJ" opacity="1" fill="#41380d" fill-opacity="1"></use></g><g><use xlink:href="#b18TGsmTX8" opacity="1" fill="#eae9e2" fill-opacity="1"></use></g><g><use xlink:href="#dDfCgqTR4" opacity="1" fill="#eae9e4" fill-opacity="1"></use></g><g><use xlink:href="#a4Zyk2ZTww" opacity="1" fill="#eae9e4" fill-opacity="1"></use></g><g><use xlink:href="#b2f1cZF2aJ" opacity="1" fill="#eae9e4" fill-opacity="1"></use></g><g><use xlink:href="#a3DDX6gP3X" opacity="1" fill="#eae9e4" fill-opacity="1"></use></g><g><use xlink:href="#a1XdAKZPqo" opacity="1" fill="#eae9e2" fill-opacity="1"></use></g><g><use xlink:href="#b7fYAc7uHF" opacity="1" fill="#ffffff" fill-opacity="1"></use></g><g><use xlink:href="#a72J36mcK" opacity="1" fill="#ffffff" fill-opacity="1"></use></g><g><use xlink:href="#b2zmwmKwFu" opacity="1" fill="#ffffff" fill-opacity="1"></use></g><g><use xlink:href="#b6isHi1mp" opacity="1" fill="#319b44" fill-opacity="1"></use></g><g><use xlink:href="#a3ed6Yc3k" opacity="1" fill="#ffffff" fill-opacity="1"></use></g><g><use xlink:href="#ae0Ldpkhf" opacity="1" fill="#ffffff" fill-opacity="1"></use></g><g><use xlink:href="#bEoz4Fiy1" opacity="1" fill="#ffffff" fill-opacity="1"></use></g><g><use xlink:href="#a1a3LZ7N5y" opacity="1" fill="#ffffff" fill-opacity="1"></use></g><g><use xlink:href="#brQqfKDfy" opacity="1" fill="#5f77c5" fill-opacity="1"></use></g><g><use xlink:href="#a5mnH6zdi8" opacity="1" fill="#ffffff" fill-opacity="1"></use></g><g><use xlink:href="#a2Gi2RXp2V" opacity="1" fill="#a83737" fill-opacity="1"></use></g><g><use xlink:href="#aepZSlBV" opacity="1" fill="#a83737" fill-opacity="1"></use></g><g><use xlink:href="#a8C6LsXNJ" opacity="1" fill="#319b44" fill-opacity="1"></use></g><g><use xlink:href="#d6YfBNxbn" opacity="1" fill="#319b44" fill-opacity="1"></use></g><g><use xlink:href="#l1NSeyoA5x" opacity="1" fill="#81c972" fill-opacity="1"></use></g><g><use xlink:href="#a7kVSQ5rC" opacity="1" fill="#319b44" fill-opacity="1"></use></g><g><use xlink:href="#b57jqtDp0" opacity="1" fill="#5f77c5" fill-opacity="1"></use></g><g><use xlink:href="#a3rzYqyxR9" opacity="1" fill="#5f77c5" fill-opacity="1"></use></g><g><use xlink:href="#bhYv2mUiT" opacity="1" fill="#5f77c5" fill-opacity="1"></use></g><g><use xlink:href="#b2XmawRnjb" opacity="1" fill="#2e6ce4" fill-opacity="1"></use></g><g><use xlink:href="#a2Db20yIzp" opacity="1" fill="#2e6ce4" fill-opacity="1"></use></g><g><use xlink:href="#dMOPkd2I2" opacity="1" fill="#2e6ce4" fill-opacity="1"></use></g><g><use xlink:href="#dgktrCgTG" opacity="1" fill="#2e6ce4" fill-opacity="1"></use></g><g><use xlink:href="#c1dsD4z8z3" opacity="1" fill="#2e6ce4" fill-opacity="1"></use></g><g><use xlink:href="#c8J1dOaxO" opacity="1" fill="#2e6ce4" fill-opacity="1"></use><g><use xlink:href="#c8J1dOaxO" opacity="1" fill-opacity="0" stroke="#12070a" stroke-width="2" stroke-opacity="1"></use></g></g><g><use xlink:href="#a2pBJlFcg" opacity="1" fill="#f2e51a" fill-opacity="1"></use></g><g><use xlink:href="#m5YShUhSbK" opacity="1" fill="#f2e51a" fill-opacity="1"></use></g><g><use xlink:href="#cE83HrCxe" opacity="1" fill="#f2e51a" fill-opacity="1"></use></g><g><use xlink:href="#icU74k9QV" opacity="1" fill="#f2e51a" fill-opacity="1"></use></g><g><use xlink:href="#dJwUw02JX" opacity="1" fill="#81c972" fill-opacity="1"></use></g><g><use xlink:href="#dzHMyw3At" opacity="1" fill="#f99d03" fill-opacity="1"></use></g><g><use xlink:href="#a4lObilX8b" opacity="1" fill="#f99d03" fill-opacity="1"></use></g><g><use xlink:href="#c9hxngtNk" opacity="1" fill="#f99d03" fill-opacity="1"></use></g><g><use xlink:href="#c1JwD7dIsc" opacity="1" fill="#c59f5f" fill-opacity="1"></use></g><g><use xlink:href="#adGZzhkPT" opacity="1" fill="#c59f5f" fill-opacity="1"></use></g><g><use xlink:href="#a2t2Hd7LUh" opacity="1" fill="#c60909" fill-opacity="1"></use></g><g><use xlink:href="#fvdBQa0xZ" opacity="1" fill="#0919ba" fill-opacity="1"></use></g><g><use xlink:href="#a3VtGnPW7X" opacity="1" fill="#195c2e" fill-opacity="1"></use></g><g><use xlink:href="#a8cEPxCQm4" opacity="1" fill="#c60909" fill-opacity="1"></use></g><g><use xlink:href="#bjj3T4SeN" opacity="1" fill="#0919ba" fill-opacity="1"></use></g><g><use xlink:href="#b6TEdlMIMa" opacity="1" fill="#54ba09" fill-opacity="1"></use></g><g><use xlink:href="#aNuARQvKl" opacity="1" fill="#54ba09" fill-opacity="1"></use></g><g><use xlink:href="#e5GiYu65ge" opacity="1" fill="#0919ba" fill-opacity="1"></use></g><g><use xlink:href="#kmG65tyvw" opacity="1" fill="#ed1253" fill-opacity="1"></use></g><g><use xlink:href="#bzEkHz8Fi" opacity="1" fill="#f6f221" fill-opacity="1"></use></g></g><g><use xlink:href="#cYgk4fdDf" opacity="1" fill="#f99d03" fill-opacity="1"></use></g><g><use xlink:href="#f9st15xZz" opacity="1" fill="#81c972" fill-opacity="1"></use></g><g><use xlink:href="#c2IE9Mmbsc" opacity="1" fill="#9d6055" fill-opacity="1"></use></g></g><g><g><g></g></g><g><g><g><use xlink:href="#aDUzZo9bf" opacity="1" fill="#41380d" fill-opacity="1"></use></g><g><use xlink:href="#b7uGKYa75" opacity="1" fill="#eae9e2" fill-opacity="1"></use></g><g><use xlink:href="#i1SFs5Z61x" opacity="1" fill="#eae9e4" fill-opacity="1"></use></g><g><use xlink:href="#c1aBWORXjU" opacity="1" fill="#eae9e4" fill-opacity="1"></use></g><g><use xlink:href="#d2W1QPKVx" opacity="1" fill="#eae9e4" fill-opacity="1"></use></g><g><use xlink:href="#bzwLQcqK1" opacity="1" fill="#eae9e4" fill-opacity="1"></use></g><g><use xlink:href="#fyC9cykWJ" opacity="1" fill="#eae9e2" fill-opacity="1"></use></g><g><use xlink:href="#drpnEUsOl" opacity="1" fill="#ffffff" fill-opacity="1"></use></g><g><use xlink:href="#f1qR3jrItI" opacity="1" fill="#ffffff" fill-opacity="1"></use></g><g><use xlink:href="#a8BcDnGrl" opacity="1" fill="#ffffff" fill-opacity="1"></use></g><g><use xlink:href="#etDcwnBZG" opacity="1" fill="#ffffff" fill-opacity="1"></use></g><g><use xlink:href="#omfn3ufpf" opacity="1" fill="#ffffff" fill-opacity="1"></use></g><g><use xlink:href="#a1eWOYTuKz" opacity="1" fill="#ffffff" fill-opacity="1"></use></g><g><use xlink:href="#a4MqEJIe1V" opacity="1" fill="#ffffff" fill-opacity="1"></use></g><g><use xlink:href="#e6Wx5kWXsS" opacity="1" fill="#5f77c5" fill-opacity="1"></use></g><g><use xlink:href="#fsgPAlHtq" opacity="1" fill="#ffffff" fill-opacity="1"></use></g><g><use xlink:href="#geZlJLsIf" opacity="1" fill="#a83737" fill-opacity="1"></use></g><g><use xlink:href="#b1U2NFPjyi" opacity="1" fill="#a83737" fill-opacity="1"></use></g><g><use xlink:href="#eKKwCfLi" opacity="1" fill="#319b44" fill-opacity="1"></use></g><g><use xlink:href="#e11XhdSDCC" opacity="1" fill="#319b44" fill-opacity="1"></use></g><g><use xlink:href="#a2m9RgXnE8" opacity="1" fill="#319b44" fill-opacity="1"></use></g><g><use xlink:href="#a1rDENX15F" opacity="1" fill="#81c972" fill-opacity="1"></use></g><g><use xlink:href="#aahHHJYRh" opacity="1" fill="#81c972" fill-opacity="1"></use></g><g><use xlink:href="#bOLm9ydni" opacity="1" fill="#319b44" fill-opacity="1"></use></g><g><use xlink:href="#a2jTYQ0uFL" opacity="1" fill="#5f77c5" fill-opacity="1"></use></g><g><use xlink:href="#d14h5OfFf" opacity="1" fill="#5f77c5" fill-opacity="1"></use></g><g><use xlink:href="#b3ourbRS7v" opacity="1" fill="#5f77c5" fill-opacity="1"></use></g><g><use xlink:href="#b8fnuEgHT" opacity="1" fill="#2e6ce4" fill-opacity="1"></use></g><g><use xlink:href="#b2CtxmvqfK" opacity="1" fill="#2e6ce4" fill-opacity="1"></use></g><g><use xlink:href="#b5Irw48eC" opacity="1" fill="#2e6ce4" fill-opacity="1"></use></g><g><use xlink:href="#a17ac7anp0" opacity="1" fill="#2e6ce4" fill-opacity="1"></use></g><g><use xlink:href="#cdttAM7ch" opacity="1" fill="#2e6ce4" fill-opacity="1"></use></g><g><use xlink:href="#d6cQKYBapU" opacity="1" fill="#2e6ce4" fill-opacity="1"></use><g><use xlink:href="#d6cQKYBapU" opacity="1" fill-opacity="0" stroke="#12070a" stroke-width="2" stroke-opacity="1"></use></g></g><g><use xlink:href="#mxqy7pi5h" opacity="1" fill="#f2e51a" fill-opacity="1"></use></g><g><use xlink:href="#dANyoNll3" opacity="1" fill="#f2e51a" fill-opacity="1"></use></g><g><use xlink:href="#c1GKArMXgQ" opacity="1" fill="#f2e51a" fill-opacity="1"></use></g><g><use xlink:href="#a2ANE4nCTR" opacity="1" fill="#f2e51a" fill-opacity="1"></use></g><g><use xlink:href="#eDxCKT1z7" opacity="1" fill="#81c972" fill-opacity="1"></use></g><g><use xlink:href="#a1jCw1XFe4" opacity="1" fill="#f99d03" fill-opacity="1"></use></g><g><use xlink:href="#cmu92MS6g" opacity="1" fill="#f99d03" fill-opacity="1"></use></g><g><use xlink:href="#b10vIFWWBX" opacity="1" fill="#f99d03" fill-opacity="1"></use></g><g><use xlink:href="#a8mXkIBcgg" opacity="1" fill="#c59f5f" fill-opacity="1"></use></g><g><use xlink:href="#ahLk3HG77" opacity="1" fill="#c59f5f" fill-opacity="1"></use></g><g><use xlink:href="#h2g6rPXxlr" opacity="1" fill="#c60909" fill-opacity="1"></use></g><g><use xlink:href="#a1CKNlONV" opacity="1" fill="#0919ba" fill-opacity="1"></use></g><g><use xlink:href="#aNkXWfKDh" opacity="1" fill="#195c2e" fill-opacity="1"></use></g><g><use xlink:href="#d2k21kKkAL" opacity="1" fill="#c60909" fill-opacity="1"></use></g><g><use xlink:href="#b7mjuXlzZ" opacity="1" fill="#0919ba" fill-opacity="1"></use></g><g><use xlink:href="#cb4SDHNkS" opacity="1" fill="#54ba09" fill-opacity="1"></use></g><g><use xlink:href="#b2gjyaeEV6" opacity="1" fill="#54ba09" fill-opacity="1"></use></g><g><use xlink:href="#k5jD2W67ii" opacity="1" fill="#0919ba" fill-opacity="1"></use></g><g><use xlink:href="#ahSoCpebt" opacity="1" fill="#ed1253" fill-opacity="1"></use></g><g><use xlink:href="#c1qCuqOI6F" opacity="1" fill="#f6f221" fill-opacity="1"></use></g></g><g><use xlink:href="#a2paehswUU" opacity="1" fill="#f99d03" fill-opacity="1"></use></g></g><g><use xlink:href="#g68X6Kb8Z" opacity="1" fill="#f99d03" fill-opacity="1"></use></g><g><use xlink:href="#eB8X5UMZg" opacity="1" fill="#eae9e2" fill-opacity="1"></use></g><g><use xlink:href="#c37U22gM7" opacity="1" fill="#ed1253" fill-opacity="1"></use></g><g><use xlink:href="#b5FcFaiRGe" opacity="1" fill="#319b44" fill-opacity="1"></use></g><g><use xlink:href="#f86uc1rRDy" opacity="1" fill="#c59f5f" fill-opacity="1"></use></g><g><use xlink:href="#e6YwyuRS" opacity="1" fill="#54ba09" fill-opacity="1"></use></g><g><g><use xlink:href="#bawgDTiFL" opacity="1" fill="#41380d" fill-opacity="1"></use></g><g><use xlink:href="#c1mdvvpWI5" opacity="1" fill="#eae9e2" fill-opacity="1"></use></g><g><use xlink:href="#d1YkhXr1X" opacity="1" fill="#eae9e4" fill-opacity="1"></use></g><g><use xlink:href="#cozO0GSEO" opacity="1" fill="#eae9e4" fill-opacity="1"></use></g><g><use xlink:href="#dcvlTuv1V" opacity="1" fill="#eae9e4" fill-opacity="1"></use></g><g><use xlink:href="#j7ovrdCoPm" opacity="1" fill="#eae9e4" fill-opacity="1"></use></g><g><use xlink:href="#a2KB9zi5gA" opacity="1" fill="#eae9e2" fill-opacity="1"></use></g><g><use xlink:href="#c2roTPpiKJ" opacity="1" fill="#ffffff" fill-opacity="1"></use></g><g><use xlink:href="#b7e3fixZL" opacity="1" fill="#ffffff" fill-opacity="1"></use></g><g><use xlink:href="#a6Kh41rQef" opacity="1" fill="#ffffff" fill-opacity="1"></use></g><g><use xlink:href="#e1SnLOX5Lt" opacity="1" fill="#319b44" fill-opacity="1"></use></g><g><use xlink:href="#b213qszXI3" opacity="1" fill="#ffffff" fill-opacity="1"></use></g><g><use xlink:href="#f5T20YMWFg" opacity="1" fill="#ffffff" fill-opacity="1"></use></g><g><use xlink:href="#i6iE3ncfpZ" opacity="1" fill="#ffffff" fill-opacity="1"></use></g><g><use xlink:href="#h1cc6Ex2t9" opacity="1" fill="#ffffff" fill-opacity="1"></use></g><g><use xlink:href="#b1HJflKDS" opacity="1" fill="#5f77c5" fill-opacity="1"></use></g><g><use xlink:href="#a6TNugB7KP" opacity="1" fill="#ffffff" fill-opacity="1"></use></g><g><use xlink:href="#aTgrFpVz" opacity="1" fill="#a83737" fill-opacity="1"></use></g><g><use xlink:href="#a6hSQb2Fk" opacity="1" fill="#a83737" fill-opacity="1"></use></g><g><use xlink:href="#e36YHu2no8" opacity="1" fill="#319b44" fill-opacity="1"></use></g><g><use xlink:href="#d1MG5Z9InC" opacity="1" fill="#319b44" fill-opacity="1"></use></g><g><use xlink:href="#ezhoUxEfQ" opacity="1" fill="#81c972" fill-opacity="1"></use></g><g><use xlink:href="#g9mQWl0M6" opacity="1" fill="#319b44" fill-opacity="1"></use></g><g><use xlink:href="#d1gca8xeQA" opacity="1" fill="#5f77c5" fill-opacity="1"></use></g><g><use xlink:href="#bqZ7MITLh" opacity="1" fill="#5f77c5" fill-opacity="1"></use></g><g><use xlink:href="#e4nWbE7dxg" opacity="1" fill="#5f77c5" fill-opacity="1"></use></g><g><use xlink:href="#bo9vBVsLj" opacity="1" fill="#2e6ce4" fill-opacity="1"></use></g><g><use xlink:href="#e16i1ezh4M" opacity="1" fill="#2e6ce4" fill-opacity="1"></use></g><g><use xlink:href="#e7qrRw96h" opacity="1" fill="#2e6ce4" fill-opacity="1"></use></g><g><use xlink:href="#g2f3G0GqTw" opacity="1" fill="#2e6ce4" fill-opacity="1"></use></g><g><use xlink:href="#b1im9zrbYU" opacity="1" fill="#2e6ce4" fill-opacity="1"></use></g><g><use xlink:href="#a3pydpC9j" opacity="1" fill="#2e6ce4" fill-opacity="1"></use><g><use xlink:href="#a3pydpC9j" opacity="1" fill-opacity="0" stroke="#12070a" stroke-width="2" stroke-opacity="1"></use></g></g><g><use xlink:href="#g8MAFU8P1" opacity="1" fill="#f2e51a" fill-opacity="1"></use></g><g><use xlink:href="#j4zamF8Fi" opacity="1" fill="#f2e51a" fill-opacity="1"></use></g><g><use xlink:href="#dCsi5qU6" opacity="1" fill="#f2e51a" fill-opacity="1"></use></g><g><use xlink:href="#b5DLGw9fcx" opacity="1" fill="#f2e51a" fill-opacity="1"></use></g><g><use xlink:href="#c1V0v34xeW" opacity="1" fill="#81c972" fill-opacity="1"></use></g><g><use xlink:href="#g48GN0iHh" opacity="1" fill="#f99d03" fill-opacity="1"></use></g><g><use xlink:href="#h5oUufYYyq" opacity="1" fill="#f99d03" fill-opacity="1"></use></g><g><use xlink:href="#bPShYA7z" opacity="1" fill="#f99d03" fill-opacity="1"></use></g><g><use xlink:href="#a82E3J6p39" opacity="1" fill="#c59f5f" fill-opacity="1"></use></g><g><use xlink:href="#f4avKuvpi8" opacity="1" fill="#c59f5f" fill-opacity="1"></use></g><g><use xlink:href="#a3yfG9Wpfc" opacity="1" fill="#c60909" fill-opacity="1"></use></g><g><use xlink:href="#a4iodQRXwp" opacity="1" fill="#0919ba" fill-opacity="1"></use></g><g><use xlink:href="#a19ToDeEeG" opacity="1" fill="#195c2e" fill-opacity="1"></use></g><g><use xlink:href="#dOWPgj9G0" opacity="1" fill="#c60909" fill-opacity="1"></use></g><g><use xlink:href="#e5GXA3rYBb" opacity="1" fill="#0919ba" fill-opacity="1"></use></g><g><use xlink:href="#a3XhjQyIq9" opacity="1" fill="#54ba09" fill-opacity="1"></use></g><g><use xlink:href="#acs5eMHOj" opacity="1" fill="#54ba09" fill-opacity="1"></use></g><g><use xlink:href="#a2rI5B4ncE" opacity="1" fill="#0919ba" fill-opacity="1"></use></g><g><use xlink:href="#aaTZp38mb" opacity="1" fill="#ed1253" fill-opacity="1"></use></g><g><use xlink:href="#j9ZZOify8" opacity="1" fill="#f6f221" fill-opacity="1"></use></g></g><g><use xlink:href="#anmEbx8dR" opacity="1" fill="#f99d03" fill-opacity="1"></use></g><g><use xlink:href="#b1soRIQbyq" opacity="1" fill="#81c972" fill-opacity="1"></use></g><g><use xlink:href="#hBdE8Xa97" opacity="1" fill="#9d6055" fill-opacity="1"></use></g></g><g><use xlink:href="#c4Lm76vHyG" opacity="1" fill="#9d6055" fill-opacity="1"></use></g></g></g></svg>